<svg xmlns="http://www.w3.org/2000/svg" xmlns:xlink="http://www.w3.org/1999/xlink" viewBox="0 0 125.7 178.87"><defs><style>.cls-1,.cls-2{fill:none;stroke-width:0.25px;}.cls-1{stroke:#fcfcfa;}.cls-1,.cls-14,.cls-2,.cls-20,.cls-23,.cls-26,.cls-29,.cls-32,.cls-35,.cls-38,.cls-8{stroke-miterlimit:10;}.cls-2{stroke:#fff;}.cls-3{fill:url(#radial-gradient);}.cls-4{fill:url(#linear-gradient);}.cls-5{fill:url(#radial-gradient-2);}.cls-6{fill:url(#linear-gradient-2);}.cls-7{fill:url(#radial-gradient-3);}.cls-8{fill:url(#radial-gradient-4);stroke:url(#radial-gradient-5);}.cls-9{fill:url(#radial-gradient-6);}.cls-10{fill:url(#linear-gradient-3);}.cls-11{fill:url(#radial-gradient-7);}.cls-12{fill:url(#linear-gradient-4);}.cls-13{fill:url(#radial-gradient-8);}.cls-14{fill:url(#radial-gradient-9);stroke:url(#radial-gradient-10);}.cls-15{fill:url(#radial-gradient-11);}.cls-16{fill:url(#linear-gradient-5);}.cls-17{fill:url(#radial-gradient-12);}.cls-18{fill:url(#linear-gradient-6);}.cls-19{fill:url(#radial-gradient-13);}.cls-20{fill:url(#radial-gradient-14);stroke:url(#radial-gradient-15);}.cls-21{fill:url(#linear-gradient-7);}.cls-22{fill:url(#radial-gradient-16);}.cls-23{fill:url(#radial-gradient-17);stroke:url(#radial-gradient-18);}.cls-24{fill:url(#linear-gradient-8);}.cls-25{fill:url(#radial-gradient-19);}.cls-26{fill:url(#radial-gradient-20);stroke:url(#radial-gradient-21);}.cls-27{fill:url(#linear-gradient-9);}.cls-28{fill:url(#radial-gradient-22);}.cls-29{fill:url(#radial-gradient-23);stroke:url(#radial-gradient-24);}.cls-30{fill:url(#linear-gradient-10);}.cls-31{fill:url(#radial-gradient-25);}.cls-32{fill:url(#radial-gradient-26);stroke:url(#radial-gradient-27);}.cls-33{fill:url(#linear-gradient-11);}.cls-34{fill:url(#radial-gradient-28);}.cls-35{fill:url(#radial-gradient-29);stroke:url(#radial-gradient-30);}.cls-36{fill:url(#linear-gradient-12);}.cls-37{fill:url(#radial-gradient-31);}.cls-38{fill:url(#radial-gradient-32);stroke:url(#radial-gradient-33);}.cls-39{fill:url(#radial-gradient-34);}.cls-40{fill:url(#linear-gradient-13);}.cls-41{fill:url(#radial-gradient-35);}</style><radialGradient id="radial-gradient" cx="102.77" cy="19.19" r="18.04" gradientTransform="translate(4.43) scale(0.99 1)" gradientUnits="userSpaceOnUse"><stop offset="0.27" stop-color="#fff"/><stop offset="1" stop-color="#fff" stop-opacity="0"/></radialGradient><linearGradient id="linear-gradient" x1="90.27" y1="19.19" x2="122.96" y2="19.19" gradientUnits="userSpaceOnUse"><stop offset="0" stop-color="#fff"/><stop offset="1" stop-color="#fff" stop-opacity="0.5"/></linearGradient><radialGradient id="radial-gradient-2" cx="102.77" cy="19.19" r="19.19" gradientTransform="translate(4.43) scale(0.99 1)" gradientUnits="userSpaceOnUse"><stop offset="0.22" stop-color="#fff"/><stop offset="0.7" stop-color="#fff" stop-opacity="0"/></radialGradient><linearGradient id="linear-gradient-2" x1="55" y1="49.57" x2="71.86" y2="49.57" gradientUnits="userSpaceOnUse"><stop offset="0.2" stop-color="#fff"/><stop offset="0.94" stop-color="#fff" stop-opacity="0.5"/><stop offset="0.97" stop-color="#fff"/></linearGradient><radialGradient id="radial-gradient-3" cx="63.43" cy="49.57" r="6.86" gradientUnits="userSpaceOnUse"><stop offset="0.42" stop-color="#fff"/><stop offset="0.82" stop-color="#fff" stop-opacity="0"/></radialGradient><radialGradient id="radial-gradient-4" cx="63.42" cy="49.67" r="6.38" gradientUnits="userSpaceOnUse"><stop offset="0.23" stop-color="#fff"/><stop offset="0.94" stop-color="#fff" stop-opacity="0"/></radialGradient><radialGradient id="radial-gradient-5" cx="63.42" cy="49.73" r="6.46" gradientUnits="userSpaceOnUse"><stop offset="0.31" stop-color="#fff"/><stop offset="0.82" stop-color="#fff" stop-opacity="0"/></radialGradient><radialGradient id="radial-gradient-6" cx="81.65" cy="94.19" r="15.67" xlink:href="#radial-gradient"/><linearGradient id="linear-gradient-3" x1="71.41" y1="94.19" x2="99.82" y2="94.19" xlink:href="#linear-gradient"/><radialGradient id="radial-gradient-7" cx="81.65" cy="94.19" r="16.68" xlink:href="#radial-gradient-2"/><linearGradient id="linear-gradient-4" x1="47" y1="99.57" x2="63.86" y2="99.57" xlink:href="#linear-gradient-2"/><radialGradient id="radial-gradient-8" cx="55.43" cy="99.57" r="6.86" xlink:href="#radial-gradient-3"/><radialGradient id="radial-gradient-9" cx="55.42" cy="99.67" r="6.38" xlink:href="#radial-gradient-4"/><radialGradient id="radial-gradient-10" cx="55.42" cy="99.73" r="6.46" xlink:href="#radial-gradient-5"/><radialGradient id="radial-gradient-11" cx="13.26" cy="80.19" r="12.04" xlink:href="#radial-gradient"/><linearGradient id="linear-gradient-5" x1="6.7" y1="80.19" x2="28.53" y2="80.19" xlink:href="#linear-gradient"/><radialGradient id="radial-gradient-12" cx="13.26" cy="80.19" r="12.81" xlink:href="#radial-gradient-2"/><linearGradient id="linear-gradient-6" x1="10.66" y1="103.57" x2="24.2" y2="103.57" xlink:href="#linear-gradient-2"/><radialGradient id="radial-gradient-13" cx="17.43" cy="103.57" r="5.51" xlink:href="#radial-gradient-3"/><radialGradient id="radial-gradient-14" cx="17.42" cy="103.65" r="5.13" xlink:href="#radial-gradient-4"/><radialGradient id="radial-gradient-15" cx="17.43" cy="103.72" r="5.21" xlink:href="#radial-gradient-5"/><linearGradient id="linear-gradient-7" x1="0.66" y1="108.57" x2="12.2" y2="108.57" xlink:href="#linear-gradient-2"/><radialGradient id="radial-gradient-16" cx="6.43" cy="108.57" r="4.7" xlink:href="#radial-gradient-3"/><radialGradient id="radial-gradient-17" cx="6.42" cy="108.64" r="4.37" xlink:href="#radial-gradient-4"/><radialGradient id="radial-gradient-18" cx="6.43" cy="108.7" r="4.45" xlink:href="#radial-gradient-5"/><linearGradient id="linear-gradient-8" x1="0" y1="117.57" x2="10.86" y2="117.57" xlink:href="#linear-gradient-2"/><radialGradient id="radial-gradient-19" cx="5.43" cy="117.57" r="4.42" xlink:href="#radial-gradient-3"/><radialGradient id="radial-gradient-20" cx="5.42" cy="117.63" r="4.11" xlink:href="#radial-gradient-4"/><radialGradient id="radial-gradient-21" cx="5.43" cy="117.7" r="4.19" xlink:href="#radial-gradient-5"/><linearGradient id="linear-gradient-9" x1="30" y1="167.57" x2="46.86" y2="167.57" xlink:href="#linear-gradient-2"/><radialGradient id="radial-gradient-22" cx="38.43" cy="167.57" r="6.86" xlink:href="#radial-gradient-3"/><radialGradient id="radial-gradient-23" cx="38.42" cy="167.67" r="6.38" xlink:href="#radial-gradient-4"/><radialGradient id="radial-gradient-24" cx="38.42" cy="167.73" r="6.46" xlink:href="#radial-gradient-5"/><linearGradient id="linear-gradient-10" x1="39" y1="143.57" x2="51.86" y2="143.57" xlink:href="#linear-gradient-2"/><radialGradient id="radial-gradient-25" cx="45.43" cy="143.57" r="5.23" xlink:href="#radial-gradient-3"/><radialGradient id="radial-gradient-26" cx="45.42" cy="143.64" r="4.87" xlink:href="#radial-gradient-4"/><radialGradient id="radial-gradient-27" cx="45.43" cy="143.71" r="4.95" xlink:href="#radial-gradient-5"/><linearGradient id="linear-gradient-11" x1="63" y1="139.57" x2="75.86" y2="139.57" xlink:href="#linear-gradient-2"/><radialGradient id="radial-gradient-28" cx="69.43" cy="139.57" r="5.23" xlink:href="#radial-gradient-3"/><radialGradient id="radial-gradient-29" cx="69.42" cy="139.64" r="4.87" xlink:href="#radial-gradient-4"/><radialGradient id="radial-gradient-30" cx="69.43" cy="139.71" r="4.95" xlink:href="#radial-gradient-5"/><linearGradient id="linear-gradient-12" x1="75" y1="146.57" x2="87.86" y2="146.57" xlink:href="#linear-gradient-2"/><radialGradient id="radial-gradient-31" cx="81.43" cy="146.57" r="5.23" xlink:href="#radial-gradient-3"/><radialGradient id="radial-gradient-32" cx="81.42" cy="146.64" r="4.87" xlink:href="#radial-gradient-4"/><radialGradient id="radial-gradient-33" cx="81.43" cy="146.71" r="4.95" xlink:href="#radial-gradient-5"/><radialGradient id="radial-gradient-34" cx="97.74" cy="162.19" r="15.67" xlink:href="#radial-gradient"/><linearGradient id="linear-gradient-13" x1="87.41" y1="162.19" x2="115.82" y2="162.19" xlink:href="#linear-gradient"/><radialGradient id="radial-gradient-35" cx="97.74" cy="162.19" r="16.68" xlink:href="#radial-gradient-2"/></defs><title>aquarius</title><g id="Layer_2" data-name="Layer 2"><g id="Layer_1-2" data-name="Layer 1"><line class="cls-1" x1="108.2" y1="18" x2="63.2" y2="50"/><line class="cls-1" x1="61.7" y1="50.5" x2="16.7" y2="79.5"/><line class="cls-1" x1="55.7" y1="99.5" x2="16.7" y2="80.5"/><line class="cls-1" x1="87.7" y1="94.5" x2="56.7" y2="100.5"/><line class="cls-1" x1="17.7" y1="104.5" x2="16.7" y2="82.5"/><line class="cls-2" x1="8.2" y1="108" x2="15.7" y2="104.5"/><line class="cls-2" x1="5.7" y1="115.5" x2="6.7" y2="109.5"/><line class="cls-1" x1="37.7" y1="166.5" x2="5.7" y2="120.5"/><line class="cls-1" x1="38.7" y1="166.5" x2="44.7" y2="143.5"/><line class="cls-1" x1="69.7" y1="140.5" x2="45.7" y2="143.5"/><line class="cls-1" x1="80.7" y1="146.5" x2="70.7" y2="140.5"/><polygon class="cls-3" points="106.61 1.16 107 17.74 115.58 3.57 107.67 18.13 122.15 10.17 108.05 18.8 124.55 19.19 108.05 19.58 122.15 28.21 107.67 20.25 115.58 34.81 107 20.64 106.61 37.23 106.23 20.64 97.65 34.81 105.56 20.25 91.08 28.21 105.18 19.58 88.68 19.19 105.18 18.8 91.08 10.17 105.56 18.13 97.65 3.57 106.23 17.74 106.61 1.16"/><polygon class="cls-4" points="122.7 35.63 106.6 21.11 90.27 35.37 104.71 19.18 90.53 2.75 106.63 17.27 122.96 3.02 108.52 19.21 122.7 35.63"/><ellipse class="cls-5" cx="106.62" cy="19.19" rx="19.08" ry="19.19"/><polygon class="cls-6" points="71.86 52.25 63.77 50.22 60.75 58 62.78 49.91 55 46.9 63.09 48.92 66.1 41.14 64.08 49.23 71.86 52.25"/><circle class="cls-7" cx="63.43" cy="49.57" r="6.86"/><polygon class="cls-8" points="68.29 54.07 63.72 50.25 65.21 56.02 63.42 50.33 61.56 55.99 63.13 50.24 58.5 54 62.94 50.01 57.01 50.67 62.9 49.71 57.56 47.06 63.02 49.44 59.97 44.32 63.28 49.27 63.48 43.31 63.58 49.28 66.97 44.37 63.84 49.44 69.34 47.14 63.96 49.72 69.83 50.76 63.92 50.02 68.29 54.07"/><polygon class="cls-9" points="85.61 78.52 85.95 92.93 93.41 80.62 86.53 93.27 99.11 86.35 86.87 93.85 101.2 94.19 86.87 94.53 99.11 102.03 86.53 95.11 93.41 107.77 85.95 95.45 85.61 109.87 85.28 95.45 77.82 107.77 84.7 95.11 72.12 102.03 84.36 94.53 70.03 94.19 84.36 93.85 72.12 86.35 84.7 93.27 77.82 80.62 85.28 92.93 85.61 78.52"/><polygon class="cls-10" points="99.59 108.48 85.6 95.86 71.41 108.25 83.96 94.18 71.64 79.9 85.63 92.53 99.82 80.13 87.27 94.2 99.59 108.48"/><ellipse class="cls-11" cx="85.62" cy="94.19" rx="16.58" ry="16.68"/><polygon class="cls-12" points="63.86 102.25 55.77 100.22 52.75 108 54.78 99.91 47 96.9 55.09 98.92 58.1 91.14 56.08 99.23 63.86 102.25"/><circle class="cls-13" cx="55.43" cy="99.57" r="6.86"/><polygon class="cls-14" points="60.29 104.07 55.72 100.25 57.21 106.02 55.42 100.33 53.56 105.99 55.13 100.24 50.5 104 54.94 100.01 49.01 100.67 54.9 99.71 49.56 97.06 55.02 99.44 51.97 94.32 55.28 99.28 55.48 93.31 55.58 99.28 58.97 94.37 55.84 99.44 61.34 97.14 55.96 99.72 61.83 100.76 55.92 100.02 60.29 104.07"/><polygon class="cls-15" points="17.61 68.15 17.87 79.22 23.6 69.77 18.32 79.48 27.98 74.17 18.58 79.93 29.59 80.19 18.58 80.45 27.98 86.21 18.32 80.9 23.6 90.62 17.87 81.16 17.61 92.23 17.36 81.16 11.63 90.62 16.91 80.9 7.25 86.21 16.66 80.45 5.65 80.19 16.66 79.93 7.25 74.17 16.91 79.48 11.63 69.77 17.36 79.22 17.61 68.15"/><polygon class="cls-16" points="28.35 91.16 17.61 81.47 6.71 90.99 16.34 80.18 6.88 69.22 17.63 78.91 28.53 69.39 18.89 80.2 28.35 91.16"/><ellipse class="cls-17" cx="17.62" cy="80.19" rx="12.74" ry="12.81"/><polygon class="cls-18" points="24.2 105.72 17.7 104.1 15.28 110.34 16.9 103.84 10.66 101.42 17.16 103.05 19.58 96.8 17.95 103.3 24.2 105.72"/><circle class="cls-19" cx="17.43" cy="103.57" r="5.51"/><polygon class="cls-20" points="21.34 107.18 17.66 104.11 18.86 108.75 17.43 104.18 15.93 108.73 17.19 104.11 13.47 107.13 17.03 103.92 12.27 104.45 17 103.68 12.71 101.55 17.1 103.46 14.65 99.35 17.31 103.33 17.47 98.55 17.55 103.33 20.27 99.39 17.76 103.47 22.18 101.62 17.86 103.69 22.57 104.53 17.82 103.93 21.34 107.18"/><polygon class="cls-21" points="12.2 110.4 6.66 109.02 4.6 114.34 5.98 108.8 0.66 106.74 6.2 108.13 8.26 102.8 6.88 108.34 12.2 110.4"/><circle class="cls-22" cx="6.43" cy="108.57" r="4.7"/><polygon class="cls-23" points="9.76 111.65 6.63 109.03 7.65 112.99 6.42 109.09 5.15 112.97 6.23 109.03 3.06 111.6 6.09 108.87 2.03 109.32 6.06 108.67 2.41 106.85 6.15 108.48 4.06 104.97 6.33 108.37 6.46 104.29 6.53 108.37 8.85 105.01 6.71 108.48 10.47 106.91 6.79 108.67 10.81 109.39 6.76 108.88 9.76 111.65"/><polygon class="cls-24" points="10.86 119.3 5.65 117.99 3.71 123 5.01 117.79 0 115.85 5.21 117.15 7.15 112.14 5.85 117.35 10.86 119.3"/><circle class="cls-25" cx="5.43" cy="117.57" r="4.42"/><polygon class="cls-26" points="8.56 120.47 5.61 118.01 6.57 121.72 5.43 118.06 4.22 121.71 5.24 118 2.26 120.42 5.11 117.86 1.29 118.28 5.08 117.66 1.65 115.95 5.17 117.48 3.2 114.19 5.33 117.38 5.46 113.54 5.53 117.38 7.71 114.22 5.69 117.49 9.23 116.01 5.77 117.67 9.55 118.34 5.74 117.86 8.56 120.47"/><polygon class="cls-27" points="46.86 170.25 38.77 168.22 35.75 176 37.78 167.91 30 164.9 38.09 166.92 41.1 159.14 39.08 167.23 46.86 170.25"/><circle class="cls-28" cx="38.43" cy="167.57" r="6.86"/><polygon class="cls-29" points="43.29 172.07 38.72 168.25 40.21 174.02 38.42 168.33 36.56 173.99 38.13 168.24 33.5 172 37.94 168.01 32.01 168.67 37.9 167.71 32.56 165.06 38.02 167.44 34.97 162.32 38.28 167.28 38.48 161.31 38.58 167.28 41.97 162.37 38.84 167.44 44.34 165.14 38.96 167.72 44.83 168.76 38.92 168.02 43.29 172.07"/><polygon class="cls-30" points="51.86 145.61 45.69 144.07 43.39 150 44.93 143.83 39 141.53 45.17 143.07 47.47 137.14 45.93 143.31 51.86 145.61"/><circle class="cls-31" cx="45.43" cy="143.57" r="5.23"/><polygon class="cls-32" points="49.14 147 45.65 144.09 46.79 148.49 45.42 144.15 44 148.47 45.2 144.08 41.67 146.95 45.05 143.91 40.53 144.41 45.02 143.68 40.95 141.66 45.12 143.47 42.79 139.56 45.31 143.34 45.46 138.8 45.55 143.35 48.13 139.6 45.74 143.47 49.94 141.72 45.84 143.68 50.31 144.48 45.8 143.91 49.14 147"/><polygon class="cls-33" points="75.86 141.61 69.69 140.07 67.39 146 68.93 139.83 63 137.53 69.17 139.07 71.47 133.14 69.93 139.31 75.86 141.61"/><circle class="cls-34" cx="69.43" cy="139.57" r="5.23"/><polygon class="cls-35" points="73.14 143 69.65 140.09 70.79 144.49 69.42 140.15 68 144.47 69.2 140.08 65.67 142.95 69.05 139.91 64.53 140.41 69.02 139.68 64.95 137.66 69.12 139.47 66.79 135.56 69.31 139.34 69.46 134.8 69.55 139.35 72.13 135.6 69.74 139.47 73.94 137.72 69.83 139.68 74.31 140.48 69.8 139.91 73.14 143"/><polygon class="cls-36" points="87.86 148.61 81.69 147.07 79.39 153 80.93 146.83 75 144.53 81.17 146.07 83.47 140.14 81.93 146.31 87.86 148.61"/><circle class="cls-37" cx="81.43" cy="146.57" r="5.23"/><polygon class="cls-38" points="85.14 150 81.65 147.09 82.79 151.49 81.42 147.15 80 151.47 81.2 147.08 77.67 149.95 81.05 146.91 76.53 147.41 81.02 146.68 76.95 144.66 81.12 146.47 78.79 142.56 81.31 146.34 81.46 141.8 81.55 146.35 84.13 142.6 81.74 146.47 85.94 144.72 81.83 146.68 86.31 147.48 81.8 146.91 85.14 150"/><line class="cls-1" x1="98.7" y1="160.5" x2="80.7" y2="146.5"/><polygon class="cls-39" points="101.61 146.52 101.95 160.93 109.41 148.62 102.53 161.27 115.11 154.35 102.87 161.85 117.2 162.19 102.87 162.53 115.11 170.03 102.53 163.11 109.41 175.77 101.95 163.45 101.61 177.87 101.28 163.45 93.82 175.77 100.7 163.11 88.12 170.03 100.36 162.53 86.03 162.19 100.36 161.85 88.12 154.35 100.7 161.27 93.82 148.62 101.28 160.93 101.61 146.52"/><polygon class="cls-40" points="115.59 176.48 101.6 163.86 87.41 176.25 99.96 162.18 87.64 147.9 101.63 160.53 115.82 148.13 103.27 162.21 115.59 176.48"/><ellipse class="cls-41" cx="101.62" cy="162.19" rx="16.58" ry="16.68"/></g></g></svg>