<svg xmlns="http://www.w3.org/2000/svg" xmlns:xlink="http://www.w3.org/1999/xlink" viewBox="0 0 229.83 117.8"><defs><style>.cls-1,.cls-2{fill:none;}.cls-1{stroke:#fcfcfa;stroke-width:0.25px;}.cls-1,.cls-11,.cls-14,.cls-5{stroke-miterlimit:10;}.cls-3{fill:url(#linear-gradient);}.cls-4{fill:url(#radial-gradient);}.cls-5{fill:url(#radial-gradient-2);stroke:url(#radial-gradient-3);}.cls-6{fill:url(#radial-gradient-4);}.cls-7{fill:url(#linear-gradient-2);}.cls-8{fill:url(#radial-gradient-5);}.cls-9{fill:url(#linear-gradient-3);}.cls-10{fill:url(#radial-gradient-6);}.cls-11{fill:url(#radial-gradient-7);stroke:url(#radial-gradient-8);}.cls-12{fill:url(#linear-gradient-4);}.cls-13{fill:url(#radial-gradient-9);}.cls-14{fill:url(#radial-gradient-10);stroke:url(#radial-gradient-11);}</style><linearGradient id="linear-gradient" x1="204.69" y1="11.69" x2="222.88" y2="11.69" gradientTransform="matrix(0.99, 0.14, -0.14, 0.99, 1.07, 34.12)" gradientUnits="userSpaceOnUse"><stop offset="0.2" stop-color="#fff"/><stop offset="0.94" stop-color="#fff" stop-opacity="0.5"/><stop offset="0.97" stop-color="#fff"/></linearGradient><radialGradient id="radial-gradient" cx="213.79" cy="11.69" r="7.4" gradientTransform="matrix(0.99, 0.14, -0.14, 0.99, 1.07, 34.12)" gradientUnits="userSpaceOnUse"><stop offset="0.42" stop-color="#fff"/><stop offset="0.82" stop-color="#fff" stop-opacity="0"/></radialGradient><radialGradient id="radial-gradient-2" cx="213.78" cy="11.79" r="6.89" gradientTransform="matrix(0.99, 0.14, -0.14, 0.99, 1.07, 34.12)" gradientUnits="userSpaceOnUse"><stop offset="0.23" stop-color="#fff"/><stop offset="0.94" stop-color="#fff" stop-opacity="0"/></radialGradient><radialGradient id="radial-gradient-3" cx="213.78" cy="11.86" r="6.97" gradientTransform="matrix(0.99, 0.14, -0.14, 0.99, 1.07, 34.12)" gradientUnits="userSpaceOnUse"><stop offset="0.31" stop-color="#fff"/><stop offset="0.82" stop-color="#fff" stop-opacity="0"/></radialGradient><radialGradient id="radial-gradient-4" cx="148.93" cy="43.94" r="21.52" gradientTransform="translate(4.13) scale(0.99 1)" gradientUnits="userSpaceOnUse"><stop offset="0.27" stop-color="#fff"/><stop offset="1" stop-color="#fff" stop-opacity="0"/></radialGradient><linearGradient id="linear-gradient-2" x1="132.71" y1="43.94" x2="171.72" y2="43.94" gradientUnits="userSpaceOnUse"><stop offset="0" stop-color="#fff"/><stop offset="1" stop-color="#fff" stop-opacity="0.5"/></linearGradient><radialGradient id="radial-gradient-5" cx="148.93" cy="43.94" r="22.9" gradientTransform="translate(4.13) scale(0.99 1)" gradientUnits="userSpaceOnUse"><stop offset="0.22" stop-color="#fff"/><stop offset="0.7" stop-color="#fff" stop-opacity="0"/></radialGradient><linearGradient id="linear-gradient-3" x1="215.56" y1="43.22" x2="237.23" y2="43.22" xlink:href="#linear-gradient"/><radialGradient id="radial-gradient-6" cx="226.4" cy="43.22" r="8.82" xlink:href="#radial-gradient"/><radialGradient id="radial-gradient-7" cx="226.39" cy="43.35" r="8.2" xlink:href="#radial-gradient-2"/><radialGradient id="radial-gradient-8" cx="226.39" cy="43.41" r="8.29" xlink:href="#radial-gradient-3"/><linearGradient id="linear-gradient-4" x1="-4.94" y1="-24.83" x2="16.84" y2="-24.83" xlink:href="#linear-gradient"/><radialGradient id="radial-gradient-9" cx="5.95" cy="-24.83" r="8.86" xlink:href="#radial-gradient"/><radialGradient id="radial-gradient-10" cx="5.94" cy="-24.71" r="8.24" xlink:href="#radial-gradient-2"/><radialGradient id="radial-gradient-11" cx="5.94" cy="-24.64" r="8.33" xlink:href="#radial-gradient-3"/></defs><title>kozoroh</title><g id="Layer_2" data-name="Layer 2"><g id="Layer_1-2" data-name="Layer 1"><line class="cls-1" x1="9.4" y1="9.89" x2="153.56" y2="44.48"/><line class="cls-2" x1="212.87" y1="74.96" x2="155.21" y2="44.48"/><line class="cls-1" x1="155.21" y1="44.48" x2="210.4" y2="74.14"/><line class="cls-1" x1="212.05" y1="74.14" x2="219.46" y2="106.27"/><polygon class="cls-3" points="219.95 78.67 211.59 75.32 207.23 83.2 210.57 74.84 202.7 70.49 211.06 73.83 215.41 65.95 212.07 74.31 219.95 78.67"/><circle class="cls-4" cx="211.32" cy="74.58" r="7.4"/><polygon class="cls-5" points="215.87 80.09 211.53 75.34 212.28 81.73 211.21 75.39 208.39 81.17 210.91 75.25 205.41 78.59 210.73 74.97 204.3 74.81 210.73 74.65 205.41 71.03 210.91 74.37 208.38 68.45 211.21 74.24 212.28 67.89 211.53 74.28 215.87 69.53 211.78 74.5 218 72.84 211.87 74.81 218 76.78 211.78 75.13 215.87 80.09"/><polygon class="cls-6" points="152.21 22.42 152.67 42.21 162.91 25.3 153.47 42.67 170.74 33.18 153.93 43.48 173.61 43.94 153.93 44.4 170.74 54.7 153.47 45.2 162.91 62.58 152.67 45.67 152.21 65.46 151.75 45.67 141.51 62.58 150.96 45.2 133.68 54.7 150.5 44.4 130.82 43.94 150.5 43.48 133.68 33.18 150.96 42.67 141.51 25.3 151.75 42.21 152.21 22.42"/><polygon class="cls-7" points="171.4 63.55 152.19 46.23 132.71 63.24 149.94 43.92 133.02 24.32 152.23 41.65 171.72 24.64 154.49 43.96 171.4 63.55"/><ellipse class="cls-8" cx="152.21" cy="43.94" rx="22.77" ry="22.9"/><polygon class="cls-9" points="229.83 112.4 219.88 108.42 214.69 117.8 218.67 107.84 209.29 102.66 219.24 106.64 224.43 97.25 220.45 107.21 229.83 112.4"/><circle class="cls-10" cx="219.56" cy="107.53" r="8.82"/><polygon class="cls-11" points="224.97 114.1 219.81 108.44 220.71 116.05 219.42 108.49 216.06 115.38 219.07 108.33 212.52 112.31 218.86 108 211.19 107.81 218.86 107.61 212.52 103.31 219.07 107.28 216.06 100.23 219.42 107.12 220.71 99.56 219.81 107.18 224.97 101.51 220.1 107.43 227.51 105.46 220.21 107.81 227.51 110.15 220.1 108.18 224.97 114.1"/><polygon class="cls-12" points="20.64 15.22 10.64 11.22 5.43 20.64 9.43 10.64 0 5.43 10 9.43 15.22 0 11.22 10 20.64 15.22"/><circle class="cls-13" cx="10.32" cy="10.32" r="8.86"/><polygon class="cls-14" points="15.76 16.93 10.57 11.24 11.48 18.89 10.19 11.29 6.81 18.22 9.83 11.13 3.25 15.13 9.62 10.8 1.92 10.61 9.62 10.41 3.24 6.08 9.83 10.08 6.81 2.99 10.19 9.92 11.47 2.32 10.57 9.97 15.76 4.28 10.87 10.23 18.31 8.24 10.98 10.6 18.31 12.96 10.87 10.98 15.76 16.93"/></g></g></svg>