<svg xmlns="http://www.w3.org/2000/svg" viewBox="0 0 730.69 491.19"><defs><style>.cls-1,.cls-2{fill:none;stroke:#fff;stroke-miterlimit:10;}.cls-1{stroke-width:2px;}.cls-2{stroke-width:2.5px;}</style></defs><title>border</title><g id="Layer_2" data-name="Layer 2"><g id="Layer_1-2" data-name="Layer 1"><polygon class="cls-1" points="17.31 384.99 71.22 404.28 72.45 390.92 30.41 364.96 17.31 384.99"/><polygon class="cls-1" points="2.22 331.13 30.41 364.96 17.31 384.99 2.22 331.13"/><polyline class="cls-1" points="2.22 331.13 24.62 272.17 30.41 364.96"/><polyline class="cls-1" points="27.52 318.56 59.29 255.41 21.95 218.17 24.62 272.17"/><polygon class="cls-1" points="39.39 61.17 41.74 118.38 54.59 114.52 62.88 65.81 39.39 61.17"/><polygon class="cls-1" points="83.65 26.98 62.88 65.81 39.39 61.17 83.65 26.98"/><polyline class="cls-1" points="83.65 26.98 146.71 25.62 62.88 65.81"/><polyline class="cls-1" points="118.76 26.22 64.78 1.35 42.3 58.93"/><polygon class="cls-1" points="220.13 449.23 245.31 397.81 232.18 395.09 201.69 433.97 220.13 449.23"/><polygon class="cls-1" points="164.93 458.22 201.69 433.97 220.13 449.23 164.93 458.22"/><polyline class="cls-1" points="164.93 458.22 108.83 429.39 201.69 433.97"/><polyline class="cls-1" points="133.7 442.17 169.32 489.74 216.51 449.82"/><polygon class="cls-1" points="220.13 449.23 223.15 450.56 291.7 480.86 388.57 460.89 220.13 449.23"/><polyline class="cls-1" points="245.31 397.81 340.65 455.51 462.16 414.98 432.31 465.8 388.57 460.89"/><rect class="cls-2" x="39.39" y="46.64" width="690.04" height="388.62"/></g></g></svg>