<svg xmlns="http://www.w3.org/2000/svg" xmlns:xlink="http://www.w3.org/1999/xlink" viewBox="0 0 141.14 110.16"><defs><style>.cls-1{fill:none;stroke:#fcfcfa;stroke-miterlimit:10;stroke-width:0.25px;}.cls-2{fill:url(#radial-gradient);}.cls-3{fill:url(#linear-gradient);}.cls-4{fill:url(#radial-gradient-2);}.cls-5{fill:url(#radial-gradient-3);}.cls-6{fill:url(#linear-gradient-2);}.cls-7{fill:url(#radial-gradient-4);}.cls-8{fill:url(#radial-gradient-5);}.cls-9{fill:url(#linear-gradient-3);}.cls-10{fill:url(#radial-gradient-6);}.cls-11{fill:url(#radial-gradient-7);}.cls-12{fill:url(#linear-gradient-4);}.cls-13{fill:url(#radial-gradient-8);}.cls-14{fill:url(#radial-gradient-9);}.cls-15{fill:url(#linear-gradient-5);}.cls-16{fill:url(#radial-gradient-10);}.cls-17{fill:url(#radial-gradient-11);}.cls-18{fill:url(#linear-gradient-6);}.cls-19{fill:url(#radial-gradient-12);}.cls-20{fill:url(#radial-gradient-13);}.cls-21{fill:url(#linear-gradient-7);}.cls-22{fill:url(#radial-gradient-14);}.cls-23{fill:url(#radial-gradient-15);}.cls-24{fill:url(#linear-gradient-8);}.cls-25{fill:url(#radial-gradient-16);}.cls-26{fill:url(#radial-gradient-17);}.cls-27{fill:url(#linear-gradient-9);}.cls-28{fill:url(#radial-gradient-18);}</style><radialGradient id="radial-gradient" cx="131.74" cy="75.47" r="8.84" gradientUnits="userSpaceOnUse"><stop offset="0.27" stop-color="#fff"/><stop offset="1" stop-color="#fff" stop-opacity="0"/></radialGradient><linearGradient id="linear-gradient" x1="123.68" y1="75.47" x2="139.8" y2="75.47" gradientUnits="userSpaceOnUse"><stop offset="0" stop-color="#fff"/><stop offset="1" stop-color="#fff" stop-opacity="0.5"/></linearGradient><radialGradient id="radial-gradient-2" cx="131.74" cy="75.47" r="9.4" gradientUnits="userSpaceOnUse"><stop offset="0.22" stop-color="#fff"/><stop offset="0.7" stop-color="#fff" stop-opacity="0"/></radialGradient><radialGradient id="radial-gradient-3" cx="-6.53" cy="87.75" r="8.84" gradientTransform="translate(9.62 43.39) scale(0.6 0.69)" xlink:href="#radial-gradient"/><linearGradient id="linear-gradient-2" x1="0.81" y1="103.69" x2="10.55" y2="103.69" xlink:href="#linear-gradient"/><radialGradient id="radial-gradient-4" cx="-6.53" cy="87.75" r="9.4" gradientTransform="translate(9.62 43.39) scale(0.6 0.69)" xlink:href="#radial-gradient-2"/><radialGradient id="radial-gradient-5" cx="86.82" cy="55.46" r="8.84" gradientTransform="translate(9.62 43.39) scale(0.6 0.69)" xlink:href="#radial-gradient"/><linearGradient id="linear-gradient-3" x1="57.2" y1="81.51" x2="66.93" y2="81.51" xlink:href="#linear-gradient"/><radialGradient id="radial-gradient-6" cx="86.82" cy="55.46" r="9.4" gradientTransform="translate(9.62 43.39) scale(0.6 0.69)" xlink:href="#radial-gradient-2"/><radialGradient id="radial-gradient-7" cx="151.74" cy="0.92" r="8.84" gradientTransform="translate(9.62 43.39) scale(0.6 0.69)" xlink:href="#radial-gradient"/><linearGradient id="linear-gradient-4" x1="96.41" y1="44.03" x2="106.14" y2="44.03" xlink:href="#linear-gradient"/><radialGradient id="radial-gradient-8" cx="151.74" cy="0.92" r="9.4" gradientTransform="translate(9.62 43.39) scale(0.6 0.69)" xlink:href="#radial-gradient-2"/><radialGradient id="radial-gradient-9" cx="63.88" cy="-5.24" r="8.84" gradientTransform="translate(73.05 29.8) scale(0.37 0.38)" xlink:href="#radial-gradient"/><linearGradient id="linear-gradient-5" x1="93.54" y1="27.79" x2="99.46" y2="27.79" xlink:href="#linear-gradient"/><radialGradient id="radial-gradient-10" cx="63.88" cy="-5.24" r="9.4" gradientTransform="translate(73.05 29.8) scale(0.37 0.38)" xlink:href="#radial-gradient-2"/><radialGradient id="radial-gradient-11" cx="138.47" cy="63" r="8.84" gradientTransform="translate(73.05 29.8) scale(0.37 0.38)" xlink:href="#radial-gradient"/><linearGradient id="linear-gradient-6" x1="120.92" y1="53.9" x2="126.84" y2="53.9" xlink:href="#linear-gradient"/><radialGradient id="radial-gradient-12" cx="138.47" cy="63" r="9.4" gradientTransform="translate(73.05 29.8) scale(0.37 0.38)" xlink:href="#radial-gradient-2"/><radialGradient id="radial-gradient-13" cx="124.59" cy="-68.49" r="8.84" gradientTransform="translate(73.05 29.8) scale(0.37 0.38)" xlink:href="#radial-gradient"/><linearGradient id="linear-gradient-7" x1="115.83" y1="3.6" x2="121.74" y2="3.6" xlink:href="#linear-gradient"/><radialGradient id="radial-gradient-14" cx="124.59" cy="-68.49" r="9.4" gradientTransform="translate(73.05 29.8) scale(0.37 0.38)" xlink:href="#radial-gradient-2"/><radialGradient id="radial-gradient-15" cx="166.22" cy="-51.85" r="8.84" gradientTransform="translate(73.05 29.8) scale(0.37 0.38)" xlink:href="#radial-gradient"/><linearGradient id="linear-gradient-8" x1="131.11" y1="9.96" x2="137.02" y2="9.96" xlink:href="#linear-gradient"/><radialGradient id="radial-gradient-16" cx="166.22" cy="-51.85" r="9.4" gradientTransform="translate(73.05 29.8) scale(0.37 0.38)" xlink:href="#radial-gradient-2"/><radialGradient id="radial-gradient-17" cx="-109.59" cy="86.3" r="8.84" gradientTransform="matrix(0.37, -0.01, 0.01, 0.38, 71.83, 28.36)" xlink:href="#radial-gradient"/><linearGradient id="linear-gradient-9" x1="29.87" y1="62.81" x2="35.79" y2="62.81" gradientTransform="translate(-2.26 1.24) rotate(-2.08)" xlink:href="#linear-gradient"/><radialGradient id="radial-gradient-18" cx="-109.59" cy="86.3" r="9.4" gradientTransform="translate(73.05 29.8) scale(0.37 0.38)" xlink:href="#radial-gradient-2"/></defs><title>leo</title><g id="Layer_2" data-name="Layer 2"><g id="Layer_1-2" data-name="Layer 1"><line class="cls-1" x1="32.64" y1="62.93" x2="100.64" y2="43.93"/><line class="cls-1" x1="62.64" y1="81.93" x2="129.24" y2="75.77"/><line class="cls-1" x1="123.83" y1="55.71" x2="131.79" y2="74.49"/><line class="cls-1" x1="101.64" y1="43.93" x2="123.64" y2="53.93"/><line class="cls-1" x1="96.77" y1="28.65" x2="101.64" y2="42.93"/><line class="cls-1" x1="119.64" y1="3.93" x2="134.33" y2="9.55"/><line class="cls-1" x1="96.77" y1="28.65" x2="118.64" y2="3.93"/><line class="cls-1" x1="32.64" y1="63.93" x2="5.64" y2="102.93"/><line class="cls-1" x1="61.64" y1="81.93" x2="4.45" y2="104.42"/><polygon class="cls-2" points="131.74 66.63 131.93 74.76 136.16 67.81 132.26 74.95 139.4 71.05 132.45 75.28 140.58 75.47 132.45 75.66 139.4 79.89 132.26 75.99 136.16 83.12 131.93 76.18 131.74 84.31 131.55 76.18 127.32 83.12 131.22 75.99 124.09 79.89 131.03 75.66 122.9 75.47 131.03 75.28 124.09 71.05 131.22 74.95 127.32 67.81 131.55 74.76 131.74 66.63"/><polygon class="cls-3" points="139.67 83.52 131.73 76.41 123.69 83.39 130.8 75.46 123.81 67.41 131.75 74.53 139.8 67.54 132.68 75.48 139.67 83.52"/><circle class="cls-4" cx="131.74" cy="75.47" r="9.4"/><polygon class="cls-5" points="5.68 97.62 5.79 103.21 8.35 98.44 5.99 103.34 10.3 100.66 6.11 103.56 11.02 103.69 6.11 103.83 10.3 106.73 5.99 104.05 8.35 108.95 5.79 104.18 5.68 109.77 5.57 104.18 3.01 108.95 5.37 104.05 1.06 106.73 5.25 103.83 0.34 103.69 5.25 103.56 1.06 100.66 5.37 103.34 3.01 98.44 5.57 103.21 5.68 97.62"/><polygon class="cls-6" points="10.47 109.23 5.68 104.34 0.81 109.14 5.11 103.69 0.89 98.16 5.68 103.05 10.55 98.25 6.25 103.7 10.47 109.23"/><ellipse class="cls-7" cx="5.68" cy="103.69" rx="5.68" ry="6.46"/><polygon class="cls-8" points="62.06 75.43 62.18 81.02 64.73 76.25 62.38 81.15 66.69 78.47 62.49 81.38 67.4 81.51 62.49 81.64 66.69 84.54 62.38 81.86 64.73 86.77 62.18 82 62.06 87.58 61.95 82 59.39 86.77 61.75 81.86 57.44 84.54 61.63 81.64 56.72 81.51 61.63 81.38 57.44 78.47 61.75 81.15 59.39 76.25 61.95 81.02 62.06 75.43"/><polygon class="cls-9" points="66.85 87.04 62.06 82.15 57.2 86.95 61.49 81.5 57.27 75.97 62.07 80.86 66.93 76.06 62.63 81.51 66.85 87.04"/><ellipse class="cls-10" cx="62.06" cy="81.51" rx="5.68" ry="6.46"/><polygon class="cls-11" points="101.28 37.95 101.39 43.54 103.94 38.77 101.59 43.67 105.9 40.99 101.7 43.9 106.61 44.03 101.7 44.16 105.9 47.06 101.59 44.38 103.94 49.29 101.39 44.52 101.28 50.1 101.16 44.52 98.61 49.29 100.96 44.38 96.65 47.06 100.85 44.16 95.94 44.03 100.85 43.9 96.65 40.99 100.96 43.67 98.61 38.77 101.16 43.54 101.28 37.95"/><polygon class="cls-12" points="106.06 49.56 101.27 44.67 96.41 49.48 100.71 44.02 96.49 38.49 101.28 43.38 106.14 38.58 101.84 44.03 106.06 49.56"/><ellipse class="cls-13" cx="101.28" cy="44.03" rx="5.68" ry="6.46"/><polygon class="cls-14" points="96.5 24.41 96.57 27.52 98.12 24.86 96.69 27.59 99.31 26.1 96.76 27.72 99.74 27.79 96.76 27.86 99.31 29.48 96.69 27.99 98.12 30.72 96.57 28.06 96.5 31.17 96.43 28.06 94.88 30.72 96.31 27.99 93.69 29.48 96.24 27.86 93.26 27.79 96.24 27.72 93.69 26.1 96.31 27.59 94.88 24.86 96.43 27.52 96.5 24.41"/><polygon class="cls-15" points="99.41 30.87 96.5 28.15 93.54 30.82 96.16 27.79 93.59 24.71 96.5 27.43 99.46 24.76 96.84 27.8 99.41 30.87"/><ellipse class="cls-16" cx="96.5" cy="27.79" rx="3.45" ry="3.6"/><polygon class="cls-17" points="123.88 50.52 123.95 53.63 125.5 50.97 124.07 53.7 126.69 52.21 124.14 53.82 127.12 53.9 124.14 53.97 126.69 55.59 124.07 54.09 125.5 56.83 123.95 54.17 123.88 57.28 123.81 54.17 122.26 56.83 123.69 54.09 121.07 55.59 123.62 53.97 120.63 53.9 123.62 53.82 121.07 52.21 123.69 53.7 122.26 50.97 123.81 53.63 123.88 50.52"/><polygon class="cls-18" points="126.79 56.98 123.88 54.26 120.92 56.93 123.53 53.89 120.97 50.81 123.88 53.54 126.83 50.87 124.22 53.9 126.79 56.98"/><ellipse class="cls-19" cx="123.88" cy="53.9" rx="3.45" ry="3.6"/><polygon class="cls-20" points="118.78 0.22 118.85 3.33 120.41 0.67 118.97 3.4 121.59 1.91 119.05 3.52 122.03 3.6 119.05 3.67 121.59 5.29 118.97 3.8 120.41 6.53 118.85 3.87 118.78 6.98 118.72 3.87 117.16 6.53 118.59 3.8 115.97 5.29 118.52 3.67 115.54 3.6 118.52 3.52 115.97 1.91 118.59 3.4 117.16 0.67 118.72 3.33 118.78 0.22"/><polygon class="cls-21" points="121.69 6.68 118.78 3.96 115.83 6.63 118.44 3.59 115.88 0.52 118.79 3.24 121.74 0.56 119.13 3.6 121.69 6.68"/><ellipse class="cls-22" cx="118.78" cy="3.6" rx="3.45" ry="3.6"/><polygon class="cls-23" points="134.07 6.58 134.13 9.69 135.69 7.04 134.26 9.77 136.88 8.27 134.33 9.89 137.31 9.96 134.33 10.04 136.88 11.65 134.26 10.16 135.69 12.89 134.13 10.24 134.07 13.35 134 10.24 132.44 12.89 133.88 10.16 131.26 11.65 133.81 10.04 130.82 9.96 133.81 9.89 131.26 8.27 133.88 9.77 132.44 7.04 134 9.69 134.07 6.58"/><polygon class="cls-24" points="136.97 13.05 134.06 10.32 131.11 13 133.72 9.96 131.16 6.88 134.07 9.61 137.02 6.93 134.41 9.97 136.97 13.05"/><ellipse class="cls-25" cx="134.07" cy="9.96" rx="3.45" ry="3.6"/><polygon class="cls-26" points="32.71 59.43 32.89 62.54 34.34 59.83 33.01 62.6 35.58 61.02 33.09 62.73 36.07 62.69 33.09 62.87 35.7 64.4 33.03 63 34.56 65.68 32.91 63.08 32.95 66.19 32.77 63.08 31.32 65.8 32.65 63.02 30.08 64.6 32.57 62.89 29.59 62.93 32.57 62.75 29.96 61.22 32.63 62.62 31.1 59.94 32.75 62.54 32.71 59.43"/><polygon class="cls-27" points="35.85 65.78 32.84 63.17 29.98 65.95 32.48 62.82 29.81 59.84 32.82 62.45 35.67 59.67 33.17 62.8 35.85 65.78"/><ellipse class="cls-28" cx="32.83" cy="62.81" rx="3.45" ry="3.6" transform="translate(-2.26 1.24) rotate(-2.08)"/></g></g></svg>