<svg xmlns="http://www.w3.org/2000/svg" xmlns:xlink="http://www.w3.org/1999/xlink" viewBox="0 0 798.15 661.32"><defs><style>.cls-1,.cls-3{fill:none;}.cls-2{clip-path:url(#clip-path);}.cls-3{stroke:#fff;stroke-miterlimit:10;stroke-width:1.25px;}.cls-4{font-size:52.85px;fill:#fdfdfc;font-family:Adam;}</style><clipPath id="clip-path"><rect class="cls-1" width="798.15" height="335.82"/></clipPath></defs><title>Asset 5</title><g id="Layer_2" data-name="Layer 2"><g id="Layer_1-2" data-name="Layer 1"><g class="cls-2"><line class="cls-3" x1="250.02" y1="113.63" x2="130.43" y2="297.59"/><path class="cls-3" d="M619.49,139.42"/><polyline class="cls-3" points="172.07 554.35 414.09 660.64 664.04 557.34"/></g><line class="cls-3" x1="257.51" y1="115.06" x2="284.53" y2="253.54"/><line class="cls-3" x1="456.56" y1="74.85" x2="265.62" y2="103.6"/><line class="cls-3" x1="292.51" y1="255.43" x2="458.91" y2="79.31"/><g class="cls-2"><line class="cls-3" x1="138.66" y1="307.11" x2="275.96" y2="270.15"/><line class="cls-3" x1="241.21" y1="411.48" x2="133.96" y2="319.7"/><polyline class="cls-3" points="288.18 275.53 315.61 462.02 240.27 411.53 282.26 274.94"/><line class="cls-3" x1="487.52" y1="240.32" x2="297" y2="260.95"/><path class="cls-3" d="M315,458"/><polyline class="cls-3" points="490.16 247.11 315.54 460.67 597.12 467.05 500.67 248.78"/><polyline class="cls-3" points="716.29 309.63 597.12 467.05 664.04 557.34 719.87 311.24"/></g><line class="cls-3" x1="612.54" y1="136.4" x2="474.05" y2="76.26"/><line class="cls-3" x1="717.24" y1="294.76" x2="624.99" y2="148.16"/><line class="cls-3" x1="472.92" y1="78.45" x2="715.21" y2="296.17"/><line class="cls-3" x1="715.52" y1="296.45" x2="472.92" y2="78.45"/><line class="cls-3" x1="505.82" y1="241.94" x2="713.35" y2="299.81"/><line class="cls-3" x1="468.62" y1="81.65" x2="495.18" y2="231.85"/><path class="cls-1" d="M730.6,305.26a9.08,9.08,0,0,1-11.32,5.92,8.91,8.91,0,0,1-1.94-16.26,9.13,9.13,0,0,1,7.26-.84,8.93,8.93,0,0,1,6,11.18"/><path class="cls-3" d="M730.6,305.26a9.12,9.12,0,0,1-14.51,4.2,8.9,8.9,0,0,1,1.25-14.54,9.13,9.13,0,0,1,7.26-.84A8.93,8.93,0,0,1,730.6,305.26Z"/><path class="cls-1" d="M487.68,239.14a8.93,8.93,0,1,1-.15,1.38,8.31,8.31,0,0,1,.15-1.38"/><path class="cls-3" d="M487.68,239.14A9,9,0,0,1,498.26,232a9,9,0,0,1,7.32,9.79c0,.22-.06.43-.1.65a9,9,0,0,1-4.81,6.33,9.1,9.1,0,0,1-5.76.81c-1.88-.35-4.79-2.52-4.8-2.54L490,247a8.94,8.94,0,0,1-2.49-6.75A10.49,10.49,0,0,1,487.68,239.14Z"/><path class="cls-1" d="M611.9,138.57a9.06,9.06,0,0,1,10.58-7.14,9,9,0,0,1,7.22,10.45,9.05,9.05,0,0,1-17.8-3.31"/><path class="cls-3" d="M611.9,138.57a9.06,9.06,0,0,1,10.58-7.14,9,9,0,0,1,7.22,10.45,9.05,9.05,0,0,1-17.8-3.31Z"/><path class="cls-1" d="M473.67,77.16a9.11,9.11,0,0,1-14.83,2.27,8.87,8.87,0,0,1-1.55-9.9,9.12,9.12,0,0,1,12.06-4.28,8.9,8.9,0,0,1,4.32,11.91"/><path class="cls-3" d="M473.67,77.16a9.11,9.11,0,0,1-12.05,4.28,14,14,0,0,1-2.78-2,11,11,0,0,1-2.28-4.58,8.77,8.77,0,0,1,.73-5.32,9.12,9.12,0,0,1,12.06-4.28,8.92,8.92,0,0,1,4.7,11A8.64,8.64,0,0,1,473.67,77.16Z"/><path class="cls-1" d="M297.49,263.7a11.59,11.59,0,1,1-12.18-10.83,11.49,11.49,0,0,1,12.18,10.83"/><path class="cls-3" d="M297.49,263.7a11.49,11.49,0,0,1-11,12A11.63,11.63,0,0,1,276,270.15a11.54,11.54,0,1,1,21.53-6.45Z"/><path class="cls-1" d="M265.8,104.58A10.25,10.25,0,1,1,255,95a10.17,10.17,0,0,1,10.78,9.59"/><path class="cls-3" d="M265.8,104.58a10.17,10.17,0,0,1-9.7,10.64,10.28,10.28,0,0,1-6.08-1.59,10.09,10.09,0,0,1-4.7-8,10.25,10.25,0,0,1,20.48-1.06Z"/><path class="cls-1" d="M138.9,309a12.87,12.87,0,1,1-13.53-12,12.78,12.78,0,0,1,13.53,12"/><path class="cls-3" d="M138.9,309A12.64,12.64,0,0,1,134,319.7a13,13,0,0,1-7.24,2.67,12.5,12.5,0,0,1-1.84,0,12.73,12.73,0,1,1,13.78-15.22A14.35,14.35,0,0,1,138.9,309Z"/><rect class="cls-1" width="798.15" height="335.82"/><text class="cls-4" transform="translate(126.04 384.31) scale(1 1.11)"><tspan xml:space="preserve"> A S T R O W O R L D</tspan></text></g></g></svg>