<svg xmlns="http://www.w3.org/2000/svg" xmlns:xlink="http://www.w3.org/1999/xlink" viewBox="0 0 138.46 154.17"><defs><style>.cls-1{fill:none;stroke:#fcfcfa;stroke-width:0.25px;}.cls-1,.cls-10,.cls-13,.cls-16,.cls-25,.cls-28,.cls-31,.cls-34,.cls-37,.cls-4,.cls-40,.cls-46,.cls-49,.cls-55,.cls-58,.cls-7{stroke-miterlimit:10;}.cls-2{fill:url(#linear-gradient);}.cls-3{fill:url(#radial-gradient);}.cls-4{fill:url(#radial-gradient-2);stroke:url(#radial-gradient-3);}.cls-5{fill:url(#linear-gradient-2);}.cls-6{fill:url(#radial-gradient-4);}.cls-7{fill:url(#radial-gradient-5);stroke:url(#radial-gradient-6);}.cls-8{fill:url(#linear-gradient-3);}.cls-9{fill:url(#radial-gradient-7);}.cls-10{fill:url(#radial-gradient-8);stroke:url(#radial-gradient-9);}.cls-11{fill:url(#linear-gradient-4);}.cls-12{fill:url(#radial-gradient-10);}.cls-13{fill:url(#radial-gradient-11);stroke:url(#radial-gradient-12);}.cls-14{fill:url(#linear-gradient-5);}.cls-15{fill:url(#radial-gradient-13);}.cls-16{fill:url(#radial-gradient-14);stroke:url(#radial-gradient-15);}.cls-17{fill:url(#radial-gradient-16);}.cls-18{fill:url(#linear-gradient-6);}.cls-19{fill:url(#radial-gradient-17);}.cls-20{fill:url(#radial-gradient-18);}.cls-21{fill:url(#linear-gradient-7);}.cls-22{fill:url(#radial-gradient-19);}.cls-23{fill:url(#linear-gradient-8);}.cls-24{fill:url(#radial-gradient-20);}.cls-25{fill:url(#radial-gradient-21);stroke:url(#radial-gradient-22);}.cls-26{fill:url(#linear-gradient-9);}.cls-27{fill:url(#radial-gradient-23);}.cls-28{fill:url(#radial-gradient-24);stroke:url(#radial-gradient-25);}.cls-29{fill:url(#linear-gradient-10);}.cls-30{fill:url(#radial-gradient-26);}.cls-31{fill:url(#radial-gradient-27);stroke:url(#radial-gradient-28);}.cls-32{fill:url(#linear-gradient-11);}.cls-33{fill:url(#radial-gradient-29);}.cls-34{fill:url(#radial-gradient-30);stroke:url(#radial-gradient-31);}.cls-35{fill:url(#linear-gradient-12);}.cls-36{fill:url(#radial-gradient-32);}.cls-37{fill:url(#radial-gradient-33);stroke:url(#radial-gradient-34);}.cls-38{fill:url(#linear-gradient-13);}.cls-39{fill:url(#radial-gradient-35);}.cls-40{fill:url(#radial-gradient-36);stroke:url(#radial-gradient-37);}.cls-41{fill:url(#radial-gradient-38);}.cls-42{fill:url(#linear-gradient-14);}.cls-43{fill:url(#radial-gradient-39);}.cls-44{fill:url(#linear-gradient-15);}.cls-45{fill:url(#radial-gradient-40);}.cls-46{fill:url(#radial-gradient-41);stroke:url(#radial-gradient-42);}.cls-47{fill:url(#linear-gradient-16);}.cls-48{fill:url(#radial-gradient-43);}.cls-49{fill:url(#radial-gradient-44);stroke:url(#radial-gradient-45);}.cls-50{fill:url(#radial-gradient-46);}.cls-51{fill:url(#linear-gradient-17);}.cls-52{fill:url(#radial-gradient-47);}.cls-53{fill:url(#linear-gradient-18);}.cls-54{fill:url(#radial-gradient-48);}.cls-55{fill:url(#radial-gradient-49);stroke:url(#radial-gradient-50);}.cls-56{fill:url(#linear-gradient-19);}.cls-57{fill:url(#radial-gradient-51);}.cls-58{fill:url(#radial-gradient-52);stroke:url(#radial-gradient-53);}</style><linearGradient id="linear-gradient" x1="114.24" y1="18.53" x2="125.61" y2="18.53" gradientUnits="userSpaceOnUse"><stop offset="0.2" stop-color="#fff"/><stop offset="0.94" stop-color="#fff" stop-opacity="0.5"/><stop offset="0.97" stop-color="#fff"/></linearGradient><radialGradient id="radial-gradient" cx="119.92" cy="18.53" r="4.62" gradientUnits="userSpaceOnUse"><stop offset="0.42" stop-color="#fff"/><stop offset="0.82" stop-color="#fff" stop-opacity="0"/></radialGradient><radialGradient id="radial-gradient-2" cx="119.92" cy="18.6" r="4.3" gradientUnits="userSpaceOnUse"><stop offset="0.23" stop-color="#fff"/><stop offset="0.94" stop-color="#fff" stop-opacity="0"/></radialGradient><radialGradient id="radial-gradient-3" cx="119.92" cy="18.67" r="4.39" gradientUnits="userSpaceOnUse"><stop offset="0.31" stop-color="#fff"/><stop offset="0.82" stop-color="#fff" stop-opacity="0"/></radialGradient><linearGradient id="linear-gradient-2" x1="101.24" y1="42.81" x2="110.04" y2="42.81" xlink:href="#linear-gradient"/><radialGradient id="radial-gradient-4" cx="105.64" cy="42.81" r="3.58" xlink:href="#radial-gradient"/><radialGradient id="radial-gradient-5" cx="105.64" cy="42.86" r="3.33" xlink:href="#radial-gradient-2"/><radialGradient id="radial-gradient-6" cx="105.64" cy="42.93" r="3.42" xlink:href="#radial-gradient-3"/><linearGradient id="linear-gradient-3" x1="111.24" y1="65.66" x2="122.9" y2="65.66" xlink:href="#linear-gradient"/><radialGradient id="radial-gradient-7" cx="117.07" cy="65.66" r="4.74" xlink:href="#radial-gradient"/><radialGradient id="radial-gradient-8" cx="117.06" cy="65.72" r="4.41" xlink:href="#radial-gradient-2"/><radialGradient id="radial-gradient-9" cx="117.07" cy="65.79" r="4.5" xlink:href="#radial-gradient-3"/><linearGradient id="linear-gradient-4" x1="129.95" y1="65.66" x2="138.46" y2="65.66" xlink:href="#linear-gradient"/><radialGradient id="radial-gradient-10" cx="134.2" cy="65.66" r="3.46" xlink:href="#radial-gradient"/><radialGradient id="radial-gradient-11" cx="134.2" cy="65.71" r="3.22" xlink:href="#radial-gradient-2"/><radialGradient id="radial-gradient-12" cx="134.2" cy="65.77" r="3.3" xlink:href="#radial-gradient-3"/><linearGradient id="linear-gradient-5" x1="119.95" y1="99.93" x2="128.46" y2="99.93" xlink:href="#linear-gradient"/><radialGradient id="radial-gradient-13" cx="124.21" cy="99.93" r="3.46" xlink:href="#radial-gradient"/><radialGradient id="radial-gradient-14" cx="124.2" cy="99.98" r="3.22" xlink:href="#radial-gradient-2"/><radialGradient id="radial-gradient-15" cx="124.21" cy="100.05" r="3.3" xlink:href="#radial-gradient-3"/><radialGradient id="radial-gradient-16" cx="115.2" cy="87.95" r="6.41" gradientTransform="translate(2.85) scale(0.99 1)" gradientUnits="userSpaceOnUse"><stop offset="0.27" stop-color="#fff"/><stop offset="1" stop-color="#fff" stop-opacity="0"/></radialGradient><linearGradient id="linear-gradient-6" x1="111.58" y1="87.95" x2="123.2" y2="87.95" gradientUnits="userSpaceOnUse"><stop offset="0" stop-color="#fff"/><stop offset="1" stop-color="#fff" stop-opacity="0.5"/></linearGradient><radialGradient id="radial-gradient-17" cx="115.2" cy="87.95" r="6.82" gradientTransform="translate(2.85) scale(0.99 1)" gradientUnits="userSpaceOnUse"><stop offset="0.22" stop-color="#fff"/><stop offset="0.7" stop-color="#fff" stop-opacity="0"/></radialGradient><radialGradient id="radial-gradient-18" cx="73.55" cy="50.83" r="6" xlink:href="#radial-gradient-16"/><linearGradient id="linear-gradient-7" x1="70.54" y1="50.83" x2="81.42" y2="50.83" xlink:href="#linear-gradient-6"/><radialGradient id="radial-gradient-19" cx="73.55" cy="50.83" r="6.38" xlink:href="#radial-gradient-17"/><linearGradient id="linear-gradient-8" x1="82.68" y1="52.81" x2="94.34" y2="52.81" xlink:href="#linear-gradient"/><radialGradient id="radial-gradient-20" cx="88.51" cy="52.81" r="4.74" xlink:href="#radial-gradient"/><radialGradient id="radial-gradient-21" cx="88.5" cy="52.87" r="4.41" xlink:href="#radial-gradient-2"/><radialGradient id="radial-gradient-22" cx="88.51" cy="52.94" r="4.5" xlink:href="#radial-gradient-3"/><linearGradient id="linear-gradient-9" x1="67.12" y1="71.37" x2="75.63" y2="71.37" xlink:href="#linear-gradient"/><radialGradient id="radial-gradient-23" cx="71.37" cy="71.37" r="3.46" xlink:href="#radial-gradient"/><radialGradient id="radial-gradient-24" cx="71.37" cy="71.42" r="3.22" xlink:href="#radial-gradient-2"/><radialGradient id="radial-gradient-25" cx="71.37" cy="71.49" r="3.3" xlink:href="#radial-gradient-3"/><linearGradient id="linear-gradient-10" x1="61.4" y1="59.95" x2="69.91" y2="59.95" xlink:href="#linear-gradient"/><radialGradient id="radial-gradient-26" cx="65.66" cy="59.95" r="3.46" xlink:href="#radial-gradient"/><radialGradient id="radial-gradient-27" cx="65.66" cy="59.99" r="3.22" xlink:href="#radial-gradient-2"/><radialGradient id="radial-gradient-28" cx="65.66" cy="60.06" r="3.3" xlink:href="#radial-gradient-3"/><linearGradient id="linear-gradient-11" x1="49.98" y1="28.53" x2="58.49" y2="28.53" xlink:href="#linear-gradient"/><radialGradient id="radial-gradient-29" cx="54.23" cy="28.53" r="3.46" xlink:href="#radial-gradient"/><radialGradient id="radial-gradient-30" cx="54.23" cy="28.58" r="3.22" xlink:href="#radial-gradient-2"/><radialGradient id="radial-gradient-31" cx="54.23" cy="28.65" r="3.3" xlink:href="#radial-gradient-3"/><linearGradient id="linear-gradient-12" x1="32.84" y1="14.25" x2="41.35" y2="14.25" xlink:href="#linear-gradient"/><radialGradient id="radial-gradient-32" cx="37.1" cy="14.25" r="3.46" xlink:href="#radial-gradient"/><radialGradient id="radial-gradient-33" cx="37.1" cy="14.3" r="3.22" xlink:href="#radial-gradient-2"/><radialGradient id="radial-gradient-34" cx="37.1" cy="14.37" r="3.3" xlink:href="#radial-gradient-3"/><linearGradient id="linear-gradient-13" x1="29.99" y1="4.25" x2="38.5" y2="4.25" xlink:href="#linear-gradient"/><radialGradient id="radial-gradient-35" cx="34.24" cy="4.25" r="3.46" xlink:href="#radial-gradient"/><radialGradient id="radial-gradient-36" cx="34.24" cy="4.3" r="3.22" xlink:href="#radial-gradient-2"/><radialGradient id="radial-gradient-37" cx="34.24" cy="4.37" r="3.3" xlink:href="#radial-gradient-3"/><radialGradient id="radial-gradient-38" cx="28.31" cy="49.33" r="6" gradientTransform="matrix(0.99, -0.04, 0.04, 1, -1.34, 8.44)" xlink:href="#radial-gradient-16"/><linearGradient id="linear-gradient-14" x1="25.56" y1="49.33" x2="36.43" y2="49.33" gradientTransform="matrix(1, -0.04, 0.04, 1, -4.19, 8.56)" xlink:href="#linear-gradient-6"/><radialGradient id="radial-gradient-39" cx="28.31" cy="49.33" r="6.38" gradientTransform="translate(0.71 7.21) scale(0.99 1)" xlink:href="#radial-gradient-17"/><linearGradient id="linear-gradient-15" x1="0" y1="75.65" x2="8.51" y2="75.65" xlink:href="#linear-gradient"/><radialGradient id="radial-gradient-40" cx="4.25" cy="75.65" r="3.46" xlink:href="#radial-gradient"/><radialGradient id="radial-gradient-41" cx="4.25" cy="75.7" r="3.22" xlink:href="#radial-gradient-2"/><radialGradient id="radial-gradient-42" cx="4.25" cy="75.77" r="3.3" xlink:href="#radial-gradient-3"/><linearGradient id="linear-gradient-16" x1="14.28" y1="114.21" x2="22.79" y2="114.21" xlink:href="#linear-gradient"/><radialGradient id="radial-gradient-43" cx="18.53" cy="114.21" r="3.46" xlink:href="#radial-gradient"/><radialGradient id="radial-gradient-44" cx="18.53" cy="114.26" r="3.22" xlink:href="#radial-gradient-2"/><radialGradient id="radial-gradient-45" cx="18.53" cy="114.33" r="3.3" xlink:href="#radial-gradient-3"/><radialGradient id="radial-gradient-46" cx="30.24" cy="139.45" r="6" gradientTransform="matrix(0.99, -0.04, 0.04, 1, -1.34, 8.44)" xlink:href="#radial-gradient-16"/><linearGradient id="linear-gradient-17" x1="27.48" y1="139.45" x2="38.35" y2="139.45" gradientTransform="matrix(1, -0.04, 0.04, 1, -4.19, 8.56)" xlink:href="#linear-gradient-6"/><radialGradient id="radial-gradient-47" cx="30.24" cy="139.45" r="6.38" gradientTransform="translate(4.5 7.05) scale(0.99 1)" xlink:href="#radial-gradient-17"/><linearGradient id="linear-gradient-18" x1="55.69" y1="129.92" x2="64.2" y2="129.92" xlink:href="#linear-gradient"/><radialGradient id="radial-gradient-48" cx="59.95" cy="129.92" r="3.46" xlink:href="#radial-gradient"/><radialGradient id="radial-gradient-49" cx="59.94" cy="129.97" r="3.22" xlink:href="#radial-gradient-2"/><radialGradient id="radial-gradient-50" cx="59.95" cy="130.03" r="3.3" xlink:href="#radial-gradient-3"/><linearGradient id="linear-gradient-19" x1="62.83" y1="149.91" x2="71.34" y2="149.91" xlink:href="#linear-gradient"/><radialGradient id="radial-gradient-51" cx="67.09" cy="149.91" r="3.46" xlink:href="#radial-gradient"/><radialGradient id="radial-gradient-52" cx="67.08" cy="149.96" r="3.22" xlink:href="#radial-gradient-2"/><radialGradient id="radial-gradient-53" cx="67.09" cy="150.03" r="3.3" xlink:href="#radial-gradient-3"/></defs><title>sagittarius</title><g id="Layer_2" data-name="Layer 2"><g id="Layer_1-2" data-name="Layer 1"><line class="cls-1" x1="34.21" y1="4.37" x2="37.07" y2="14.37"/><line class="cls-1" x1="54.21" y1="27.22" x2="38.5" y2="15.8"/><line class="cls-1" x1="65.63" y1="60.06" x2="54.21" y2="28.65"/><line class="cls-1" x1="75.63" y1="50.07" x2="65.63" y2="60.06"/><line class="cls-1" x1="86.79" y1="52.56" x2="76.71" y2="51.17"/><line class="cls-1" x1="87.76" y1="53.64" x2="72.06" y2="70.77"/><line class="cls-1" x1="66.34" y1="62.21" x2="71.13" y2="71.48"/><line class="cls-1" x1="89.19" y1="52.21" x2="104.9" y2="42.21"/><line class="cls-1" x1="29.22" y1="55.07" x2="64.92" y2="60.78"/><line class="cls-1" x1="4.94" y1="75.06" x2="27.79" y2="56.49"/><line class="cls-1" x1="4.94" y1="76.49" x2="17.79" y2="113.61"/><line class="cls-1" x1="17.79" y1="115.04" x2="33.5" y2="145.03"/><line class="cls-1" x1="36.36" y1="145.03" x2="59.2" y2="130.75"/><line class="cls-1" x1="36.36" y1="146.46" x2="66.34" y2="149.31"/><line class="cls-1" x1="106.33" y1="40.79" x2="120.61" y2="17.94"/><line class="cls-1" x1="106.33" y1="43.64" x2="116.32" y2="65.06"/><line class="cls-1" x1="117.04" y1="66.81" x2="117.04" y2="90.45"/><line class="cls-1" x1="117.19" y1="90.52" x2="123.46" y2="99.33"/><line class="cls-1" x1="118.08" y1="65.29" x2="133.46" y2="65.06"/><polygon class="cls-2" points="125.61 20.34 120.15 18.98 118.12 24.22 119.48 18.76 114.24 16.73 119.69 18.09 121.73 12.85 120.36 18.31 125.61 20.34"/><circle class="cls-3" cx="119.92" cy="18.53" r="4.62"/><polygon class="cls-4" points="123.2 21.57 120.12 18.99 121.12 22.88 119.92 19.05 118.66 22.86 119.72 18.99 116.6 21.52 119.59 18.83 115.6 19.27 119.56 18.63 115.96 16.84 119.65 18.44 117.59 14.99 119.82 18.33 119.95 14.32 120.03 18.34 122.31 15.03 120.2 18.45 123.91 16.9 120.28 18.63 124.24 19.34 120.25 18.84 123.2 21.57"/><polygon class="cls-5" points="110.05 44.21 105.82 43.15 104.25 47.21 105.3 42.99 101.24 41.41 105.47 42.47 107.04 38.41 105.98 42.63 110.05 44.21"/><circle class="cls-6" cx="105.64" cy="42.81" r="3.58"/><polygon class="cls-7" points="108.18 45.16 105.79 43.16 106.57 46.18 105.64 43.21 104.67 46.16 105.49 43.16 103.07 45.12 105.39 43.04 102.29 43.38 105.36 42.88 102.58 41.5 105.43 42.74 103.83 40.07 105.56 42.66 105.67 39.54 105.72 42.66 107.49 40.09 105.86 42.74 108.73 41.54 105.92 42.89 108.99 43.43 105.9 43.04 108.18 45.16"/><polygon class="cls-8" points="122.9 67.51 117.3 66.11 115.22 71.49 116.61 65.89 111.24 63.81 116.83 65.21 118.92 59.83 117.52 65.42 122.9 67.51"/><circle class="cls-9" cx="117.07" cy="65.66" r="4.74"/><polygon class="cls-10" points="120.43 68.77 117.27 66.13 118.3 70.12 117.06 66.18 115.77 70.1 116.86 66.12 113.66 68.72 116.73 65.96 112.63 66.42 116.7 65.75 113 63.92 116.79 65.56 114.67 62.02 116.96 65.45 117.1 61.33 117.17 65.45 119.52 62.06 117.35 65.57 121.16 63.98 117.44 65.76 121.5 66.48 117.4 65.97 120.43 68.77"/><polygon class="cls-11" points="138.46 67.01 134.37 65.99 132.85 69.91 133.87 65.83 129.95 64.31 134.03 65.33 135.55 61.4 134.53 65.49 138.46 67.01"/><circle class="cls-12" cx="134.2" cy="65.66" r="3.46"/><polygon class="cls-13" points="136.66 67.93 134.35 66 135.1 68.91 134.2 66.04 133.26 68.9 134.05 66 131.72 67.89 133.96 65.88 130.96 66.21 133.93 65.73 131.24 64.39 134 65.59 132.46 63.01 134.13 65.51 134.23 62.5 134.28 65.51 135.99 63.03 134.41 65.59 137.19 64.43 134.47 65.73 137.44 66.26 134.45 65.88 136.66 67.93"/><polygon class="cls-14" points="128.46 101.28 124.38 100.26 122.86 104.19 123.88 100.1 119.95 98.58 124.04 99.6 125.56 95.68 124.54 99.76 128.46 101.28"/><circle class="cls-15" cx="124.21" cy="99.93" r="3.46"/><polygon class="cls-16" points="126.66 102.2 124.35 100.27 125.11 103.19 124.2 100.31 123.26 103.17 124.06 100.27 121.72 102.17 123.96 100.15 120.97 100.48 123.94 100 121.24 98.66 124 99.86 122.46 97.28 124.13 99.78 124.23 96.77 124.28 99.78 125.99 97.3 124.41 99.86 127.19 98.7 124.48 100 127.44 100.53 124.45 100.16 126.66 102.2"/><polygon class="cls-17" points="117.39 81.54 117.53 87.44 120.58 82.4 117.77 87.58 122.92 84.75 117.9 87.81 123.77 87.95 117.9 88.09 122.92 91.16 117.77 88.33 120.58 93.51 117.53 88.47 117.39 94.37 117.26 88.47 114.2 93.51 117.02 88.33 111.87 91.16 116.88 88.09 111.02 87.95 116.88 87.81 111.87 84.75 117.02 87.58 114.2 82.4 117.26 87.44 117.39 81.54"/><polygon class="cls-18" points="123.11 93.8 117.39 88.63 111.58 93.7 116.72 87.95 111.67 82.11 117.4 87.27 123.2 82.2 118.07 87.96 123.11 93.8"/><ellipse class="cls-19" cx="117.39" cy="87.95" rx="6.78" ry="6.82"/><polygon class="cls-20" points="75.98 44.83 76.11 50.34 78.96 45.63 76.33 50.47 81.15 47.83 76.46 50.7 81.95 50.83 76.46 50.95 81.15 53.83 76.33 51.18 78.96 56.02 76.11 51.31 75.98 56.82 75.85 51.31 73 56.02 75.63 51.18 70.81 53.83 75.5 50.95 70.02 50.83 75.5 50.7 70.81 47.83 75.63 50.47 73 45.63 75.85 50.34 75.98 44.83"/><polygon class="cls-21" points="81.33 56.29 75.98 51.46 70.54 56.21 75.35 50.82 70.63 45.36 75.99 50.19 81.42 45.45 76.61 50.83 81.33 56.29"/><ellipse class="cls-22" cx="75.98" cy="50.83" rx="6.35" ry="6.38"/><polygon class="cls-23" points="94.34 54.66 88.74 53.26 86.66 58.64 88.06 53.04 82.68 50.96 88.27 52.36 90.36 46.98 88.96 52.57 94.34 54.66"/><circle class="cls-24" cx="88.51" cy="52.81" r="4.74"/><polygon class="cls-25" points="91.87 55.92 88.71 53.27 89.74 57.27 88.5 53.33 87.21 57.25 88.3 53.27 85.1 55.87 88.17 53.11 84.07 53.56 88.14 52.9 84.44 51.07 88.23 52.71 86.11 49.17 88.4 52.6 88.54 48.48 88.61 52.6 90.96 49.21 88.79 52.72 92.59 51.13 88.88 52.91 92.94 53.63 88.84 53.12 91.87 55.92"/><polygon class="cls-26" points="75.63 72.72 71.54 71.7 70.02 75.63 71.04 71.54 67.12 70.02 71.2 71.04 72.72 67.12 71.7 71.2 75.63 72.72"/><circle class="cls-27" cx="71.37" cy="71.37" r="3.46"/><polygon class="cls-28" points="73.83 73.64 71.52 71.71 72.27 74.63 71.37 71.75 70.43 74.61 71.22 71.71 68.88 73.61 71.12 71.59 68.13 71.92 71.1 71.44 68.41 70.1 71.17 71.3 69.62 68.72 71.3 71.22 71.39 68.21 71.45 71.22 73.16 68.74 71.58 71.31 74.36 70.14 71.64 71.44 74.6 71.97 71.62 71.6 73.83 73.64"/><polygon class="cls-29" points="69.91 61.3 65.83 60.28 64.31 64.2 65.33 60.12 61.4 58.6 65.49 59.62 67.01 55.69 65.99 59.78 69.91 61.3"/><circle class="cls-30" cx="65.66" cy="59.95" r="3.46"/><polygon class="cls-31" points="68.11 62.22 65.8 60.29 66.56 63.2 65.66 60.33 64.72 63.19 65.51 60.28 63.17 62.18 65.41 60.17 62.42 60.5 65.39 60.02 62.69 58.68 65.45 59.88 63.91 57.29 65.58 59.8 65.68 56.79 65.74 59.8 67.45 57.32 65.86 59.88 68.64 58.72 65.93 60.02 68.89 60.55 65.91 60.17 68.11 62.22"/><polygon class="cls-32" points="58.49 29.88 54.41 28.86 52.88 32.79 53.91 28.7 49.98 27.18 54.06 28.2 55.59 24.28 54.56 28.36 58.49 29.88"/><circle class="cls-33" cx="54.23" cy="28.53" r="3.46"/><polygon class="cls-34" points="56.69 30.8 54.38 28.87 55.13 31.79 54.23 28.91 53.29 31.77 54.09 28.87 51.75 30.77 53.99 28.75 50.99 29.08 53.97 28.6 51.27 27.26 54.03 28.46 52.49 25.88 54.16 28.38 54.26 25.37 54.31 28.38 56.02 25.9 54.44 28.46 57.22 27.3 54.5 28.61 57.47 29.13 54.48 28.76 56.69 30.8"/><polygon class="cls-35" points="41.35 15.6 37.27 14.58 35.75 18.51 36.77 14.42 32.84 12.9 36.93 13.92 38.45 10 37.43 14.08 41.35 15.6"/><circle class="cls-36" cx="37.1" cy="14.25" r="3.46"/><polygon class="cls-37" points="39.55 16.52 37.24 14.59 38 17.51 37.1 14.63 36.16 17.49 36.95 14.59 34.61 16.48 36.85 14.47 33.86 14.8 36.83 14.32 34.13 12.98 36.9 14.18 35.35 11.6 37.02 14.1 37.12 11.09 37.18 14.1 38.89 11.62 37.3 14.19 40.08 13.03 37.37 14.32 40.33 14.85 37.34 14.48 39.55 16.52"/><polygon class="cls-38" points="38.5 5.61 34.41 4.58 32.89 8.51 33.91 4.42 29.99 2.9 34.07 3.93 35.59 0 34.57 4.08 38.5 5.61"/><circle class="cls-39" cx="34.24" cy="4.25" r="3.46"/><polygon class="cls-40" points="36.7 6.53 34.39 4.59 35.14 7.51 34.24 4.64 33.3 7.5 34.09 4.59 31.76 6.49 33.99 4.48 31 4.81 33.97 4.33 31.28 2.99 34.04 4.19 32.49 1.6 34.17 4.11 34.27 1.1 34.32 4.11 36.03 1.63 34.45 4.19 37.23 3.03 34.51 4.33 37.48 4.85 34.49 4.48 36.7 6.53"/><polygon class="cls-41" points="28.6 50.54 28.96 56.05 31.62 51.22 29.19 56.17 33.89 53.32 29.33 56.39 34.82 56.29 29.34 56.65 34.15 59.32 29.22 56.88 32.06 61.6 29 57.01 29.11 62.53 28.75 57.02 26.1 61.85 28.52 56.9 23.82 59.75 28.38 56.69 22.9 56.79 28.37 56.43 23.57 53.76 28.49 56.2 25.66 51.47 28.71 56.06 28.6 50.54"/><polygon class="cls-42" points="34.43 61.77 28.88 57.17 23.65 62.14 28.22 56.56 23.28 51.3 28.84 55.9 34.06 50.93 29.49 56.52 34.43 61.77"/><ellipse class="cls-43" cx="28.86" cy="56.54" rx="6.35" ry="6.38" transform="translate(-2.36 1.27) rotate(-2.41)"/><polygon class="cls-44" points="8.51 77 4.42 75.98 2.9 79.91 3.93 75.83 0 74.3 4.08 75.33 5.61 71.4 4.58 75.48 8.51 77"/><circle class="cls-45" cx="4.25" cy="75.65" r="3.46"/><polygon class="cls-46" points="6.71 77.92 4.4 76 5.15 78.91 4.25 76.04 3.31 78.9 4.11 75.99 1.77 77.89 4.01 75.88 1.01 76.21 3.99 75.72 1.29 74.39 4.05 75.59 2.51 73 4.18 75.5 4.28 72.5 4.33 75.51 6.04 73.03 4.46 75.59 7.24 74.43 4.52 75.73 7.49 76.25 4.5 75.88 6.71 77.92"/><polygon class="cls-47" points="22.79 115.56 18.7 114.54 17.18 118.47 18.21 114.38 14.28 112.86 18.36 113.88 19.89 109.96 18.86 114.04 22.79 115.56"/><circle class="cls-48" cx="18.53" cy="114.21" r="3.46"/><polygon class="cls-49" points="20.99 116.48 18.68 114.55 19.43 117.47 18.53 114.59 17.59 117.45 18.39 114.55 16.05 116.44 18.29 114.43 15.29 114.76 18.27 114.28 15.57 112.94 18.33 114.14 16.79 111.56 18.46 114.06 18.56 111.05 18.61 114.06 20.32 111.58 18.74 114.14 21.52 112.98 18.8 114.28 21.77 114.81 18.78 114.44 20.99 116.48"/><polygon class="cls-50" points="34.32 140.51 34.68 146.01 37.33 141.19 34.9 146.13 39.6 143.29 35.04 146.35 40.53 146.25 35.05 146.61 39.86 149.28 34.93 146.84 37.77 151.57 34.72 146.98 34.82 152.5 34.46 146.99 31.81 151.82 34.23 146.87 29.53 149.72 34.1 146.65 28.61 146.75 34.09 146.39 29.28 143.72 34.2 146.16 31.37 141.44 34.42 146.03 34.32 140.51"/><polygon class="cls-51" points="40.15 151.74 34.59 147.14 29.36 152.11 33.94 146.52 28.99 141.26 34.55 145.86 39.77 140.9 35.2 146.48 40.15 151.74"/><ellipse class="cls-52" cx="34.57" cy="146.5" rx="6.35" ry="6.38" transform="translate(-6.14 1.59) rotate(-2.41)"/><polygon class="cls-53" points="64.2 131.27 60.12 130.25 58.6 134.17 59.62 130.09 55.69 128.57 59.78 129.59 61.3 125.66 60.28 129.75 64.2 131.27"/><circle class="cls-54" cx="59.95" cy="129.92" r="3.46"/><polygon class="cls-55" points="62.4 132.19 60.09 130.26 60.84 133.17 59.95 130.3 59 133.16 59.8 130.26 57.46 132.15 59.7 130.14 56.71 130.47 59.68 129.99 56.98 128.65 59.74 129.85 58.2 127.27 59.87 129.77 59.97 126.76 60.02 129.77 61.73 127.29 60.15 129.85 62.93 128.69 60.22 129.99 63.18 130.52 60.19 130.14 62.4 132.19"/><polygon class="cls-56" points="71.34 151.26 67.26 150.24 65.74 154.16 66.76 150.08 62.83 148.56 66.92 149.58 68.44 145.66 67.42 149.74 71.34 151.26"/><circle class="cls-57" cx="67.09" cy="149.91" r="3.46"/><polygon class="cls-58" points="69.54 152.18 67.23 150.25 67.98 153.16 67.08 150.29 66.14 153.15 66.94 150.25 64.6 152.15 66.84 150.13 63.85 150.46 66.82 149.98 64.12 148.64 66.88 149.84 65.34 147.26 67.01 149.76 67.11 146.75 67.17 149.76 68.87 147.28 67.29 149.84 70.07 148.69 67.36 149.99 70.32 150.51 67.33 150.14 69.54 152.18"/></g></g></svg>