<svg xmlns="http://www.w3.org/2000/svg" xmlns:xlink="http://www.w3.org/1999/xlink" viewBox="0 0 186.84 163.43"><defs><style>.cls-1{fill:none;stroke:#fcfcfa;stroke-width:0.25px;}.cls-1,.cls-10,.cls-13,.cls-16,.cls-19,.cls-22,.cls-25,.cls-34,.cls-37,.cls-40,.cls-7{stroke-miterlimit:10;}.cls-2{fill:url(#radial-gradient);}.cls-3{fill:url(#linear-gradient);}.cls-4{fill:url(#radial-gradient-2);}.cls-5{fill:url(#linear-gradient-2);}.cls-6{fill:url(#radial-gradient-3);}.cls-7{fill:url(#radial-gradient-4);stroke:url(#radial-gradient-5);}.cls-8{fill:url(#linear-gradient-3);}.cls-9{fill:url(#radial-gradient-6);}.cls-10{fill:url(#radial-gradient-7);stroke:url(#radial-gradient-8);}.cls-11{fill:url(#linear-gradient-4);}.cls-12{fill:url(#radial-gradient-9);}.cls-13{fill:url(#radial-gradient-10);stroke:url(#radial-gradient-11);}.cls-14{fill:url(#linear-gradient-5);}.cls-15{fill:url(#radial-gradient-12);}.cls-16{fill:url(#radial-gradient-13);stroke:url(#radial-gradient-14);}.cls-17{fill:url(#linear-gradient-6);}.cls-18{fill:url(#radial-gradient-15);}.cls-19{fill:url(#radial-gradient-16);stroke:url(#radial-gradient-17);}.cls-20{fill:url(#linear-gradient-7);}.cls-21{fill:url(#radial-gradient-18);}.cls-22{fill:url(#radial-gradient-19);stroke:url(#radial-gradient-20);}.cls-23{fill:url(#linear-gradient-8);}.cls-24{fill:url(#radial-gradient-21);}.cls-25{fill:url(#radial-gradient-22);stroke:url(#radial-gradient-23);}.cls-26{fill:url(#radial-gradient-24);}.cls-27{fill:url(#linear-gradient-9);}.cls-28{fill:url(#radial-gradient-25);}.cls-29{fill:url(#radial-gradient-26);}.cls-30{fill:url(#linear-gradient-10);}.cls-31{fill:url(#radial-gradient-27);}.cls-32{fill:url(#linear-gradient-11);}.cls-33{fill:url(#radial-gradient-28);}.cls-34{fill:url(#radial-gradient-29);stroke:url(#radial-gradient-30);}.cls-35{fill:url(#linear-gradient-12);}.cls-36{fill:url(#radial-gradient-31);}.cls-37{fill:url(#radial-gradient-32);stroke:url(#radial-gradient-33);}.cls-38{fill:url(#linear-gradient-13);}.cls-39{fill:url(#radial-gradient-34);}.cls-40{fill:url(#radial-gradient-35);stroke:url(#radial-gradient-36);}</style><radialGradient id="radial-gradient" cx="29.07" cy="24.65" r="23.17" gradientTransform="translate(3.05) scale(0.99 1)" gradientUnits="userSpaceOnUse"><stop offset="0.27" stop-color="#fff"/><stop offset="1" stop-color="#fff" stop-opacity="0"/></radialGradient><linearGradient id="linear-gradient" x1="10.95" y1="24.65" x2="52.95" y2="24.65" gradientUnits="userSpaceOnUse"><stop offset="0" stop-color="#fff"/><stop offset="1" stop-color="#fff" stop-opacity="0.5"/></linearGradient><radialGradient id="radial-gradient-2" cx="29.07" cy="24.65" r="24.65" gradientTransform="translate(3.05) scale(0.99 1)" gradientUnits="userSpaceOnUse"><stop offset="0.22" stop-color="#fff"/><stop offset="0.7" stop-color="#fff" stop-opacity="0"/></radialGradient><linearGradient id="linear-gradient-2" x1="-15.13" y1="8.44" x2="8.69" y2="8.44" gradientTransform="matrix(0.99, 0.14, -0.14, 0.99, 15.62, 60.89)" gradientUnits="userSpaceOnUse"><stop offset="0.2" stop-color="#fff"/><stop offset="0.94" stop-color="#fff" stop-opacity="0.5"/><stop offset="0.97" stop-color="#fff"/></linearGradient><radialGradient id="radial-gradient-3" cx="-3.22" cy="8.44" r="9.69" gradientTransform="matrix(0.99, 0.14, -0.14, 0.99, 15.62, 60.89)" gradientUnits="userSpaceOnUse"><stop offset="0.42" stop-color="#fff"/><stop offset="0.82" stop-color="#fff" stop-opacity="0"/></radialGradient><radialGradient id="radial-gradient-4" cx="-3.23" cy="8.58" r="9.02" gradientTransform="matrix(0.99, 0.14, -0.14, 0.99, 15.62, 60.89)" gradientUnits="userSpaceOnUse"><stop offset="0.23" stop-color="#fff"/><stop offset="0.94" stop-color="#fff" stop-opacity="0"/></radialGradient><radialGradient id="radial-gradient-5" cx="-3.23" cy="8.64" r="9.1" gradientTransform="matrix(0.99, 0.14, -0.14, 0.99, 15.62, 60.89)" gradientUnits="userSpaceOnUse"><stop offset="0.31" stop-color="#fff"/><stop offset="0.82" stop-color="#fff" stop-opacity="0"/></radialGradient><linearGradient id="linear-gradient-3" x1="60.99" y1="40.61" x2="76.01" y2="40.61" xlink:href="#linear-gradient-2"/><radialGradient id="radial-gradient-6" cx="68.5" cy="40.61" r="6.11" xlink:href="#radial-gradient-3"/><radialGradient id="radial-gradient-7" cx="68.49" cy="40.7" r="5.69" xlink:href="#radial-gradient-4"/><radialGradient id="radial-gradient-8" cx="68.49" cy="40.76" r="5.77" xlink:href="#radial-gradient-5"/><linearGradient id="linear-gradient-4" x1="75.18" y1="42.24" x2="86.54" y2="42.24" xlink:href="#linear-gradient-2"/><radialGradient id="radial-gradient-9" cx="80.86" cy="42.24" r="4.62" xlink:href="#radial-gradient-3"/><radialGradient id="radial-gradient-10" cx="80.86" cy="42.3" r="4.3" xlink:href="#radial-gradient-4"/><radialGradient id="radial-gradient-11" cx="80.86" cy="42.37" r="4.38" xlink:href="#radial-gradient-5"/><linearGradient id="linear-gradient-5" x1="88.33" y1="41.55" x2="99.69" y2="41.55" xlink:href="#linear-gradient-2"/><radialGradient id="radial-gradient-12" cx="94.01" cy="41.55" r="4.62" xlink:href="#radial-gradient-3"/><radialGradient id="radial-gradient-13" cx="94.01" cy="41.61" r="4.3" xlink:href="#radial-gradient-4"/><radialGradient id="radial-gradient-14" cx="94.01" cy="41.68" r="4.38" xlink:href="#radial-gradient-5"/><linearGradient id="linear-gradient-6" x1="83.71" y1="28.05" x2="91.8" y2="28.05" xlink:href="#linear-gradient-2"/><radialGradient id="radial-gradient-15" cx="87.76" cy="28.05" r="3.29" xlink:href="#radial-gradient-3"/><radialGradient id="radial-gradient-16" cx="87.75" cy="28.1" r="3.07" xlink:href="#radial-gradient-4"/><radialGradient id="radial-gradient-17" cx="87.76" cy="28.17" r="3.15" xlink:href="#radial-gradient-5"/><linearGradient id="linear-gradient-7" x1="75.04" y1="29.23" x2="83.14" y2="29.23" xlink:href="#linear-gradient-2"/><radialGradient id="radial-gradient-18" cx="79.09" cy="29.23" r="3.29" xlink:href="#radial-gradient-3"/><radialGradient id="radial-gradient-19" cx="79.08" cy="29.28" r="3.07" xlink:href="#radial-gradient-4"/><radialGradient id="radial-gradient-20" cx="79.09" cy="29.35" r="3.15" xlink:href="#radial-gradient-5"/><linearGradient id="linear-gradient-8" x1="71.39" y1="18.69" x2="79.49" y2="18.69" xlink:href="#linear-gradient-2"/><radialGradient id="radial-gradient-21" cx="75.44" cy="18.69" r="3.29" xlink:href="#radial-gradient-3"/><radialGradient id="radial-gradient-22" cx="75.44" cy="18.74" r="3.07" xlink:href="#radial-gradient-4"/><radialGradient id="radial-gradient-23" cx="75.44" cy="18.81" r="3.15" xlink:href="#radial-gradient-5"/><radialGradient id="radial-gradient-24" cx="68.67" cy="62.93" r="8.7" xlink:href="#radial-gradient"/><linearGradient id="linear-gradient-9" x1="63.44" y1="62.93" x2="79.21" y2="62.93" xlink:href="#linear-gradient"/><radialGradient id="radial-gradient-25" cx="68.67" cy="62.93" r="9.25" xlink:href="#radial-gradient-2"/><radialGradient id="radial-gradient-26" cx="125.86" cy="132.93" r="16.14" xlink:href="#radial-gradient"/><linearGradient id="linear-gradient-10" x1="113.56" y1="132.93" x2="142.83" y2="132.93" xlink:href="#linear-gradient"/><radialGradient id="radial-gradient-27" cx="125.86" cy="132.93" r="17.18" xlink:href="#radial-gradient-2"/><linearGradient id="linear-gradient-11" x1="152.22" y1="64.85" x2="163.58" y2="64.85" xlink:href="#linear-gradient-2"/><radialGradient id="radial-gradient-28" cx="157.9" cy="64.85" r="4.62" xlink:href="#radial-gradient-3"/><radialGradient id="radial-gradient-29" cx="157.89" cy="64.92" r="4.3" xlink:href="#radial-gradient-4"/><radialGradient id="radial-gradient-30" cx="157.9" cy="64.98" r="4.38" xlink:href="#radial-gradient-5"/><linearGradient id="linear-gradient-12" x1="173.8" y1="69.93" x2="180.9" y2="69.93" xlink:href="#linear-gradient-2"/><radialGradient id="radial-gradient-31" cx="177.35" cy="69.93" r="2.89" xlink:href="#radial-gradient-3"/><radialGradient id="radial-gradient-32" cx="177.35" cy="69.97" r="2.69" xlink:href="#radial-gradient-4"/><radialGradient id="radial-gradient-33" cx="177.35" cy="70.03" r="2.77" xlink:href="#radial-gradient-5"/><linearGradient id="linear-gradient-13" x1="177.51" y1="76.13" x2="183.3" y2="76.13" xlink:href="#linear-gradient-2"/><radialGradient id="radial-gradient-34" cx="180.41" cy="76.13" r="2.36" xlink:href="#radial-gradient-3"/><radialGradient id="radial-gradient-35" cx="180.4" cy="76.17" r="2.19" xlink:href="#radial-gradient-4"/><radialGradient id="radial-gradient-36" cx="180.41" cy="76.23" r="2.27" xlink:href="#radial-gradient-5"/></defs><title>taurus</title><g id="Layer_2" data-name="Layer 2"><g id="Layer_1-2" data-name="Layer 1"><line class="cls-1" x1="9.66" y1="67.81" x2="78.56" y2="110.46"/><line class="cls-1" x1="79.11" y1="111.01" x2="86.76" y2="113.2"/><line class="cls-1" x1="88.95" y1="114.29" x2="103.17" y2="114.29"/><line class="cls-1" x1="99.89" y1="100.07" x2="103.17" y2="113.2"/><line class="cls-1" x1="88.95" y1="101.17" x2="98.79" y2="100.07"/><line class="cls-1" x1="87.86" y1="90.23" x2="89.5" y2="99.53"/><line class="cls-1" x1="72.55" y1="63.98" x2="87.86" y2="89.14"/><line class="cls-1" x1="32.08" y1="23.51" x2="71.45" y2="61.79"/><line class="cls-1" x1="104.26" y1="115.38" x2="127.23" y2="132.88"/><line class="cls-1" x1="128.32" y1="133.98" x2="180.82" y2="153.66"/><line class="cls-1" x1="181.91" y1="154.76" x2="184.1" y2="160.23"/><polygon class="cls-2" points="31.95 1.48 32.45 22.79 43.47 4.59 33.3 23.29 51.9 13.07 33.8 24.15 54.99 24.65 33.8 25.15 51.9 36.23 33.3 26.01 43.47 44.72 32.45 26.51 31.95 47.82 31.45 26.51 20.43 44.72 30.6 26.01 12 36.23 30.1 25.15 8.91 24.65 30.1 24.15 12 13.07 30.6 23.29 20.43 4.59 31.45 22.79 31.95 1.48"/><polygon class="cls-3" points="52.61 45.77 31.93 27.11 10.95 45.43 29.5 24.63 11.29 3.53 31.97 22.19 52.95 3.87 34.4 24.67 52.61 45.77"/><ellipse class="cls-4" cx="31.95" cy="24.65" rx="24.51" ry="24.65"/><polygon class="cls-5" points="22.58 74.17 11.64 69.8 5.93 80.11 10.31 69.17 0 63.46 10.94 67.84 16.64 57.53 12.27 68.47 22.58 74.17"/><circle class="cls-6" cx="11.29" cy="68.82" r="9.69"/><polygon class="cls-7" points="17.24 76.04 11.56 69.82 12.55 78.18 11.14 69.88 7.45 77.45 10.75 69.7 3.55 74.08 10.52 69.34 2.1 69.13 10.52 68.91 3.55 64.18 10.75 68.55 7.45 60.8 11.14 68.37 12.55 60.07 11.56 68.44 17.24 62.21 11.89 68.72 20.03 66.55 12.01 69.13 20.03 71.7 11.89 69.54 17.24 76.04"/><polygon class="cls-8" points="85.12 113.75 78.22 111 74.63 117.5 77.39 110.6 70.89 107 77.78 109.76 81.38 103.26 78.62 110.16 85.12 113.75"/><circle class="cls-9" cx="78" cy="110.38" r="6.11"/><polygon class="cls-10" points="81.76 114.93 78.18 111.01 78.8 116.28 77.91 111.05 75.58 115.82 77.66 110.94 73.12 113.69 77.52 110.71 72.21 110.57 77.52 110.44 73.12 107.45 77.66 110.21 75.58 105.32 77.91 110.1 78.8 104.86 78.18 110.14 81.76 106.21 78.38 110.31 83.52 108.95 78.46 110.57 83.52 112.2 78.38 110.83 81.76 114.93"/><polygon class="cls-11" points="95.42 116.21 90.2 114.13 87.48 119.04 89.57 113.83 84.65 111.11 89.87 113.19 92.59 108.28 90.5 113.49 95.42 116.21"/><circle class="cls-12" cx="90.03" cy="113.66" r="4.62"/><polygon class="cls-13" points="92.87 117.1 90.17 114.14 90.64 118.13 89.96 114.17 88.2 117.78 89.78 114.08 86.34 116.17 89.67 113.91 85.65 113.81 89.67 113.7 86.34 111.45 89.78 113.53 88.2 109.84 89.96 113.45 90.64 109.49 90.17 113.48 92.87 110.51 90.32 113.61 94.2 112.58 90.38 113.81 94.2 115.03 90.32 114 92.87 117.1"/><polygon class="cls-14" points="108.54 117.31 103.33 115.22 100.61 120.14 102.69 114.92 97.78 112.2 102.99 114.29 105.71 109.37 103.63 114.59 108.54 117.31"/><circle class="cls-15" cx="103.16" cy="114.75" r="4.62"/><polygon class="cls-16" points="106 118.2 103.29 115.23 103.76 119.22 103.09 115.26 101.33 118.87 102.9 115.17 99.47 117.26 102.79 115 98.78 114.9 102.79 114.8 99.47 112.54 102.9 114.63 101.33 110.93 103.09 114.54 103.76 110.58 103.29 114.57 106 111.6 103.44 114.7 107.33 113.67 103.5 114.9 107.33 116.13 103.44 115.1 106 118.2"/><line class="cls-1" x1="88.4" y1="100.62" x2="78.56" y2="110.46"/><polygon class="cls-17" points="102.62 102.36 98.9 100.87 96.96 104.37 98.45 100.65 94.95 98.72 98.67 100.2 100.61 96.7 99.12 100.42 102.62 102.36"/><circle class="cls-18" cx="98.78" cy="100.54" r="3.29"/><polygon class="cls-19" points="100.81 102.99 98.88 100.88 99.21 103.72 98.73 100.9 97.48 103.47 98.6 100.83 96.15 102.32 98.52 100.71 95.66 100.64 98.52 100.57 96.15 98.96 98.6 100.44 97.48 97.81 98.73 100.38 99.21 97.56 98.88 100.41 100.81 98.29 98.99 100.5 101.75 99.76 99.03 100.64 101.75 101.52 98.99 100.78 100.81 102.99"/><polygon class="cls-20" points="93.87 102.36 90.15 100.87 88.22 104.37 89.7 100.65 86.2 98.72 89.92 100.2 91.86 96.7 90.37 100.42 93.87 102.36"/><circle class="cls-21" cx="90.03" cy="100.54" r="3.29"/><polygon class="cls-22" points="92.06 102.99 90.13 100.88 90.46 103.72 89.98 100.9 88.73 103.47 89.85 100.83 87.4 102.32 89.77 100.71 86.91 100.64 89.77 100.57 87.4 98.96 89.85 100.44 88.73 97.81 89.98 100.38 90.46 97.56 90.13 100.41 92.06 98.29 90.24 100.5 93.01 99.76 90.28 100.64 93.01 101.52 90.24 100.78 92.06 102.99"/><polygon class="cls-23" points="91.69 91.42 87.97 89.93 86.03 93.44 87.52 89.72 84.01 87.78 87.73 89.27 89.67 85.76 88.18 89.48 91.69 91.42"/><circle class="cls-24" cx="87.85" cy="89.6" r="3.29"/><polygon class="cls-25" points="89.87 92.05 87.94 89.94 88.28 92.78 87.8 89.96 86.54 92.53 87.66 89.9 85.22 91.39 87.58 89.78 84.72 89.7 87.58 89.63 85.22 88.02 87.66 89.51 86.54 86.87 87.8 89.45 88.28 86.62 87.94 89.47 89.87 87.35 88.05 89.56 90.82 88.83 88.09 89.7 90.82 90.58 88.05 89.84 89.87 92.05"/><polygon class="cls-26" points="71.32 54.23 71.51 62.23 75.65 55.4 71.83 62.42 78.81 58.58 72.02 62.74 79.97 62.93 72.02 63.12 78.81 67.28 71.83 63.44 75.65 70.46 71.51 63.63 71.32 71.63 71.14 63.63 67 70.46 70.82 63.44 63.84 67.28 70.63 63.12 62.68 62.93 70.63 62.74 63.84 58.58 70.82 62.42 67 55.4 71.14 62.23 71.32 54.23"/><polygon class="cls-27" points="79.08 70.86 71.32 63.85 63.44 70.73 70.41 62.92 63.57 55 71.33 62.01 79.2 55.13 72.24 62.94 79.08 70.86"/><ellipse class="cls-28" cx="71.32" cy="62.93" rx="9.2" ry="9.25"/><polygon class="cls-29" points="128.19 116.78 128.54 131.63 136.22 118.94 129.14 131.98 142.1 124.85 129.48 132.58 144.25 132.93 129.48 133.27 142.1 141 129.14 133.88 136.22 146.91 128.54 134.22 128.19 149.07 127.85 134.22 120.17 146.91 127.25 133.88 114.29 141 126.91 133.27 112.14 132.93 126.91 132.58 114.29 124.85 127.25 131.98 120.17 118.94 127.85 131.63 128.19 116.78"/><polygon class="cls-30" points="142.59 147.64 128.18 134.64 113.56 147.41 126.49 132.91 113.8 118.21 128.21 131.21 142.83 118.45 129.9 132.94 142.59 147.64"/><ellipse class="cls-31" cx="128.2" cy="132.93" rx="17.08" ry="17.18"/><polygon class="cls-32" points="168.7 149.02 163.48 146.94 160.76 151.85 162.85 146.64 157.93 143.92 163.15 146 165.87 141.09 163.78 146.3 168.7 149.02"/><circle class="cls-33" cx="163.31" cy="146.47" r="4.62"/><polygon class="cls-34" points="166.15 149.91 163.44 146.95 163.91 150.94 163.24 146.98 161.48 150.59 163.06 146.89 159.62 148.98 162.94 146.72 158.93 146.62 162.94 146.51 159.62 144.26 163.06 146.34 161.48 142.65 163.24 146.26 163.91 142.3 163.44 146.29 166.15 143.32 163.6 146.42 167.48 145.39 163.66 146.62 167.48 147.85 163.6 146.81 166.15 149.91"/><polygon class="cls-35" points="185.27 155.72 182.01 154.42 180.31 157.49 181.61 154.23 178.54 152.53 181.8 153.83 183.5 150.76 182.2 154.02 185.27 155.72"/><circle class="cls-36" cx="181.9" cy="154.13" r="2.89"/><polygon class="cls-37" points="183.68 156.28 181.99 154.42 182.28 156.92 181.86 154.44 180.76 156.7 181.74 154.39 179.6 155.69 181.68 154.28 179.16 154.22 181.68 154.15 179.6 152.74 181.74 154.05 180.76 151.74 181.86 153.99 182.28 151.52 181.99 154.01 183.68 152.16 182.08 154.09 184.51 153.45 182.12 154.22 184.51 154.99 182.08 154.34 183.68 156.28"/><polygon class="cls-38" points="186.84 161.99 184.18 160.93 182.79 163.43 183.85 160.77 181.35 159.39 184.01 160.45 185.39 157.94 184.33 160.6 186.84 161.99"/><circle class="cls-39" cx="184.09" cy="160.69" r="2.36"/><polygon class="cls-40" points="185.54 162.44 184.16 160.93 184.4 162.96 184.06 160.95 183.16 162.79 183.96 160.9 182.21 161.97 183.91 160.81 181.86 160.76 183.91 160.71 182.21 159.56 183.96 160.62 183.16 158.74 184.06 160.58 184.4 158.56 184.16 160.59 185.54 159.08 184.24 160.66 186.22 160.14 184.27 160.76 186.22 161.39 184.24 160.86 185.54 162.44"/></g></g></svg>