<svg xmlns="http://www.w3.org/2000/svg" xmlns:xlink="http://www.w3.org/1999/xlink" viewBox="0 0 152.47 141.89"><defs><style>.cls-1{fill:none;stroke:#fcfcfa;stroke-miterlimit:10;stroke-width:0.25px;}.cls-2{fill:url(#radial-gradient);}.cls-3{fill:url(#linear-gradient);}.cls-4{fill:url(#radial-gradient-2);}.cls-5{fill:url(#radial-gradient-3);}.cls-6{fill:url(#linear-gradient-2);}.cls-7{fill:url(#radial-gradient-4);}.cls-8{fill:url(#radial-gradient-5);}.cls-9{fill:url(#linear-gradient-3);}.cls-10{fill:url(#radial-gradient-6);}.cls-11{fill:url(#radial-gradient-7);}.cls-12{fill:url(#linear-gradient-4);}.cls-13{fill:url(#radial-gradient-8);}.cls-14{fill:url(#radial-gradient-9);}.cls-15{fill:url(#linear-gradient-5);}.cls-16{fill:url(#radial-gradient-10);}</style><radialGradient id="radial-gradient" cx="49.77" cy="128.29" r="12.79" gradientTransform="translate(0.78) scale(0.99 1)" gradientUnits="userSpaceOnUse"><stop offset="0.27" stop-color="#fff"/><stop offset="1" stop-color="#fff" stop-opacity="0"/></radialGradient><linearGradient id="linear-gradient" x1="38.68" y1="128.29" x2="61.86" y2="128.29" gradientUnits="userSpaceOnUse"><stop offset="0" stop-color="#fff"/><stop offset="1" stop-color="#fff" stop-opacity="0.5"/></linearGradient><radialGradient id="radial-gradient-2" cx="49.77" cy="128.29" r="13.61" gradientTransform="translate(0.78) scale(0.99 1)" gradientUnits="userSpaceOnUse"><stop offset="0.22" stop-color="#fff"/><stop offset="0.7" stop-color="#fff" stop-opacity="0"/></radialGradient><radialGradient id="radial-gradient-3" cx="52.1" cy="72.04" r="6.35" xlink:href="#radial-gradient"/><linearGradient id="linear-gradient-2" x1="46.83" y1="72.04" x2="58.33" y2="72.04" xlink:href="#linear-gradient"/><radialGradient id="radial-gradient-4" cx="52.1" cy="72.04" r="6.75" xlink:href="#radial-gradient-2"/><radialGradient id="radial-gradient-5" cx="42.3" cy="51.58" r="6.35" xlink:href="#radial-gradient"/><linearGradient id="linear-gradient-3" x1="37.08" y1="51.58" x2="48.59" y2="51.58" xlink:href="#linear-gradient"/><radialGradient id="radial-gradient-6" cx="42.3" cy="51.58" r="6.75" xlink:href="#radial-gradient-2"/><radialGradient id="radial-gradient-7" cx="138.95" cy="103.92" r="12.79" xlink:href="#radial-gradient"/><linearGradient id="linear-gradient-4" x1="127.35" y1="103.92" x2="150.53" y2="103.92" xlink:href="#linear-gradient"/><radialGradient id="radial-gradient-8" cx="138.95" cy="103.92" r="13.61" xlink:href="#radial-gradient-2"/><radialGradient id="radial-gradient-9" cx="10.57" cy="11.35" r="10.67" xlink:href="#radial-gradient"/><linearGradient id="linear-gradient-5" x1="1.62" y1="11.35" x2="20.96" y2="11.35" xlink:href="#linear-gradient"/><radialGradient id="radial-gradient-10" cx="10.57" cy="11.35" r="11.35" xlink:href="#radial-gradient-2"/></defs><title>cancer</title><g id="Layer_2" data-name="Layer 2"><g id="Layer_1-2" data-name="Layer 1"><line class="cls-1" x1="11.17" y1="9.74" x2="44.31" y2="53.59"/><line class="cls-1" x1="52.1" y1="71.13" x2="44.31" y2="54.57"/><line class="cls-1" x1="52.1" y1="71.13" x2="50.15" y2="128.63"/><line class="cls-1" x1="53.08" y1="71.13" x2="139.8" y2="103.29"/><polygon class="cls-2" points="50.27 115.5 50.54 127.26 56.62 117.21 51.01 127.53 61.28 121.89 51.29 128.01 62.98 128.29 51.29 128.56 61.28 134.68 51.01 129.04 56.62 139.36 50.54 129.31 50.27 141.07 49.99 129.31 43.91 139.36 49.52 129.04 39.26 134.68 49.25 128.56 37.55 128.29 49.25 128.01 39.26 121.89 49.52 127.53 43.91 117.21 49.99 127.26 50.27 115.5"/><polygon class="cls-3" points="61.67 139.94 50.26 129.64 38.68 139.75 48.92 128.28 38.86 116.63 50.28 126.93 61.85 116.82 51.62 128.3 61.67 139.94"/><ellipse class="cls-4" cx="50.27" cy="128.29" rx="13.53" ry="13.61"/><polygon class="cls-5" points="52.58 65.69 52.71 71.53 55.73 66.54 52.95 71.67 58.04 68.87 53.09 71.9 58.89 72.04 53.09 72.18 58.04 75.21 52.95 72.41 55.73 77.54 52.71 72.55 52.58 78.39 52.44 72.55 49.42 77.54 52.21 72.41 47.11 75.21 52.07 72.18 46.27 72.04 52.07 71.9 47.11 68.87 52.21 71.67 49.42 66.54 52.44 71.53 52.58 65.69"/><polygon class="cls-6" points="58.24 77.83 52.57 72.72 46.83 77.73 51.91 72.03 46.92 66.25 52.58 71.37 58.33 66.35 53.25 72.05 58.24 77.83"/><ellipse class="cls-7" cx="52.58" cy="72.04" rx="6.71" ry="6.75"/><polygon class="cls-8" points="42.83 45.23 42.97 51.07 45.99 46.08 43.2 51.2 48.3 48.4 43.34 51.44 49.15 51.58 43.34 51.71 48.3 54.75 43.2 51.95 45.99 57.07 42.97 52.09 42.83 57.92 42.7 52.09 39.68 57.07 42.46 51.95 37.37 54.75 42.33 51.71 36.52 51.58 42.33 51.44 37.37 48.4 42.46 51.2 39.68 46.08 42.7 51.07 42.83 45.23"/><polygon class="cls-9" points="48.49 57.36 42.83 52.25 37.08 57.27 42.16 51.57 37.17 45.79 42.84 50.9 48.59 45.88 43.5 51.58 48.49 57.36"/><ellipse class="cls-10" cx="42.83" cy="51.58" rx="6.71" ry="6.75"/><polygon class="cls-11" points="138.94 91.14 139.21 102.9 145.3 92.85 139.69 103.17 149.95 97.53 139.96 103.65 151.65 103.92 139.96 104.2 149.95 110.32 139.69 104.68 145.3 115 139.21 104.95 138.94 116.71 138.67 104.95 132.58 115 138.19 104.68 127.93 110.32 137.92 104.2 126.23 103.92 137.92 103.65 127.93 97.53 138.19 103.17 132.58 92.85 138.67 102.9 138.94 91.14"/><polygon class="cls-12" points="150.34 115.58 138.93 105.28 127.35 115.39 137.59 103.91 127.54 92.27 138.95 102.57 150.53 92.46 140.29 103.94 150.34 115.58"/><ellipse class="cls-13" cx="138.94" cy="103.92" rx="13.53" ry="13.61"/><polygon class="cls-14" points="11.29 0.68 11.52 10.5 16.59 2.11 11.91 10.73 20.48 6.02 12.14 11.12 21.9 11.35 12.14 11.58 20.48 16.69 11.91 11.98 16.59 20.59 11.52 12.21 11.29 22.02 11.06 12.21 5.98 20.59 10.67 11.98 2.1 16.69 10.44 11.58 0.68 11.35 10.44 11.12 2.1 6.02 10.67 10.73 5.98 2.11 11.06 10.5 11.29 0.68"/><polygon class="cls-15" points="20.8 21.08 11.28 12.49 1.62 20.92 10.16 11.34 1.77 1.63 11.3 10.22 20.96 1.78 12.42 11.36 20.8 21.08"/><ellipse class="cls-16" cx="11.29" cy="11.35" rx="11.29" ry="11.35"/></g></g></svg>