<svg xmlns="http://www.w3.org/2000/svg" xmlns:xlink="http://www.w3.org/1999/xlink" viewBox="0 0 163.85 149.52"><defs><style>.cls-1{fill:none;stroke:#fcfcfa;stroke-width:0.25px;}.cls-1,.cls-10,.cls-13,.cls-16,.cls-19,.cls-22,.cls-25,.cls-28,.cls-31,.cls-34,.cls-7{stroke-miterlimit:10;}.cls-2{fill:url(#radial-gradient);}.cls-3{fill:url(#linear-gradient);}.cls-4{fill:url(#radial-gradient-2);}.cls-5{fill:url(#linear-gradient-2);}.cls-6{fill:url(#radial-gradient-3);}.cls-7{fill:url(#radial-gradient-4);stroke:url(#radial-gradient-5);}.cls-8{fill:url(#linear-gradient-3);}.cls-9{fill:url(#radial-gradient-6);}.cls-10{fill:url(#radial-gradient-7);stroke:url(#radial-gradient-8);}.cls-11{fill:url(#linear-gradient-4);}.cls-12{fill:url(#radial-gradient-9);}.cls-13{fill:url(#radial-gradient-10);stroke:url(#radial-gradient-11);}.cls-14{fill:url(#linear-gradient-5);}.cls-15{fill:url(#radial-gradient-12);}.cls-16{fill:url(#radial-gradient-13);stroke:url(#radial-gradient-14);}.cls-17{fill:url(#linear-gradient-6);}.cls-18{fill:url(#radial-gradient-15);}.cls-19{fill:url(#radial-gradient-16);stroke:url(#radial-gradient-17);}.cls-20{fill:url(#linear-gradient-7);}.cls-21{fill:url(#radial-gradient-18);}.cls-22{fill:url(#radial-gradient-19);stroke:url(#radial-gradient-20);}.cls-23{fill:url(#linear-gradient-8);}.cls-24{fill:url(#radial-gradient-21);}.cls-25{fill:url(#radial-gradient-22);stroke:url(#radial-gradient-23);}.cls-26{fill:url(#linear-gradient-9);}.cls-27{fill:url(#radial-gradient-24);}.cls-28{fill:url(#radial-gradient-25);stroke:url(#radial-gradient-26);}.cls-29{fill:url(#linear-gradient-10);}.cls-30{fill:url(#radial-gradient-27);}.cls-31{fill:url(#radial-gradient-28);stroke:url(#radial-gradient-29);}.cls-32{fill:url(#linear-gradient-11);}.cls-33{fill:url(#radial-gradient-30);}.cls-34{fill:url(#radial-gradient-31);stroke:url(#radial-gradient-32);}</style><radialGradient id="radial-gradient" cx="141.66" cy="19.19" r="18.04" gradientTransform="translate(3.92) scale(0.99 1)" gradientUnits="userSpaceOnUse"><stop offset="0.27" stop-color="#fff"/><stop offset="1" stop-color="#fff" stop-opacity="0"/></radialGradient><linearGradient id="linear-gradient" x1="128.43" y1="19.19" x2="161.12" y2="19.19" gradientUnits="userSpaceOnUse"><stop offset="0" stop-color="#fff"/><stop offset="1" stop-color="#fff" stop-opacity="0.5"/></linearGradient><radialGradient id="radial-gradient-2" cx="141.66" cy="19.19" r="19.19" gradientTransform="translate(3.92) scale(0.99 1)" gradientUnits="userSpaceOnUse"><stop offset="0.22" stop-color="#fff"/><stop offset="0.7" stop-color="#fff" stop-opacity="0"/></radialGradient><linearGradient id="linear-gradient-2" x1="63.4" y1="92.57" x2="83.77" y2="92.57" gradientUnits="userSpaceOnUse"><stop offset="0.2" stop-color="#fff"/><stop offset="0.94" stop-color="#fff" stop-opacity="0.5"/><stop offset="0.97" stop-color="#fff"/></linearGradient><radialGradient id="radial-gradient-3" cx="73.59" cy="92.57" r="8.29" gradientUnits="userSpaceOnUse"><stop offset="0.42" stop-color="#fff"/><stop offset="0.82" stop-color="#fff" stop-opacity="0"/></radialGradient><radialGradient id="radial-gradient-4" cx="73.58" cy="92.69" r="7.71" gradientUnits="userSpaceOnUse"><stop offset="0.23" stop-color="#fff"/><stop offset="0.94" stop-color="#fff" stop-opacity="0"/></radialGradient><radialGradient id="radial-gradient-5" cx="73.58" cy="92.75" r="7.8" gradientUnits="userSpaceOnUse"><stop offset="0.31" stop-color="#fff"/><stop offset="0.82" stop-color="#fff" stop-opacity="0"/></radialGradient><linearGradient id="linear-gradient-3" x1="135.51" y1="35.43" x2="143.46" y2="35.43" xlink:href="#linear-gradient-2"/><radialGradient id="radial-gradient-6" cx="139.48" cy="35.43" r="3.23" xlink:href="#radial-gradient-3"/><radialGradient id="radial-gradient-7" cx="139.48" cy="35.48" r="3.01" xlink:href="#radial-gradient-4"/><radialGradient id="radial-gradient-8" cx="139.49" cy="35.54" r="3.09" xlink:href="#radial-gradient-5"/><linearGradient id="linear-gradient-4" x1="108.4" y1="136.37" x2="134.7" y2="136.37" xlink:href="#linear-gradient-2"/><radialGradient id="radial-gradient-9" cx="121.55" cy="136.37" r="10.7" xlink:href="#radial-gradient-3"/><radialGradient id="radial-gradient-10" cx="121.54" cy="136.51" r="9.96" xlink:href="#radial-gradient-4"/><radialGradient id="radial-gradient-11" cx="121.54" cy="136.58" r="10.04" xlink:href="#radial-gradient-5"/><linearGradient id="linear-gradient-5" x1="119.57" y1="125.61" x2="130.85" y2="125.61" xlink:href="#linear-gradient-2"/><radialGradient id="radial-gradient-12" cx="125.21" cy="125.61" r="4.59" xlink:href="#radial-gradient-3"/><radialGradient id="radial-gradient-13" cx="125.2" cy="125.68" r="4.27" xlink:href="#radial-gradient-4"/><radialGradient id="radial-gradient-14" cx="125.21" cy="125.75" r="4.36" xlink:href="#radial-gradient-5"/><linearGradient id="linear-gradient-6" x1="88.8" y1="135.53" x2="104.25" y2="135.53" xlink:href="#linear-gradient-2"/><radialGradient id="radial-gradient-15" cx="96.53" cy="135.53" r="6.29" xlink:href="#radial-gradient-3"/><radialGradient id="radial-gradient-16" cx="96.52" cy="135.62" r="5.85" xlink:href="#radial-gradient-4"/><radialGradient id="radial-gradient-17" cx="96.52" cy="135.69" r="5.94" xlink:href="#radial-gradient-5"/><linearGradient id="linear-gradient-7" x1="54.18" y1="137.2" x2="69.64" y2="137.2" xlink:href="#linear-gradient-2"/><radialGradient id="radial-gradient-18" cx="61.91" cy="137.2" r="6.29" xlink:href="#radial-gradient-3"/><radialGradient id="radial-gradient-19" cx="61.9" cy="137.29" r="5.85" xlink:href="#radial-gradient-4"/><radialGradient id="radial-gradient-20" cx="61.9" cy="137.35" r="5.94" xlink:href="#radial-gradient-5"/><linearGradient id="linear-gradient-8" x1="30.45" y1="129.28" x2="43.32" y2="129.28" xlink:href="#linear-gradient-2"/><radialGradient id="radial-gradient-21" cx="36.88" cy="129.28" r="5.24" xlink:href="#radial-gradient-3"/><radialGradient id="radial-gradient-22" cx="36.88" cy="129.35" r="4.87" xlink:href="#radial-gradient-4"/><radialGradient id="radial-gradient-23" cx="36.88" cy="129.41" r="4.96" xlink:href="#radial-gradient-5"/><linearGradient id="linear-gradient-9" x1="39.62" y1="104.67" x2="55.83" y2="104.67" xlink:href="#linear-gradient-2"/><radialGradient id="radial-gradient-24" cx="47.73" cy="104.67" r="6.59" xlink:href="#radial-gradient-3"/><radialGradient id="radial-gradient-25" cx="47.72" cy="104.76" r="6.14" xlink:href="#radial-gradient-4"/><radialGradient id="radial-gradient-26" cx="47.72" cy="104.83" r="6.22" xlink:href="#radial-gradient-5"/><linearGradient id="linear-gradient-10" x1="18.31" y1="114.68" x2="29.6" y2="114.68" xlink:href="#linear-gradient-2"/><radialGradient id="radial-gradient-27" cx="23.95" cy="114.68" r="4.59" xlink:href="#radial-gradient-3"/><radialGradient id="radial-gradient-28" cx="23.95" cy="114.74" r="4.27" xlink:href="#radial-gradient-4"/><radialGradient id="radial-gradient-29" cx="23.95" cy="114.81" r="4.36" xlink:href="#radial-gradient-5"/><linearGradient id="linear-gradient-11" x1="0" y1="124.69" x2="29.55" y2="124.69" xlink:href="#linear-gradient-2"/><radialGradient id="radial-gradient-30" cx="14.78" cy="124.69" r="12.02" xlink:href="#radial-gradient-3"/><radialGradient id="radial-gradient-31" cx="14.77" cy="124.85" r="11.19" xlink:href="#radial-gradient-4"/><radialGradient id="radial-gradient-32" cx="14.77" cy="124.92" r="11.27" xlink:href="#radial-gradient-5"/></defs><title>capricorn</title><g id="Layer_2" data-name="Layer 2"><g id="Layer_1-2" data-name="Layer 1"><line class="cls-1" x1="139.87" y1="35.86" x2="124.44" y2="125.53"/><line class="cls-1" x1="124.86" y1="126.79" x2="121.1" y2="135.54"/><line class="cls-1" x1="96.08" y1="135.54" x2="120.27" y2="135.96"/><line class="cls-1" x1="96.08" y1="135.54" x2="61.88" y2="137.21"/><line class="cls-1" x1="36.02" y1="128.87" x2="61.04" y2="137.63"/><line class="cls-1" x1="14.33" y1="125.95" x2="36.02" y2="128.87"/><line class="cls-1" x1="13.5" y1="125.95" x2="24.34" y2="114.69"/><line class="cls-1" x1="47.7" y1="103.85" x2="23.51" y2="115.52"/><line class="cls-1" x1="73.14" y1="92.59" x2="48.53" y2="103.85"/><line class="cls-1" x1="139.87" y1="35.86" x2="73.97" y2="93"/><polygon class="cls-2" points="144.77 1.16 145.16 17.74 153.74 3.57 145.83 18.13 160.3 10.17 146.21 18.8 162.71 19.19 146.21 19.58 160.3 28.21 145.83 20.25 153.74 34.81 145.16 20.64 144.77 37.23 144.39 20.64 135.81 34.81 143.72 20.25 129.24 28.21 143.33 19.58 126.84 19.19 143.33 18.8 129.24 10.17 143.72 18.13 135.81 3.57 144.39 17.74 144.77 1.16"/><polygon class="cls-3" points="160.86 35.63 144.76 21.11 128.43 35.37 142.87 19.18 128.69 2.75 144.79 17.27 161.12 3.02 146.68 19.21 160.86 35.63"/><ellipse class="cls-4" cx="144.77" cy="19.19" rx="19.08" ry="19.19"/><polygon class="cls-5" points="83.78 95.81 73.99 93.36 70.35 102.76 72.8 92.98 63.4 89.34 73.18 91.78 76.82 82.38 74.37 92.16 83.78 95.81"/><circle class="cls-6" cx="73.59" cy="92.57" r="8.29"/><polygon class="cls-7" points="79.47 98.01 73.93 93.39 75.74 100.37 73.58 93.49 71.33 100.33 73.23 93.38 67.63 97.92 72.99 93.1 65.83 93.9 72.94 92.74 66.49 89.53 73.1 92.41 69.4 86.22 73.41 92.21 73.64 85.01 73.77 92.22 77.87 86.28 74.08 92.42 80.73 89.64 74.23 92.75 81.33 94.01 74.17 93.11 79.47 98.01"/><polygon class="cls-8" points="143.46 36.69 139.64 35.74 138.22 39.41 139.18 35.59 135.51 34.17 139.33 35.12 140.75 31.46 139.79 35.27 143.46 36.69"/><circle class="cls-9" cx="139.48" cy="35.43" r="3.23"/><polygon class="cls-10" points="141.78 37.55 139.62 35.75 140.32 38.47 139.48 35.79 138.6 38.46 139.35 35.75 137.16 37.52 139.25 35.64 136.46 35.95 139.23 35.5 136.72 34.25 139.29 35.37 137.85 32.95 139.41 35.29 139.51 32.48 139.56 35.29 141.16 32.98 139.68 35.37 142.27 34.29 139.74 35.5 142.51 35.99 139.72 35.64 141.78 37.55"/><polygon class="cls-11" points="134.7 140.54 122.08 137.38 117.38 149.52 120.53 136.89 108.4 132.19 121.02 135.35 125.72 123.21 122.57 135.84 134.7 140.54"/><circle class="cls-12" cx="121.55" cy="136.37" r="10.7"/><polygon class="cls-13" points="129.14 143.38 122 137.42 124.33 146.43 121.54 137.55 118.63 146.38 121.09 137.41 113.86 143.27 120.78 137.05 111.54 138.07 120.72 136.58 112.39 132.44 120.92 136.16 116.15 128.17 121.32 135.9 121.62 126.6 121.79 135.91 127.08 128.25 122.19 136.16 130.77 132.58 122.38 136.59 131.54 138.22 122.31 137.06 129.14 143.38"/><polygon class="cls-14" points="130.85 127.41 125.44 126.05 123.42 131.26 124.77 125.84 119.56 123.82 124.98 125.18 127 119.97 125.65 125.39 130.85 127.41"/><circle class="cls-15" cx="125.21" cy="125.61" r="4.59"/><polygon class="cls-16" points="128.47 128.63 125.4 126.07 126.4 129.93 125.21 126.12 123.96 129.91 125.01 126.06 121.91 128.58 124.88 125.91 120.91 126.35 124.85 125.71 121.28 123.93 124.94 125.52 122.89 122.1 125.11 125.42 125.24 121.42 125.31 125.42 127.58 122.13 125.48 125.53 129.17 123.99 125.57 125.71 129.5 126.41 125.54 125.91 128.47 128.63"/><polygon class="cls-17" points="104.25 137.99 96.83 136.13 94.07 143.26 95.93 135.84 88.8 133.08 96.22 134.93 98.98 127.8 97.12 135.22 104.25 137.99"/><circle class="cls-18" cx="96.53" cy="135.53" r="6.29"/><polygon class="cls-19" points="100.99 139.66 96.79 136.15 98.16 141.44 96.52 136.23 94.81 141.42 96.26 136.15 92.01 139.59 96.08 135.94 90.64 136.54 96.04 135.66 91.14 133.23 96.16 135.41 93.35 130.71 96.39 135.26 96.57 129.79 96.67 135.26 99.77 130.76 96.9 135.41 101.95 133.31 97.01 135.67 102.4 136.62 96.97 135.94 100.99 139.66"/><polygon class="cls-20" points="69.64 139.65 62.22 137.8 59.45 144.93 61.31 137.51 54.18 134.75 61.6 136.6 64.36 129.47 62.51 136.89 69.64 139.65"/><circle class="cls-21" cx="61.91" cy="137.2" r="6.29"/><polygon class="cls-22" points="66.37 141.32 62.17 137.82 63.54 143.11 61.9 137.9 60.19 143.09 61.64 137.81 57.39 141.26 61.46 137.6 56.02 138.21 61.42 137.33 56.52 134.9 61.54 137.08 58.73 132.38 61.77 136.93 61.95 131.46 62.05 136.93 65.16 132.43 62.28 137.08 67.33 134.97 62.4 137.34 67.78 138.29 62.35 137.61 66.37 141.32"/><polygon class="cls-23" points="43.32 131.32 37.14 129.77 34.84 135.71 36.38 129.53 30.45 127.23 36.62 128.78 38.92 122.84 37.38 129.02 43.32 131.32"/><circle class="cls-24" cx="36.88" cy="129.28" r="5.24"/><polygon class="cls-25" points="40.6 132.71 37.1 129.79 38.24 134.2 36.88 129.85 35.45 134.18 36.66 129.79 33.12 132.66 36.51 129.61 31.98 130.11 36.48 129.38 32.4 127.36 36.57 129.17 34.24 125.26 36.77 129.05 36.92 124.5 37 129.05 39.59 125.3 37.2 129.18 41.4 127.42 37.29 129.39 41.77 130.18 37.26 129.62 40.6 132.71"/><polygon class="cls-26" points="55.83 107.24 48.05 105.29 45.15 112.77 47.1 104.99 39.62 102.09 47.4 104.04 50.3 96.56 48.35 104.34 55.83 107.24"/><circle class="cls-27" cx="47.73" cy="104.67" r="6.59"/><polygon class="cls-28" points="52.4 108.99 48 105.32 49.44 110.87 47.72 105.4 45.93 110.84 47.44 105.31 42.99 108.92 47.25 105.09 41.56 105.72 47.22 104.8 42.08 102.25 47.34 104.54 44.4 99.62 47.58 104.38 47.77 98.65 47.88 104.38 51.13 99.67 48.12 104.54 53.41 102.33 48.24 104.81 53.88 105.81 48.2 105.1 52.4 108.99"/><polygon class="cls-29" points="29.6 116.47 24.18 115.11 22.16 120.32 23.52 114.9 18.31 112.89 23.73 114.24 25.75 109.03 24.39 114.45 29.6 116.47"/><circle class="cls-30" cx="23.95" cy="114.68" r="4.59"/><polygon class="cls-31" points="27.21 117.69 24.14 115.13 25.14 119 23.95 115.19 22.7 118.98 23.76 115.13 20.66 117.64 23.62 114.97 19.66 115.41 23.6 114.77 20.02 113 23.68 114.59 21.63 111.16 23.85 114.48 23.98 110.49 24.06 114.48 26.32 111.19 24.23 114.59 27.91 113.05 24.31 114.78 28.24 115.47 24.28 114.98 27.21 117.69"/><polygon class="cls-32" points="29.55 129.38 15.37 125.83 10.09 139.46 13.63 125.28 0 120 14.19 123.54 19.47 109.91 15.92 124.09 29.55 129.38"/><circle class="cls-33" cx="14.78" cy="124.69" r="12.02"/><polygon class="cls-34" points="23.3 132.57 15.28 125.87 17.9 135.99 14.77 126.02 11.5 135.94 14.26 125.86 6.14 132.45 13.92 125.46 3.53 126.61 13.84 124.93 4.48 120.28 14.07 124.45 8.71 115.48 14.52 124.17 14.86 113.72 15.05 124.17 20.98 115.56 15.49 124.46 25.14 120.43 15.71 124.95 26 126.77 15.63 125.47 23.3 132.57"/></g></g></svg>