<svg xmlns="http://www.w3.org/2000/svg" xmlns:xlink="http://www.w3.org/1999/xlink" viewBox="0 0 124.65 165.13"><defs><style>.cls-1{fill:none;stroke:#fcfcfa;stroke-width:0.25px;}.cls-1,.cls-10,.cls-13,.cls-16,.cls-4,.cls-7{stroke-miterlimit:10;}.cls-2{fill:url(#linear-gradient);}.cls-3{fill:url(#radial-gradient);}.cls-4{fill:url(#radial-gradient-2);stroke:url(#radial-gradient-3);}.cls-5{fill:url(#linear-gradient-2);}.cls-6{fill:url(#radial-gradient-4);}.cls-7{fill:url(#radial-gradient-5);stroke:url(#radial-gradient-6);}.cls-8{fill:url(#linear-gradient-3);}.cls-9{fill:url(#radial-gradient-7);}.cls-10{fill:url(#radial-gradient-8);stroke:url(#radial-gradient-9);}.cls-11{fill:url(#linear-gradient-4);}.cls-12{fill:url(#radial-gradient-10);}.cls-13{fill:url(#radial-gradient-11);stroke:url(#radial-gradient-12);}.cls-14{fill:url(#linear-gradient-5);}.cls-15{fill:url(#radial-gradient-13);}.cls-16{fill:url(#radial-gradient-14);stroke:url(#radial-gradient-15);}.cls-17{fill:url(#radial-gradient-16);}.cls-18{fill:url(#linear-gradient-6);}.cls-19{fill:url(#radial-gradient-17);}.cls-20{fill:url(#radial-gradient-18);}.cls-21{fill:url(#linear-gradient-7);}.cls-22{fill:url(#radial-gradient-19);}</style><linearGradient id="linear-gradient" x1="32" y1="147.92" x2="42.42" y2="147.92" gradientUnits="userSpaceOnUse"><stop offset="0.2" stop-color="#fff"/><stop offset="0.94" stop-color="#fff" stop-opacity="0.5"/><stop offset="0.97" stop-color="#fff"/></linearGradient><radialGradient id="radial-gradient" cx="37.21" cy="147.92" r="4.24" gradientUnits="userSpaceOnUse"><stop offset="0.42" stop-color="#fff"/><stop offset="0.82" stop-color="#fff" stop-opacity="0"/></radialGradient><radialGradient id="radial-gradient-2" cx="37.2" cy="147.98" r="3.94" gradientUnits="userSpaceOnUse"><stop offset="0.23" stop-color="#fff"/><stop offset="0.94" stop-color="#fff" stop-opacity="0"/></radialGradient><radialGradient id="radial-gradient-3" cx="37.21" cy="148.04" r="4.03" gradientUnits="userSpaceOnUse"><stop offset="0.31" stop-color="#fff"/><stop offset="0.82" stop-color="#fff" stop-opacity="0"/></radialGradient><linearGradient id="linear-gradient-2" x1="84.23" y1="128.92" x2="94.59" y2="128.92" xlink:href="#linear-gradient"/><radialGradient id="radial-gradient-4" cx="89.07" cy="128.92" r="4.24" gradientTransform="translate(0.84) scale(0.99 1)" xlink:href="#radial-gradient"/><radialGradient id="radial-gradient-5" cx="89.07" cy="128.98" r="3.94" gradientTransform="translate(0.84) scale(0.99 1)" xlink:href="#radial-gradient-2"/><radialGradient id="radial-gradient-6" cx="89.07" cy="129.04" r="4.03" gradientTransform="translate(0.84) scale(0.99 1)" xlink:href="#radial-gradient-3"/><linearGradient id="linear-gradient-3" y1="50.92" x2="42.42" y2="50.92" xlink:href="#linear-gradient"/><radialGradient id="radial-gradient-7" cx="37.21" cy="50.92" r="4.24" xlink:href="#radial-gradient"/><radialGradient id="radial-gradient-8" cx="37.2" cy="50.98" r="3.94" xlink:href="#radial-gradient-2"/><radialGradient id="radial-gradient-9" cx="37.21" cy="51.04" r="4.03" xlink:href="#radial-gradient-3"/><linearGradient id="linear-gradient-4" x1="29" y1="159.92" x2="39.42" y2="159.92" xlink:href="#linear-gradient"/><radialGradient id="radial-gradient-10" cx="34.21" cy="159.92" r="4.24" xlink:href="#radial-gradient"/><radialGradient id="radial-gradient-11" cx="34.2" cy="159.98" r="3.94" xlink:href="#radial-gradient-2"/><radialGradient id="radial-gradient-12" cx="34.21" cy="160.04" r="4.03" xlink:href="#radial-gradient-3"/><linearGradient id="linear-gradient-5" x1="0" y1="66.92" x2="10.42" y2="66.92" xlink:href="#linear-gradient"/><radialGradient id="radial-gradient-13" cx="5.21" cy="66.92" r="4.24" xlink:href="#radial-gradient"/><radialGradient id="radial-gradient-14" cx="5.2" cy="66.98" r="3.94" xlink:href="#radial-gradient-2"/><radialGradient id="radial-gradient-15" cx="5.21" cy="67.04" r="4.03" xlink:href="#radial-gradient-3"/><radialGradient id="radial-gradient-16" cx="67.98" cy="12.53" r="11.78" gradientTransform="translate(0.84) scale(0.99 1)" gradientUnits="userSpaceOnUse"><stop offset="0.27" stop-color="#fff"/><stop offset="1" stop-color="#fff" stop-opacity="0"/></radialGradient><linearGradient id="linear-gradient-6" x1="57.76" y1="12.53" x2="79.11" y2="12.53" gradientUnits="userSpaceOnUse"><stop offset="0" stop-color="#fff"/><stop offset="1" stop-color="#fff" stop-opacity="0.5"/></linearGradient><radialGradient id="radial-gradient-17" cx="67.98" cy="12.53" r="12.53" gradientTransform="translate(0.84) scale(0.99 1)" gradientUnits="userSpaceOnUse"><stop offset="0.22" stop-color="#fff"/><stop offset="0.7" stop-color="#fff" stop-opacity="0"/></radialGradient><radialGradient id="radial-gradient-18" cx="111.98" cy="61.53" r="11.78" xlink:href="#radial-gradient-16"/><linearGradient id="linear-gradient-7" x1="101.51" y1="61.53" x2="122.86" y2="61.53" xlink:href="#linear-gradient-6"/><radialGradient id="radial-gradient-19" cx="111.98" cy="61.53" r="12.53" xlink:href="#radial-gradient-17"/></defs><title>libra</title><g id="Layer_2" data-name="Layer 2"><g id="Layer_1-2" data-name="Layer 1"><line class="cls-1" x1="69.5" y1="14" x2="113.25" y2="62"/><line class="cls-1" x1="89.89" y1="128.5" x2="111.76" y2="64.5"/><line class="cls-1" x1="89.89" y1="128.5" x2="68.01" y2="11.5"/><line class="cls-1" x1="38.18" y1="50.5" x2="67.02" y2="12.5"/><line class="cls-1" x1="37.19" y1="148.5" x2="86.9" y2="130.5"/><line class="cls-1" x1="5.69" y1="66.5" x2="35.91" y2="51.94"/><polygon class="cls-2" points="42.42 149.57 37.42 148.32 35.55 153.13 36.81 148.13 32 146.26 37 147.51 38.86 142.71 37.61 147.71 42.42 149.57"/><circle class="cls-3" cx="37.21" cy="147.92" r="4.24"/><polygon class="cls-4" points="40.22 150.7 37.39 148.33 38.31 151.9 37.21 148.39 36.05 151.89 37.03 148.33 34.16 150.65 36.91 148.19 33.24 148.59 36.88 148 33.58 146.36 36.96 147.83 35.07 144.67 37.12 147.73 37.24 144.05 37.3 147.74 39.4 144.7 37.46 147.84 40.86 146.42 37.54 148.01 41.17 148.65 37.51 148.19 40.22 150.7"/><polygon class="cls-5" points="94.59 130.57 89.62 129.32 87.77 134.13 89.01 129.13 84.23 127.26 89.2 128.51 91.05 123.71 89.81 128.71 94.59 130.57"/><ellipse class="cls-6" cx="89.41" cy="128.92" rx="4.21" ry="4.24"/><polygon class="cls-7" points="92.4 131.7 89.59 129.33 90.5 132.9 89.41 129.39 88.26 132.89 89.23 129.33 86.38 131.65 89.11 129.19 85.47 129.59 89.08 129 85.8 127.36 89.16 128.83 87.28 125.67 89.32 128.73 89.44 125.05 89.51 128.74 91.59 125.7 89.66 128.84 93.04 127.42 89.74 129.01 93.34 129.65 89.71 129.19 92.4 131.7"/><polygon class="cls-8" points="42.42 52.57 37.42 51.32 35.55 56.13 36.81 51.13 32 49.26 37 50.51 38.86 45.71 37.61 50.71 42.42 52.57"/><circle class="cls-9" cx="37.21" cy="50.92" r="4.24"/><polygon class="cls-10" points="40.22 53.7 37.39 51.33 38.31 54.9 37.21 51.39 36.05 54.89 37.03 51.33 34.16 53.65 36.91 51.19 33.24 51.59 36.88 51 33.58 49.36 36.96 50.83 35.07 47.67 37.12 50.73 37.24 47.05 37.3 50.73 39.4 47.7 37.46 50.84 40.86 49.42 37.54 51.01 41.17 51.65 37.51 51.19 40.22 53.7"/><polygon class="cls-11" points="39.42 161.57 34.42 160.32 32.55 165.13 33.81 160.13 29 158.26 34 159.51 35.86 154.71 34.61 159.71 39.42 161.57"/><circle class="cls-12" cx="34.21" cy="159.92" r="4.24"/><polygon class="cls-13" points="37.22 162.7 34.39 160.33 35.31 163.9 34.21 160.39 33.05 163.89 34.03 160.33 31.16 162.65 33.91 160.19 30.24 160.59 33.88 160 30.58 158.36 33.96 159.83 32.07 156.67 34.12 159.73 34.24 156.05 34.3 159.74 36.4 156.7 34.46 159.84 37.86 158.42 34.54 160.01 38.17 160.65 34.51 160.19 37.22 162.7"/><line class="cls-1" x1="34.48" y1="158.1" x2="36.89" y2="149.9"/><polygon class="cls-14" points="10.42 68.57 5.42 67.32 3.56 72.13 4.81 67.13 0 65.26 5 66.51 6.86 61.71 5.61 66.71 10.42 68.57"/><circle class="cls-15" cx="5.21" cy="66.92" r="4.24"/><polygon class="cls-16" points="8.21 69.7 5.39 67.33 6.31 70.9 5.21 67.39 4.05 70.89 5.03 67.33 2.17 69.65 4.91 67.19 1.24 67.59 4.88 67 1.58 65.36 4.96 66.83 3.07 63.67 5.12 66.73 5.24 63.05 5.3 66.73 7.4 63.7 5.46 66.84 8.86 65.42 5.54 67.01 9.17 67.65 5.51 67.19 8.21 69.7"/><polygon class="cls-17" points="68.44 0.75 68.69 11.59 74.29 2.33 69.13 11.84 78.58 6.64 69.38 12.28 80.15 12.53 69.38 12.78 78.58 18.42 69.13 13.22 74.29 22.73 68.69 13.47 68.44 24.31 68.19 13.47 62.58 22.73 67.75 13.22 58.3 18.42 67.5 12.78 56.73 12.53 67.5 12.28 58.3 6.64 67.75 11.84 62.58 2.33 68.19 11.59 68.44 0.75"/><polygon class="cls-18" points="78.94 23.26 68.43 13.78 57.76 23.09 67.19 12.52 57.94 1.8 68.45 11.28 79.11 1.97 69.68 12.54 78.94 23.26"/><ellipse class="cls-19" cx="68.44" cy="12.53" rx="12.46" ry="12.53"/><polygon class="cls-20" points="112.19 49.75 112.44 60.59 118.04 51.33 112.88 60.84 122.33 55.64 113.13 61.28 123.9 61.53 113.13 61.78 122.33 67.42 112.88 62.22 118.04 71.73 112.44 62.48 112.19 73.31 111.94 62.48 106.33 71.73 111.5 62.22 102.05 67.42 111.25 61.78 100.48 61.53 111.25 61.28 102.05 55.64 111.5 60.84 106.33 51.33 111.94 60.59 112.19 49.75"/><polygon class="cls-21" points="122.69 72.26 112.18 62.78 101.51 72.09 110.94 61.52 101.69 50.8 112.2 60.28 122.86 50.97 113.43 61.54 122.69 72.26"/><ellipse class="cls-22" cx="112.19" cy="61.53" rx="12.46" ry="12.53"/></g></g></svg>