<svg xmlns="http://www.w3.org/2000/svg" xmlns:xlink="http://www.w3.org/1999/xlink" viewBox="0 0 142.96 163.12"><defs><style>.cls-1{fill:none;stroke:#fcfcfa;stroke-width:0.25px;}.cls-1,.cls-10,.cls-13,.cls-16,.cls-19,.cls-22,.cls-25,.cls-31,.cls-34,.cls-37,.cls-40,.cls-43,.cls-46,.cls-49,.cls-7{stroke-miterlimit:10;}.cls-2{fill:url(#radial-gradient);}.cls-3{fill:url(#linear-gradient);}.cls-4{fill:url(#radial-gradient-2);}.cls-5{fill:url(#linear-gradient-2);}.cls-6{fill:url(#radial-gradient-3);}.cls-7{fill:url(#radial-gradient-4);stroke:url(#radial-gradient-5);}.cls-8{fill:url(#linear-gradient-3);}.cls-9{fill:url(#radial-gradient-6);}.cls-10{fill:url(#radial-gradient-7);stroke:url(#radial-gradient-8);}.cls-11{fill:url(#linear-gradient-4);}.cls-12{fill:url(#radial-gradient-9);}.cls-13{fill:url(#radial-gradient-10);stroke:url(#radial-gradient-11);}.cls-14{fill:url(#linear-gradient-5);}.cls-15{fill:url(#radial-gradient-12);}.cls-16{fill:url(#radial-gradient-13);stroke:url(#radial-gradient-14);}.cls-17{fill:url(#linear-gradient-6);}.cls-18{fill:url(#radial-gradient-15);}.cls-19{fill:url(#radial-gradient-16);stroke:url(#radial-gradient-17);}.cls-20{fill:url(#linear-gradient-7);}.cls-21{fill:url(#radial-gradient-18);}.cls-22{fill:url(#radial-gradient-19);stroke:url(#radial-gradient-20);}.cls-23{fill:url(#linear-gradient-8);}.cls-24{fill:url(#radial-gradient-21);}.cls-25{fill:url(#radial-gradient-22);stroke:url(#radial-gradient-23);}.cls-26{fill:url(#radial-gradient-24);}.cls-27{fill:url(#linear-gradient-9);}.cls-28{fill:url(#radial-gradient-25);}.cls-29{fill:url(#linear-gradient-10);}.cls-30{fill:url(#radial-gradient-26);}.cls-31{fill:url(#radial-gradient-27);stroke:url(#radial-gradient-28);}.cls-32{fill:url(#linear-gradient-11);}.cls-33{fill:url(#radial-gradient-29);}.cls-34{fill:url(#radial-gradient-30);stroke:url(#radial-gradient-31);}.cls-35{fill:url(#linear-gradient-12);}.cls-36{fill:url(#radial-gradient-32);}.cls-37{fill:url(#radial-gradient-33);stroke:url(#radial-gradient-34);}.cls-38{fill:url(#linear-gradient-13);}.cls-39{fill:url(#radial-gradient-35);}.cls-40{fill:url(#radial-gradient-36);stroke:url(#radial-gradient-37);}.cls-41{fill:url(#linear-gradient-14);}.cls-42{fill:url(#radial-gradient-38);}.cls-43{fill:url(#radial-gradient-39);stroke:url(#radial-gradient-40);}.cls-44{fill:url(#linear-gradient-15);}.cls-45{fill:url(#radial-gradient-41);}.cls-46{fill:url(#radial-gradient-42);stroke:url(#radial-gradient-43);}.cls-47{fill:url(#linear-gradient-16);}.cls-48{fill:url(#radial-gradient-44);}.cls-49{fill:url(#radial-gradient-45);stroke:url(#radial-gradient-46);}.cls-50{fill:url(#radial-gradient-47);}.cls-51{fill:url(#linear-gradient-17);}.cls-52{fill:url(#radial-gradient-48);}</style><radialGradient id="radial-gradient" cx="128.41" cy="152.18" r="10.28" gradientTransform="translate(4.41) scale(0.99 1)" gradientUnits="userSpaceOnUse"><stop offset="0.27" stop-color="#fff"/><stop offset="1" stop-color="#fff" stop-opacity="0"/></radialGradient><linearGradient id="linear-gradient" x1="122.78" y1="152.18" x2="141.4" y2="152.18" gradientUnits="userSpaceOnUse"><stop offset="0" stop-color="#fff"/><stop offset="1" stop-color="#fff" stop-opacity="0.5"/></linearGradient><radialGradient id="radial-gradient-2" cx="128.41" cy="152.18" r="10.93" gradientTransform="translate(4.41) scale(0.99 1)" gradientUnits="userSpaceOnUse"><stop offset="0.22" stop-color="#fff"/><stop offset="0.7" stop-color="#fff" stop-opacity="0"/></radialGradient><linearGradient id="linear-gradient-2" x1="77.69" y1="24.16" x2="89.54" y2="24.16" gradientUnits="userSpaceOnUse"><stop offset="0.2" stop-color="#fff"/><stop offset="0.94" stop-color="#fff" stop-opacity="0.5"/><stop offset="0.97" stop-color="#fff"/></linearGradient><radialGradient id="radial-gradient-3" cx="83.62" cy="24.16" r="4.82" gradientUnits="userSpaceOnUse"><stop offset="0.42" stop-color="#fff"/><stop offset="0.82" stop-color="#fff" stop-opacity="0"/></radialGradient><radialGradient id="radial-gradient-4" cx="83.61" cy="24.23" r="4.49" gradientUnits="userSpaceOnUse"><stop offset="0.23" stop-color="#fff"/><stop offset="0.94" stop-color="#fff" stop-opacity="0"/></radialGradient><radialGradient id="radial-gradient-5" cx="83.61" cy="24.3" r="4.57" gradientUnits="userSpaceOnUse"><stop offset="0.31" stop-color="#fff"/><stop offset="0.82" stop-color="#fff" stop-opacity="0"/></radialGradient><linearGradient id="linear-gradient-3" x1="74.96" y1="8.75" x2="88.16" y2="8.75" xlink:href="#linear-gradient-2"/><radialGradient id="radial-gradient-6" cx="81.56" cy="8.75" r="5.37" xlink:href="#radial-gradient-3"/><radialGradient id="radial-gradient-7" cx="81.56" cy="8.83" r="5" xlink:href="#radial-gradient-4"/><radialGradient id="radial-gradient-8" cx="81.56" cy="8.9" r="5.08" xlink:href="#radial-gradient-5"/><linearGradient id="linear-gradient-4" x1="74.81" y1="-32.55" x2="84.61" y2="-32.55" gradientTransform="matrix(0.99, 0.14, -0.14, 0.99, -16.2, 26.13)" xlink:href="#linear-gradient-2"/><radialGradient id="radial-gradient-9" cx="79.71" cy="-32.55" r="3.99" gradientTransform="matrix(0.99, 0.14, -0.14, 0.99, -16.2, 26.13)" xlink:href="#radial-gradient-3"/><radialGradient id="radial-gradient-10" cx="79.71" cy="-32.5" r="3.71" gradientTransform="matrix(0.99, 0.14, -0.14, 0.99, -16.2, 26.13)" xlink:href="#radial-gradient-4"/><radialGradient id="radial-gradient-11" cx="79.71" cy="-32.43" r="3.79" gradientTransform="matrix(0.99, 0.14, -0.14, 0.99, -16.2, 26.13)" xlink:href="#radial-gradient-5"/><linearGradient id="linear-gradient-5" x1="69.26" y1="-26.35" x2="75.26" y2="-26.35" gradientTransform="matrix(0.99, 0.14, -0.14, 0.99, -16.2, 26.13)" xlink:href="#linear-gradient-2"/><radialGradient id="radial-gradient-12" cx="72.26" cy="-26.35" r="2.44" gradientTransform="matrix(0.99, 0.14, -0.14, 0.99, -16.2, 26.13)" xlink:href="#radial-gradient-3"/><radialGradient id="radial-gradient-13" cx="72.26" cy="-26.32" r="2.27" gradientTransform="matrix(0.99, 0.14, -0.14, 0.99, -16.2, 26.13)" xlink:href="#radial-gradient-4"/><radialGradient id="radial-gradient-14" cx="72.26" cy="-26.25" r="2.36" gradientTransform="matrix(0.99, 0.14, -0.14, 0.99, -16.2, 26.13)" xlink:href="#radial-gradient-5"/><linearGradient id="linear-gradient-6" x1="49.95" y1="21.08" x2="61.81" y2="21.08" xlink:href="#linear-gradient-2"/><radialGradient id="radial-gradient-15" cx="55.88" cy="21.08" r="4.82" xlink:href="#radial-gradient-3"/><radialGradient id="radial-gradient-16" cx="55.88" cy="21.15" r="4.49" xlink:href="#radial-gradient-4"/><radialGradient id="radial-gradient-17" cx="55.88" cy="21.22" r="4.57" xlink:href="#radial-gradient-5"/><linearGradient id="linear-gradient-7" x1="77.41" y1="-5.81" x2="85.15" y2="-5.81" gradientTransform="matrix(0.99, 0.14, -0.14, 0.99, -16.2, 26.13)" xlink:href="#linear-gradient-2"/><radialGradient id="radial-gradient-18" cx="81.28" cy="-5.81" r="3.15" gradientTransform="matrix(0.99, 0.14, -0.14, 0.99, -16.2, 26.13)" xlink:href="#radial-gradient-3"/><radialGradient id="radial-gradient-19" cx="81.28" cy="-5.77" r="2.93" gradientTransform="matrix(0.99, 0.14, -0.14, 0.99, -16.2, 26.13)" xlink:href="#radial-gradient-4"/><radialGradient id="radial-gradient-20" cx="81.28" cy="-5.7" r="3.01" gradientTransform="matrix(0.99, 0.14, -0.14, 0.99, -16.2, 26.13)" xlink:href="#radial-gradient-5"/><linearGradient id="linear-gradient-8" x1="91.06" y1="-4.56" x2="98.8" y2="-4.56" gradientTransform="matrix(0.99, 0.14, -0.14, 0.99, -16.2, 26.13)" xlink:href="#linear-gradient-2"/><radialGradient id="radial-gradient-21" cx="94.93" cy="-4.56" r="3.15" gradientTransform="matrix(0.99, 0.14, -0.14, 0.99, -16.2, 26.13)" xlink:href="#radial-gradient-3"/><radialGradient id="radial-gradient-22" cx="94.93" cy="-4.52" r="2.93" gradientTransform="matrix(0.99, 0.14, -0.14, 0.99, -16.2, 26.13)" xlink:href="#radial-gradient-4"/><radialGradient id="radial-gradient-23" cx="94.93" cy="-4.45" r="3.01" gradientTransform="matrix(0.99, 0.14, -0.14, 0.99, -16.2, 26.13)" xlink:href="#radial-gradient-5"/><radialGradient id="radial-gradient-24" cx="65.38" cy="49.45" r="10.28" xlink:href="#radial-gradient"/><linearGradient id="linear-gradient-9" x1="60.11" y1="49.45" x2="78.74" y2="49.45" xlink:href="#linear-gradient"/><radialGradient id="radial-gradient-25" cx="65.38" cy="49.45" r="10.93" xlink:href="#radial-gradient-2"/><linearGradient id="linear-gradient-10" x1="107.11" y1="52.35" x2="114.85" y2="52.35" gradientTransform="matrix(0.99, 0.14, -0.14, 0.99, -16.2, 26.13)" xlink:href="#linear-gradient-2"/><radialGradient id="radial-gradient-26" cx="110.98" cy="52.35" r="3.15" gradientTransform="matrix(0.99, 0.14, -0.14, 0.99, -16.2, 26.13)" xlink:href="#radial-gradient-3"/><radialGradient id="radial-gradient-27" cx="110.98" cy="52.39" r="2.93" gradientTransform="matrix(0.99, 0.14, -0.14, 0.99, -16.2, 26.13)" xlink:href="#radial-gradient-4"/><radialGradient id="radial-gradient-28" cx="110.98" cy="52.46" r="3.01" gradientTransform="matrix(0.99, 0.14, -0.14, 0.99, -16.2, 26.13)" xlink:href="#radial-gradient-5"/><linearGradient id="linear-gradient-11" x1="111.71" y1="64.61" x2="128.12" y2="64.61" gradientTransform="matrix(0.99, 0.14, -0.14, 0.99, -16.2, 26.13)" xlink:href="#linear-gradient-2"/><radialGradient id="radial-gradient-29" cx="119.91" cy="64.61" r="6.68" gradientTransform="matrix(0.99, 0.14, -0.14, 0.99, -16.2, 26.13)" xlink:href="#radial-gradient-3"/><radialGradient id="radial-gradient-30" cx="119.9" cy="64.7" r="6.21" gradientTransform="matrix(0.99, 0.14, -0.14, 0.99, -16.2, 26.13)" xlink:href="#radial-gradient-4"/><radialGradient id="radial-gradient-31" cx="119.91" cy="64.77" r="6.3" gradientTransform="matrix(0.99, 0.14, -0.14, 0.99, -16.2, 26.13)" xlink:href="#radial-gradient-5"/><linearGradient id="linear-gradient-12" x1="140.28" y1="90.33" x2="148.02" y2="90.33" gradientTransform="matrix(0.99, 0.14, -0.14, 0.99, -16.2, 26.13)" xlink:href="#linear-gradient-2"/><radialGradient id="radial-gradient-32" cx="144.15" cy="90.33" r="3.15" gradientTransform="matrix(0.99, 0.14, -0.14, 0.99, -16.2, 26.13)" xlink:href="#radial-gradient-3"/><radialGradient id="radial-gradient-33" cx="144.15" cy="90.38" r="2.93" gradientTransform="matrix(0.99, 0.14, -0.14, 0.99, -16.2, 26.13)" xlink:href="#radial-gradient-4"/><radialGradient id="radial-gradient-34" cx="144.15" cy="90.44" r="3.01" gradientTransform="matrix(0.99, 0.14, -0.14, 0.99, -16.2, 26.13)" xlink:href="#radial-gradient-5"/><linearGradient id="linear-gradient-13" x1="130.55" y1="102.92" x2="140.45" y2="102.92" gradientTransform="matrix(0.99, 0.14, -0.14, 0.99, -16.2, 26.13)" xlink:href="#linear-gradient-2"/><radialGradient id="radial-gradient-35" cx="135.5" cy="102.92" r="4.03" gradientTransform="matrix(0.99, 0.14, -0.14, 0.99, -16.2, 26.13)" xlink:href="#radial-gradient-3"/><radialGradient id="radial-gradient-36" cx="135.5" cy="102.97" r="3.75" gradientTransform="matrix(0.99, 0.14, -0.14, 0.99, -16.2, 26.13)" xlink:href="#radial-gradient-4"/><radialGradient id="radial-gradient-37" cx="135.5" cy="103.04" r="3.83" gradientTransform="matrix(0.99, 0.14, -0.14, 0.99, -16.2, 26.13)" xlink:href="#radial-gradient-5"/><linearGradient id="linear-gradient-14" x1="98.43" y1="98.34" x2="119.18" y2="98.34" gradientTransform="translate(-16.14 30.79) rotate(9.27)" xlink:href="#linear-gradient-2"/><radialGradient id="radial-gradient-38" cx="108.81" cy="98.34" r="8.44" gradientTransform="translate(-16.14 30.79) rotate(9.27)" xlink:href="#radial-gradient-3"/><radialGradient id="radial-gradient-39" cx="108.8" cy="98.46" r="7.85" gradientTransform="translate(-16.14 30.79) rotate(9.27)" xlink:href="#radial-gradient-4"/><radialGradient id="radial-gradient-40" cx="108.8" cy="98.53" r="7.94" gradientTransform="translate(-16.14 30.79) rotate(9.27)" xlink:href="#radial-gradient-5"/><linearGradient id="linear-gradient-15" x1="64.39" y1="111.94" x2="74.29" y2="111.94" gradientTransform="matrix(0.99, 0.14, -0.14, 0.99, -16.2, 26.13)" xlink:href="#linear-gradient-2"/><radialGradient id="radial-gradient-41" cx="69.34" cy="111.94" r="4.03" gradientTransform="matrix(0.99, 0.14, -0.14, 0.99, -16.2, 26.13)" xlink:href="#radial-gradient-3"/><radialGradient id="radial-gradient-42" cx="69.34" cy="111.99" r="3.75" gradientTransform="matrix(0.99, 0.14, -0.14, 0.99, -16.2, 26.13)" xlink:href="#radial-gradient-4"/><radialGradient id="radial-gradient-43" cx="69.34" cy="112.06" r="3.83" gradientTransform="matrix(0.99, 0.14, -0.14, 0.99, -16.2, 26.13)" xlink:href="#radial-gradient-5"/><linearGradient id="linear-gradient-16" x1="55.59" y1="123.5" x2="65.5" y2="123.5" gradientTransform="matrix(0.99, 0.14, -0.14, 0.99, -16.2, 26.13)" xlink:href="#linear-gradient-2"/><radialGradient id="radial-gradient-44" cx="60.55" cy="123.5" r="4.03" gradientTransform="matrix(0.99, 0.14, -0.14, 0.99, -16.2, 26.13)" xlink:href="#radial-gradient-3"/><radialGradient id="radial-gradient-45" cx="60.55" cy="123.56" r="3.75" gradientTransform="matrix(0.99, 0.14, -0.14, 0.99, -16.2, 26.13)" xlink:href="#radial-gradient-4"/><radialGradient id="radial-gradient-46" cx="60.55" cy="123.62" r="3.83" gradientTransform="matrix(0.99, 0.14, -0.14, 0.99, -16.2, 26.13)" xlink:href="#radial-gradient-5"/><radialGradient id="radial-gradient-47" cx="6.5" cy="150.13" r="10.28" xlink:href="#radial-gradient"/><linearGradient id="linear-gradient-17" x1="1.56" y1="150.13" x2="20.19" y2="150.13" xlink:href="#linear-gradient"/><radialGradient id="radial-gradient-48" cx="6.5" cy="150.13" r="10.93" xlink:href="#radial-gradient-2"/></defs><title>pisces</title><g id="Layer_2" data-name="Layer 2"><g id="Layer_1-2" data-name="Layer 1"><line class="cls-1" x1="69" y1="4.06" x2="80.3" y2="7.14"/><line class="cls-1" x1="82.87" y1="9.71" x2="83.89" y2="22.04"/><line class="cls-1" x1="83.89" y1="25.12" x2="78.76" y2="34.36"/><line class="cls-1" x1="78.06" y1="35.12" x2="65.06" y2="32.12"/><line class="cls-1" x1="64.38" y1="31.28" x2="57.19" y2="22.04"/><line class="cls-1" x1="56.16" y1="21.01" x2="58.21" y2="10.74"/><line class="cls-1" x1="59.24" y1="8.68" x2="66.43" y2="4.57"/><line class="cls-1" x1="68.49" y1="47.72" x2="65.06" y2="32.12"/><line class="cls-1" x1="87.06" y1="93.12" x2="69.54" y2="50.85"/><line class="cls-1" x1="92.11" y1="104.22" x2="86.98" y2="93.94"/><line class="cls-1" x1="113.68" y1="134.01" x2="94.17" y2="109.35"/><line class="cls-1" x1="130.12" y1="149.42" x2="115.74" y2="136.06"/><line class="cls-1" x1="130.12" y1="152.5" x2="105.47" y2="146.33"/><line class="cls-1" x1="102.9" y1="146.33" x2="76.19" y2="146.33"/><line class="cls-1" x1="71.57" y1="145.31" x2="37.67" y2="146.33"/><line class="cls-1" x1="36.64" y1="147.36" x2="27.39" y2="156.61"/><line class="cls-1" x1="26.37" y1="156.63" x2="12.06" y2="150.12"/><polygon class="cls-2" points="132.09 141.9 132.31 151.36 137.2 143.28 132.69 151.58 140.94 147.04 132.91 151.96 142.31 152.18 132.91 152.4 140.94 157.32 132.69 152.78 137.2 161.08 132.31 153 132.09 162.46 131.87 153 126.98 161.08 131.49 152.78 123.24 157.32 131.27 152.4 121.87 152.18 131.27 151.96 123.24 147.04 131.49 151.58 126.98 143.28 131.87 151.36 132.09 141.9"/><polygon class="cls-3" points="141.25 161.55 132.08 153.27 122.78 161.4 131 152.17 122.92 142.81 132.1 151.09 141.4 142.96 133.18 152.19 141.25 161.55"/><ellipse class="cls-4" cx="132.09" cy="152.18" rx="10.87" ry="10.93"/><polygon class="cls-5" points="89.54 26.05 83.85 24.62 81.73 30.09 83.16 24.4 77.69 22.28 83.38 23.7 85.5 18.24 84.08 23.93 89.54 26.05"/><circle class="cls-6" cx="83.62" cy="24.16" r="4.82"/><polygon class="cls-7" points="87.04 27.33 83.82 24.64 84.87 28.7 83.61 24.7 82.3 28.68 83.41 24.64 80.15 27.28 83.27 24.47 79.1 24.93 83.24 24.26 79.49 22.4 83.33 24.07 81.18 20.47 83.51 23.95 83.65 19.76 83.72 23.96 86.11 20.5 83.9 24.07 87.77 22.46 83.99 24.27 88.12 25 83.96 24.48 87.04 27.33"/><polygon class="cls-8" points="88.17 10.85 81.83 9.27 79.47 15.36 81.05 9.02 74.96 6.66 81.3 8.24 83.66 2.15 82.07 8.49 88.17 10.85"/><circle class="cls-9" cx="81.56" cy="8.75" r="5.37"/><polygon class="cls-10" points="85.37 12.28 81.79 9.28 82.96 13.81 81.56 9.35 80.1 13.79 81.33 9.28 77.7 12.22 81.18 9.1 76.53 9.61 81.14 8.86 76.96 6.79 81.25 8.65 78.85 4.64 81.45 8.52 81.6 3.85 81.68 8.52 84.34 4.68 81.88 8.65 86.19 6.85 81.98 8.87 86.58 9.69 81.94 9.11 85.37 12.28"/><polygon class="cls-11" points="71.83 6.85 67.32 5.05 64.98 9.29 66.78 4.79 62.53 2.44 67.04 4.24 69.38 0 67.58 4.5 71.83 6.85"/><circle class="cls-12" cx="67.18" cy="4.65" r="3.99"/><polygon class="cls-13" points="69.63 7.62 67.29 5.06 67.7 8.5 67.12 5.08 65.6 8.2 66.96 5.01 63.99 6.81 66.86 4.86 63.4 4.77 66.86 4.68 63.99 2.74 66.96 4.54 65.6 1.35 67.12 4.46 67.7 1.04 67.29 4.49 69.63 1.93 67.43 4.6 70.78 3.71 67.47 4.77 70.78 5.83 67.43 4.94 69.63 7.62"/><polygon class="cls-14" points="61.81 11.13 59.05 10.03 57.61 12.63 58.72 9.87 56.12 8.43 58.87 9.54 60.31 6.94 59.21 9.69 61.81 11.13"/><circle class="cls-15" cx="58.96" cy="9.78" r="2.44"/><polygon class="cls-16" points="60.46 11.6 59.03 10.03 59.28 12.14 58.92 10.05 57.99 11.96 58.83 10.01 57.01 11.11 58.77 9.91 56.64 9.86 58.77 9.81 57.01 8.61 58.83 9.71 57.99 7.76 58.92 9.67 59.28 7.58 59.03 9.69 60.46 8.12 59.11 9.76 61.16 9.21 59.14 9.86 61.16 10.51 59.11 9.96 60.46 11.6"/><polygon class="cls-17" points="61.81 22.96 56.12 21.54 54 27.01 55.42 21.32 49.95 19.2 55.64 20.62 57.76 15.15 56.34 20.84 61.81 22.96"/><circle class="cls-18" cx="55.88" cy="21.08" r="4.82"/><polygon class="cls-19" points="59.3 24.25 56.08 21.56 57.13 25.62 55.88 21.61 54.56 25.6 55.67 21.55 52.42 24.2 55.53 21.39 51.37 21.85 55.51 21.18 51.75 19.32 55.6 20.99 53.45 17.39 55.78 20.87 55.91 16.68 55.99 20.88 58.37 17.42 56.17 20.99 60.04 19.37 56.26 21.19 60.38 21.92 56.22 21.4 59.3 24.25"/><polygon class="cls-20" points="68.8 33.09 65.24 31.67 63.38 35.02 64.81 31.47 61.46 29.61 65.01 31.04 66.87 27.68 65.44 31.24 68.8 33.09"/><circle class="cls-21" cx="65.13" cy="31.35" r="3.15"/><polygon class="cls-22" points="67.06 33.7 65.21 31.68 65.53 34.4 65.08 31.7 63.88 34.16 64.95 31.64 62.61 33.06 64.87 31.52 62.14 31.45 64.87 31.39 62.61 29.85 64.95 31.27 63.88 28.75 65.08 31.21 65.53 28.51 65.21 31.23 67.06 29.21 65.32 31.32 67.97 30.62 65.36 31.45 67.97 32.29 65.32 31.59 67.06 33.7"/><polygon class="cls-23" points="82.15 36.18 78.59 34.75 76.74 38.11 78.16 34.55 74.81 32.7 78.37 34.12 80.22 30.77 78.8 34.32 82.15 36.18"/><circle class="cls-24" cx="78.48" cy="34.44" r="3.15"/><polygon class="cls-25" points="80.41 36.78 78.57 34.76 78.89 37.48 78.43 34.78 77.23 37.24 78.3 34.72 75.96 36.15 78.23 34.61 75.49 34.54 78.23 34.47 75.96 32.93 78.3 34.35 77.23 31.83 78.43 34.29 78.89 31.59 78.57 34.31 80.41 32.29 78.67 34.4 81.32 33.7 78.71 34.54 81.32 35.37 78.67 34.67 80.41 36.78"/><polygon class="cls-26" points="69.43 39.18 69.65 48.63 74.53 40.55 70.03 48.85 78.28 44.32 70.25 49.23 79.64 49.45 70.25 49.67 78.28 54.59 70.03 50.06 74.53 58.35 69.65 50.28 69.43 59.73 69.21 50.28 64.32 58.35 68.83 50.06 60.58 54.59 68.61 49.67 59.21 49.45 68.61 49.23 60.58 44.32 68.83 48.85 64.32 40.55 69.21 48.63 69.43 39.18"/><polygon class="cls-27" points="78.59 58.82 69.42 50.55 60.11 58.67 68.34 49.45 60.26 40.09 69.44 48.36 78.74 40.24 70.51 49.46 78.59 58.82"/><ellipse class="cls-28" cx="69.43" cy="49.45" rx="10.87" ry="10.93"/><polygon class="cls-29" points="90.37 94.73 86.81 93.31 84.96 96.66 86.38 93.1 83.03 91.25 86.58 92.67 88.44 89.32 87.02 92.88 90.37 94.73"/><circle class="cls-30" cx="86.7" cy="92.99" r="3.15"/><polygon class="cls-31" points="88.63 95.34 86.79 93.31 87.11 96.03 86.65 93.33 85.45 95.8 86.52 93.28 84.18 94.7 86.45 93.16 83.71 93.09 86.45 93.02 84.18 91.48 86.52 92.9 85.45 90.39 86.65 92.85 87.11 90.15 86.79 92.87 88.63 90.84 86.89 92.96 89.54 92.25 86.93 93.09 89.54 93.93 86.89 93.22 88.63 95.34"/><polygon class="cls-32" points="101.67 110.03 94.13 107.02 90.2 114.12 93.22 106.58 86.11 102.66 93.65 105.67 97.58 98.57 94.56 106.11 101.67 110.03"/><circle class="cls-33" cx="93.89" cy="106.35" r="6.68"/><polygon class="cls-34" points="97.99 111.32 94.08 107.03 94.76 112.8 93.78 107.08 91.24 112.29 93.52 106.95 88.56 109.97 93.36 106.7 87.55 106.56 93.36 106.41 88.56 103.15 93.52 106.16 91.24 100.82 93.78 106.04 94.76 100.32 94.08 106.08 97.99 101.79 94.3 106.27 99.91 104.78 94.38 106.56 99.91 108.33 94.3 106.84 97.99 111.32"/><polygon class="cls-35" points="118.1 136.85 114.55 135.43 112.69 138.78 114.12 135.22 110.77 133.37 114.32 134.79 116.17 131.44 114.75 135 118.1 136.85"/><circle class="cls-36" cx="114.43" cy="135.11" r="3.15"/><polygon class="cls-37" points="116.37 137.46 114.52 135.43 114.84 138.15 114.39 135.45 113.19 137.91 114.26 135.4 111.92 136.82 114.18 135.28 111.45 135.21 114.18 135.14 111.92 133.6 114.26 135.02 113.18 132.5 114.39 134.96 114.84 132.26 114.52 134.98 116.37 132.96 114.63 135.07 117.27 134.37 114.67 135.21 117.27 136.05 114.63 135.34 116.37 137.46"/><polygon class="cls-38" points="108.86 148.64 104.31 146.81 101.93 151.1 103.75 146.55 99.47 144.18 104.02 146 106.39 141.71 104.57 146.26 108.86 148.64"/><circle class="cls-39" cx="104.16" cy="146.41" r="4.03"/><polygon class="cls-40" points="106.64 149.41 104.28 146.82 104.69 150.31 104.1 146.85 102.56 150 103.94 146.78 100.94 148.59 103.84 146.63 100.34 146.54 103.84 146.45 100.94 144.48 103.94 146.3 102.56 143.07 104.1 146.22 104.69 142.77 104.28 146.25 106.64 143.66 104.41 146.37 107.8 145.46 104.46 146.54 107.8 147.61 104.41 146.71 106.64 149.41"/><polygon class="cls-41" points="85.1 150.3 75.68 146.24 70.48 155.09 74.54 145.66 65.69 140.46 75.12 144.52 80.32 135.68 76.26 145.1 85.1 150.3"/><circle class="cls-42" cx="75.4" cy="145.38" r="8.44"/><polygon class="cls-43" points="80.41 151.81 75.61 146.26 76.28 153.56 75.24 146.3 71.85 152.81 74.91 146.14 68.54 149.78 74.71 145.82 67.39 145.44 74.72 145.44 68.76 141.16 74.93 145.14 72.23 138.31 75.28 144.99 76.69 137.79 75.64 145.05 80.73 139.76 75.92 145.31 83.06 143.6 76.02 145.67 82.94 148.09 75.9 146.02 80.41 151.81"/><polygon class="cls-44" points="42.09 148.64 37.53 146.81 35.16 151.1 36.98 146.55 32.69 144.18 37.24 146 39.62 141.71 37.8 146.26 42.09 148.64"/><circle class="cls-45" cx="37.39" cy="146.41" r="4.03"/><polygon class="cls-46" points="39.87 149.41 37.5 146.82 37.91 150.31 37.33 146.85 35.79 150 37.16 146.78 34.17 148.59 37.07 146.63 33.56 146.54 37.07 146.45 34.17 144.48 37.16 146.3 35.79 143.07 37.33 146.22 37.91 142.77 37.5 146.25 39.86 143.66 37.64 146.37 41.02 145.46 37.69 146.54 41.02 147.61 37.64 146.71 39.87 149.41"/><polygon class="cls-47" points="31.81 158.91 27.26 157.09 24.89 161.38 26.71 156.83 22.42 154.45 26.97 156.27 29.34 151.98 27.52 156.54 31.81 158.91"/><circle class="cls-48" cx="27.12" cy="156.68" r="4.03"/><polygon class="cls-49" points="29.59 159.69 27.23 157.1 27.64 160.58 27.05 157.12 25.52 160.27 26.89 157.05 23.9 158.87 26.8 156.9 23.29 156.81 26.8 156.72 23.9 154.75 26.89 156.57 25.52 153.35 27.05 156.5 27.64 153.04 27.23 156.52 29.59 153.93 27.36 156.64 30.75 155.74 27.41 156.81 30.75 157.88 27.36 156.98 29.59 159.69"/><polygon class="cls-50" points="10.87 139.85 11.09 149.3 15.98 141.23 11.47 149.52 19.72 144.99 11.69 149.91 21.09 150.13 11.69 150.35 19.72 155.26 11.47 150.73 15.98 159.03 11.09 150.95 10.87 160.4 10.65 150.95 5.76 159.03 10.27 150.73 2.02 155.26 10.05 150.35 0.65 150.13 10.05 149.91 2.02 144.99 10.27 149.52 5.76 141.23 10.65 149.3 10.87 139.85"/><polygon class="cls-51" points="20.04 159.49 10.86 151.22 1.56 159.34 9.79 150.12 1.71 140.76 10.88 149.03 20.19 140.91 11.96 150.13 20.04 159.49"/><ellipse class="cls-52" cx="10.87" cy="150.13" rx="10.87" ry="10.93"/></g></g></svg>