<svg xmlns="http://www.w3.org/2000/svg" xmlns:xlink="http://www.w3.org/1999/xlink" viewBox="0 0 133.75 139.97"><defs><style>.cls-1{fill:none;stroke:#fcfcfa;stroke-width:0.25px;}.cls-1,.cls-10,.cls-13,.cls-16,.cls-19,.cls-22,.cls-25,.cls-28,.cls-31,.cls-37,.cls-40,.cls-7{stroke-miterlimit:10;}.cls-2{fill:url(#radial-gradient);}.cls-3{fill:url(#linear-gradient);}.cls-4{fill:url(#radial-gradient-2);}.cls-5{fill:url(#linear-gradient-2);}.cls-6{fill:url(#radial-gradient-3);}.cls-7{fill:url(#radial-gradient-4);stroke:url(#radial-gradient-5);}.cls-8{fill:url(#linear-gradient-3);}.cls-9{fill:url(#radial-gradient-6);}.cls-10{fill:url(#radial-gradient-7);stroke:url(#radial-gradient-8);}.cls-11{fill:url(#linear-gradient-4);}.cls-12{fill:url(#radial-gradient-9);}.cls-13{fill:url(#radial-gradient-10);stroke:url(#radial-gradient-11);}.cls-14{fill:url(#linear-gradient-5);}.cls-15{fill:url(#radial-gradient-12);}.cls-16{fill:url(#radial-gradient-13);stroke:url(#radial-gradient-14);}.cls-17{fill:url(#linear-gradient-6);}.cls-18{fill:url(#radial-gradient-15);}.cls-19{fill:url(#radial-gradient-16);stroke:url(#radial-gradient-17);}.cls-20{fill:url(#linear-gradient-7);}.cls-21{fill:url(#radial-gradient-18);}.cls-22{fill:url(#radial-gradient-19);stroke:url(#radial-gradient-20);}.cls-23{fill:url(#linear-gradient-8);}.cls-24{fill:url(#radial-gradient-21);}.cls-25{fill:url(#radial-gradient-22);stroke:url(#radial-gradient-23);}.cls-26{fill:url(#linear-gradient-9);}.cls-27{fill:url(#radial-gradient-24);}.cls-28{fill:url(#radial-gradient-25);stroke:url(#radial-gradient-26);}.cls-29{fill:url(#linear-gradient-10);}.cls-30{fill:url(#radial-gradient-27);}.cls-31{fill:url(#radial-gradient-28);stroke:url(#radial-gradient-29);}.cls-32{fill:url(#radial-gradient-30);}.cls-33{fill:url(#linear-gradient-11);}.cls-34{fill:url(#radial-gradient-31);}.cls-35{fill:url(#linear-gradient-12);}.cls-36{fill:url(#radial-gradient-32);}.cls-37{fill:url(#radial-gradient-33);stroke:url(#radial-gradient-34);}.cls-38{fill:url(#linear-gradient-13);}.cls-39{fill:url(#radial-gradient-35);}.cls-40{fill:url(#radial-gradient-36);stroke:url(#radial-gradient-37);}.cls-41{fill:url(#radial-gradient-38);}.cls-42{fill:url(#linear-gradient-14);}.cls-43{fill:url(#radial-gradient-39);}</style><radialGradient id="radial-gradient" cx="123.11" cy="20.63" r="8.93" gradientTransform="translate(1.88) scale(0.99 1)" gradientUnits="userSpaceOnUse"><stop offset="0.27" stop-color="#fff"/><stop offset="1" stop-color="#fff" stop-opacity="0"/></radialGradient><linearGradient id="linear-gradient" x1="116.2" y1="20.63" x2="132.39" y2="20.63" gradientUnits="userSpaceOnUse"><stop offset="0" stop-color="#fff"/><stop offset="1" stop-color="#fff" stop-opacity="0.5"/></linearGradient><radialGradient id="radial-gradient-2" cx="123.11" cy="20.63" r="9.51" gradientTransform="translate(1.88) scale(0.99 1)" gradientUnits="userSpaceOnUse"><stop offset="0.22" stop-color="#fff"/><stop offset="0.7" stop-color="#fff" stop-opacity="0"/></radialGradient><linearGradient id="linear-gradient-2" x1="120.29" y1="39.12" x2="129.72" y2="39.12" gradientUnits="userSpaceOnUse"><stop offset="0.2" stop-color="#fff"/><stop offset="0.94" stop-color="#fff" stop-opacity="0.5"/><stop offset="0.97" stop-color="#fff"/></linearGradient><radialGradient id="radial-gradient-3" cx="125.01" cy="39.12" r="3.84" gradientUnits="userSpaceOnUse"><stop offset="0.42" stop-color="#fff"/><stop offset="0.82" stop-color="#fff" stop-opacity="0"/></radialGradient><radialGradient id="radial-gradient-4" cx="125" cy="39.17" r="3.57" gradientUnits="userSpaceOnUse"><stop offset="0.23" stop-color="#fff"/><stop offset="0.94" stop-color="#fff" stop-opacity="0"/></radialGradient><radialGradient id="radial-gradient-5" cx="125.01" cy="39.24" r="3.65" gradientUnits="userSpaceOnUse"><stop offset="0.31" stop-color="#fff"/><stop offset="0.82" stop-color="#fff" stop-opacity="0"/></radialGradient><linearGradient id="linear-gradient-3" x1="115.77" y1="4.72" x2="125.2" y2="4.72" xlink:href="#linear-gradient-2"/><radialGradient id="radial-gradient-6" cx="120.48" cy="4.72" r="3.84" xlink:href="#radial-gradient-3"/><radialGradient id="radial-gradient-7" cx="120.48" cy="4.77" r="3.57" xlink:href="#radial-gradient-4"/><radialGradient id="radial-gradient-8" cx="120.48" cy="4.84" r="3.65" xlink:href="#radial-gradient-5"/><linearGradient id="linear-gradient-4" x1="95.06" y1="35.5" x2="102.45" y2="35.5" xlink:href="#linear-gradient-2"/><radialGradient id="radial-gradient-9" cx="98.75" cy="35.5" r="3.01" xlink:href="#radial-gradient-3"/><radialGradient id="radial-gradient-10" cx="98.75" cy="35.54" r="2.8" xlink:href="#radial-gradient-4"/><radialGradient id="radial-gradient-11" cx="98.75" cy="35.6" r="2.88" xlink:href="#radial-gradient-5"/><linearGradient id="linear-gradient-5" x1="83.29" y1="40.02" x2="92.49" y2="40.02" xlink:href="#linear-gradient-2"/><radialGradient id="radial-gradient-12" cx="87.89" cy="40.02" r="3.74" xlink:href="#radial-gradient-3"/><radialGradient id="radial-gradient-13" cx="87.89" cy="40.07" r="3.48" xlink:href="#radial-gradient-4"/><radialGradient id="radial-gradient-14" cx="87.89" cy="40.14" r="3.57" xlink:href="#radial-gradient-5"/><linearGradient id="linear-gradient-6" x1="77.05" y1="48.17" x2="82.44" y2="48.17" xlink:href="#linear-gradient-2"/><radialGradient id="radial-gradient-15" cx="79.74" cy="48.17" r="2.19" xlink:href="#radial-gradient-3"/><radialGradient id="radial-gradient-16" cx="79.74" cy="48.2" r="2.04" xlink:href="#radial-gradient-4"/><radialGradient id="radial-gradient-17" cx="79.74" cy="48.27" r="2.13" xlink:href="#radial-gradient-5"/><linearGradient id="linear-gradient-7" x1="58.94" y1="81.67" x2="67.95" y2="81.67" xlink:href="#linear-gradient-2"/><radialGradient id="radial-gradient-18" cx="63.45" cy="81.67" r="3.67" xlink:href="#radial-gradient-3"/><radialGradient id="radial-gradient-19" cx="63.44" cy="81.72" r="3.41" xlink:href="#radial-gradient-4"/><radialGradient id="radial-gradient-20" cx="63.45" cy="81.79" r="3.5" xlink:href="#radial-gradient-5"/><linearGradient id="linear-gradient-8" x1="57.94" y1="102.49" x2="63.52" y2="102.49" xlink:href="#linear-gradient-2"/><radialGradient id="radial-gradient-21" cx="60.73" cy="102.49" r="2.27" xlink:href="#radial-gradient-3"/><radialGradient id="radial-gradient-22" cx="60.73" cy="102.52" r="2.11" xlink:href="#radial-gradient-4"/><radialGradient id="radial-gradient-23" cx="60.73" cy="102.59" r="2.2" xlink:href="#radial-gradient-5"/><linearGradient id="linear-gradient-9" x1="56.13" y1="126.03" x2="61.71" y2="126.03" xlink:href="#linear-gradient-2"/><radialGradient id="radial-gradient-24" cx="58.92" cy="126.03" r="2.27" xlink:href="#radial-gradient-3"/><radialGradient id="radial-gradient-25" cx="58.92" cy="126.06" r="2.11" xlink:href="#radial-gradient-4"/><radialGradient id="radial-gradient-26" cx="58.92" cy="126.13" r="2.2" xlink:href="#radial-gradient-5"/><linearGradient id="linear-gradient-10" x1="38.02" y1="132.37" x2="43.6" y2="132.37" xlink:href="#linear-gradient-2"/><radialGradient id="radial-gradient-27" cx="40.81" cy="132.37" r="2.27" xlink:href="#radial-gradient-3"/><radialGradient id="radial-gradient-28" cx="40.81" cy="132.4" r="2.11" xlink:href="#radial-gradient-4"/><radialGradient id="radial-gradient-29" cx="40.82" cy="132.46" r="2.2" xlink:href="#radial-gradient-5"/><radialGradient id="radial-gradient-30" cx="12.94" cy="131.99" r="7.5" xlink:href="#radial-gradient"/><linearGradient id="linear-gradient-11" x1="7.95" y1="131.99" x2="21.55" y2="131.99" xlink:href="#linear-gradient"/><radialGradient id="radial-gradient-31" cx="12.94" cy="131.99" r="7.98" xlink:href="#radial-gradient-2"/><linearGradient id="linear-gradient-12" x1="0" y1="117.88" x2="5.58" y2="117.88" xlink:href="#linear-gradient-2"/><radialGradient id="radial-gradient-32" cx="2.79" cy="117.88" r="2.27" xlink:href="#radial-gradient-3"/><radialGradient id="radial-gradient-33" cx="2.79" cy="117.91" r="2.11" xlink:href="#radial-gradient-4"/><radialGradient id="radial-gradient-34" cx="2.79" cy="117.98" r="2.2" xlink:href="#radial-gradient-5"/><linearGradient id="linear-gradient-13" x1="3.62" y1="111.54" x2="9.2" y2="111.54" xlink:href="#linear-gradient-2"/><radialGradient id="radial-gradient-35" cx="6.41" cy="111.54" r="2.27" xlink:href="#radial-gradient-3"/><radialGradient id="radial-gradient-36" cx="6.41" cy="111.57" r="2.11" xlink:href="#radial-gradient-4"/><radialGradient id="radial-gradient-37" cx="6.41" cy="111.64" r="2.2" xlink:href="#radial-gradient-5"/><radialGradient id="radial-gradient-38" cx="12.94" cy="101.21" r="6.65" xlink:href="#radial-gradient"/><linearGradient id="linear-gradient-14" x1="8.72" y1="101.21" x2="20.78" y2="101.21" xlink:href="#linear-gradient"/><radialGradient id="radial-gradient-39" cx="12.94" cy="101.21" r="7.07" xlink:href="#radial-gradient-2"/></defs><title>scorpio</title><g id="Layer_2" data-name="Layer 2"><g id="Layer_1-2" data-name="Layer 1"><line class="cls-1" x1="125.59" y1="40.06" x2="124.23" y2="21.03"/><line class="cls-1" x1="14.09" y1="101.21" x2="7.07" y2="110.97"/><line class="cls-1" x1="6.85" y1="112.07" x2="3.07" y2="117.97"/><line class="cls-1" x1="3.07" y1="117.97" x2="14.09" y2="131.99"/><line class="cls-1" x1="16.07" y1="131.97" x2="41.25" y2="131.99"/><line class="cls-1" x1="59.07" y1="125.97" x2="41.07" y2="131.97"/><line class="cls-1" x1="61.07" y1="102.97" x2="59.35" y2="126.56"/><line class="cls-1" x1="62.98" y1="82.19" x2="61.07" y2="101.97"/><line class="cls-1" x1="79.27" y1="49.6" x2="63.88" y2="80.38"/><line class="cls-1" x1="87.42" y1="40.55" x2="80.18" y2="47.79"/><line class="cls-1" x1="98.28" y1="36.02" x2="90.14" y2="38.74"/><line class="cls-1" x1="123.63" y1="22.44" x2="100.09" y2="35.12"/><line class="cls-1" x1="124.54" y1="18.82" x2="120.92" y2="5.24"/><polygon class="cls-2" points="124.29 11.7 124.48 19.92 128.74 12.9 124.81 20.11 131.99 16.17 125.01 20.44 133.18 20.63 125.01 20.82 131.99 25.1 124.81 21.16 128.74 28.37 124.48 21.35 124.29 29.57 124.1 21.35 119.85 28.37 123.77 21.16 116.6 25.1 123.58 20.82 115.41 20.63 123.58 20.44 116.6 16.17 123.77 20.11 119.85 12.9 124.1 19.92 124.29 11.7"/><polygon class="cls-3" points="132.26 28.78 124.29 21.58 116.2 28.65 123.35 20.63 116.33 12.49 124.3 19.68 132.39 12.62 125.24 20.64 132.26 28.78"/><ellipse class="cls-4" cx="124.29" cy="20.63" rx="9.45" ry="9.51"/><polygon class="cls-5" points="129.72 40.62 125.2 39.48 123.51 43.83 124.64 39.31 120.29 37.62 124.82 38.75 126.5 34.4 125.37 38.93 129.72 40.62"/><circle class="cls-6" cx="125.01" cy="39.12" r="3.84"/><polygon class="cls-7" points="127.73 41.63 125.17 39.49 126 42.73 125.01 39.54 123.96 42.71 124.84 39.49 122.25 41.59 124.73 39.36 121.42 39.73 124.71 39.2 121.72 37.71 124.78 39.04 123.07 36.18 124.93 38.95 125.03 35.62 125.09 38.95 126.99 36.21 125.24 39.05 128.31 37.76 125.31 39.2 128.59 39.78 125.28 39.37 127.73 41.63"/><polygon class="cls-8" points="125.2 6.21 120.67 5.08 118.98 9.43 120.12 4.91 115.77 3.22 120.29 4.35 121.98 0 120.85 4.53 125.2 6.21"/><circle class="cls-9" cx="120.48" cy="4.72" r="3.84"/><polygon class="cls-10" points="123.2 7.23 120.64 5.09 121.48 8.32 120.48 5.14 119.44 8.31 120.32 5.09 117.73 7.19 120.21 4.96 116.89 5.33 120.18 4.79 117.2 3.31 120.26 4.64 118.55 1.78 120.4 4.55 120.51 1.22 120.57 4.55 122.46 1.8 120.71 4.64 123.79 3.36 120.78 4.8 124.06 5.38 120.75 4.97 123.2 7.23"/><polygon class="cls-11" points="102.45 36.67 98.9 35.78 97.58 39.19 98.47 35.64 95.06 34.32 98.61 35.21 99.93 31.8 99.04 35.35 102.45 36.67"/><circle class="cls-12" cx="98.75" cy="35.5" r="3.01"/><polygon class="cls-13" points="100.89 37.47 98.88 35.79 99.53 38.32 98.75 35.83 97.93 38.31 98.63 35.79 96.59 37.44 98.54 35.69 95.94 35.98 98.52 35.56 96.18 34.39 98.58 35.44 97.24 33.19 98.69 35.37 98.78 32.75 98.82 35.37 100.31 33.22 98.93 35.44 101.35 34.43 98.99 35.56 101.56 36.02 98.97 35.69 100.89 37.47"/><polygon class="cls-14" points="92.49 41.48 88.08 40.38 86.43 44.62 87.53 40.21 83.29 38.56 87.71 39.67 89.35 35.42 88.25 39.84 92.49 41.48"/><circle class="cls-15" cx="87.89" cy="40.02" r="3.74"/><polygon class="cls-16" points="90.55 42.48 88.05 40.39 88.86 43.54 87.89 40.44 86.87 43.53 87.73 40.39 85.2 42.44 87.62 40.26 84.39 40.62 87.6 40.1 84.69 38.65 87.67 39.95 86 37.16 87.81 39.86 87.92 36.61 87.97 39.86 89.82 37.18 88.11 39.95 91.12 38.7 88.18 40.1 91.39 40.67 88.16 40.27 90.55 42.48"/><polygon class="cls-17" points="82.44 49.03 79.85 48.38 78.89 50.87 79.53 48.28 77.05 47.31 79.63 47.96 80.6 45.47 79.95 48.06 82.44 49.03"/><circle class="cls-18" cx="79.74" cy="48.17" r="2.19"/><polygon class="cls-19" points="81.3 49.61 79.83 48.39 80.31 50.23 79.74 48.41 79.14 50.23 79.65 48.38 78.17 49.59 79.58 48.31 77.69 48.52 79.57 48.22 77.86 47.37 79.61 48.13 78.63 46.49 79.69 48.08 79.76 46.17 79.79 48.08 80.88 46.51 79.87 48.13 81.63 47.39 79.91 48.22 81.79 48.55 79.9 48.31 81.3 49.61"/><polygon class="cls-20" points="67.95 83.1 63.63 82.02 62.02 86.17 63.1 81.85 58.94 80.24 63.27 81.32 64.88 77.16 63.8 81.49 67.95 83.1"/><circle class="cls-21" cx="63.45" cy="81.67" r="3.67"/><polygon class="cls-22" points="66.05 84.07 63.6 82.03 64.4 85.12 63.45 82.07 62.45 85.1 63.29 82.03 60.81 84.03 63.18 81.9 60.01 82.25 63.16 81.74 60.31 80.32 63.23 81.59 61.59 78.86 63.37 81.51 63.47 78.32 63.53 81.51 65.34 78.88 63.67 81.6 66.61 80.37 63.73 81.75 66.87 82.3 63.71 81.91 66.05 84.07"/><polygon class="cls-23" points="63.52 103.38 60.84 102.71 59.84 105.28 60.52 102.6 57.94 101.6 60.62 102.27 61.62 99.7 60.95 102.38 63.52 103.38"/><circle class="cls-24" cx="60.73" cy="102.49" r="2.27"/><polygon class="cls-25" points="62.34 103.98 60.83 102.71 61.32 104.63 60.73 102.74 60.11 104.62 60.63 102.71 59.1 103.95 60.57 102.64 58.61 102.85 60.55 102.54 58.79 101.66 60.6 102.44 59.59 100.75 60.68 102.39 60.75 100.42 60.78 102.39 61.9 100.77 60.87 102.45 62.69 101.69 60.91 102.54 62.85 102.88 60.89 102.64 62.34 103.98"/><polygon class="cls-26" points="61.71 126.91 59.03 126.24 58.03 128.82 58.7 126.14 56.13 125.14 58.81 125.81 59.81 123.24 59.14 125.92 61.71 126.91"/><circle class="cls-27" cx="58.92" cy="126.03" r="2.27"/><polygon class="cls-28" points="60.53 127.52 59.02 126.25 59.51 128.16 58.92 126.28 58.3 128.15 58.82 126.25 57.29 127.49 58.76 126.17 56.8 126.39 58.74 126.07 56.98 125.2 58.79 125.98 57.77 124.29 58.87 125.93 58.94 123.96 58.97 125.93 60.09 124.31 59.06 125.98 60.88 125.22 59.1 126.08 61.04 126.42 59.08 126.18 60.53 127.52"/><polygon class="cls-29" points="43.6 133.25 40.93 132.58 39.93 135.16 40.6 132.48 38.02 131.48 40.7 132.15 41.7 129.57 41.03 132.25 43.6 133.25"/><circle class="cls-30" cx="40.81" cy="132.37" r="2.27"/><polygon class="cls-31" points="42.42 133.85 40.91 132.59 41.4 134.5 40.81 132.62 40.2 134.49 40.72 132.59 39.18 133.83 40.65 132.51 38.69 132.73 40.64 132.41 38.87 131.53 40.68 132.32 39.67 130.63 40.77 132.27 40.83 130.29 40.87 132.27 41.99 130.64 40.95 132.32 42.77 131.56 40.99 132.41 42.93 132.76 40.98 132.51 42.42 133.85"/><polygon class="cls-32" points="14.75 124.48 14.91 131.38 18.48 125.49 15.19 131.55 21.21 128.24 15.35 131.83 22.21 131.99 15.35 132.15 21.21 135.74 15.19 132.43 18.48 138.49 14.91 132.59 14.75 139.49 14.59 132.59 11.02 138.49 14.31 132.43 8.29 135.74 14.15 132.15 7.29 131.99 14.15 131.83 8.29 128.24 14.31 131.55 11.02 125.49 14.59 131.38 14.75 124.48"/><polygon class="cls-33" points="21.44 138.83 14.74 132.78 7.95 138.72 13.96 131.98 8.06 125.15 14.76 131.19 21.55 125.26 15.54 131.99 21.44 138.83"/><ellipse class="cls-34" cx="14.75" cy="131.99" rx="7.94" ry="7.98"/><polygon class="cls-35" points="5.58 118.77 2.9 118.1 1.91 120.67 2.58 117.99 0 116.99 2.68 117.66 3.68 115.09 3.01 117.77 5.58 118.77"/><circle class="cls-36" cx="2.79" cy="117.88" r="2.27"/><polygon class="cls-37" points="4.4 119.37 2.89 118.1 3.38 120.02 2.79 118.13 2.17 120.01 2.69 118.1 1.16 119.35 2.63 118.03 0.67 118.24 2.62 117.93 0.85 117.05 2.66 117.83 1.64 116.14 2.74 117.78 2.81 115.81 2.84 117.78 3.96 116.16 2.93 117.84 4.75 117.08 2.97 117.93 4.91 118.27 2.95 118.03 4.4 119.37"/><polygon class="cls-38" points="9.2 112.43 6.52 111.76 5.53 114.33 6.2 111.66 3.62 110.66 6.3 111.33 7.3 108.75 6.63 111.43 9.2 112.43"/><circle class="cls-39" cx="6.41" cy="111.54" r="2.27"/><polygon class="cls-40" points="8.02 113.03 6.51 111.77 7 113.68 6.41 111.79 5.79 113.67 6.32 111.77 4.78 113.01 6.25 111.69 4.29 111.91 6.24 111.59 4.47 110.71 6.28 111.5 5.27 109.8 6.36 111.44 6.43 109.47 6.46 111.44 7.58 109.82 6.55 111.5 8.37 110.74 6.59 111.59 8.53 111.94 6.57 111.69 8.02 113.03"/><polygon class="cls-41" points="14.75 94.56 14.89 100.67 18.05 95.45 15.14 100.82 20.48 97.88 15.28 101.06 21.36 101.21 15.28 101.35 20.48 104.53 15.14 101.6 18.05 106.96 14.89 101.74 14.75 107.86 14.61 101.74 11.45 106.96 14.36 101.6 9.03 104.53 14.22 101.35 8.14 101.21 14.22 101.06 9.03 97.88 14.36 100.82 11.45 95.45 14.61 100.67 14.75 94.56"/><polygon class="cls-42" points="20.68 107.27 14.74 101.91 8.72 107.17 14.05 101.2 8.82 95.15 14.76 100.5 20.78 95.24 15.45 101.21 20.68 107.27"/><ellipse class="cls-43" cx="14.75" cy="101.21" rx="7.03" ry="7.07"/></g></g></svg>