<svg xmlns="http://www.w3.org/2000/svg" xmlns:xlink="http://www.w3.org/1999/xlink" viewBox="0 0 145.19 111.76"><defs><style>.cls-1{fill:none;stroke:#fcfcfa;stroke-width:0.25px;}.cls-1,.cls-10,.cls-13,.cls-16,.cls-19,.cls-22,.cls-25,.cls-28{stroke-miterlimit:10;}.cls-2{fill:url(#radial-gradient);}.cls-3{fill:url(#linear-gradient);}.cls-4{fill:url(#radial-gradient-2);}.cls-5{fill:url(#radial-gradient-3);}.cls-6{fill:url(#linear-gradient-2);}.cls-7{fill:url(#radial-gradient-4);}.cls-8{fill:url(#linear-gradient-3);}.cls-9{fill:url(#radial-gradient-5);}.cls-10{fill:url(#radial-gradient-6);stroke:url(#radial-gradient-7);}.cls-11{fill:url(#linear-gradient-4);}.cls-12{fill:url(#radial-gradient-8);}.cls-13{fill:url(#radial-gradient-9);stroke:url(#radial-gradient-10);}.cls-14{fill:url(#linear-gradient-5);}.cls-15{fill:url(#radial-gradient-11);}.cls-16{fill:url(#radial-gradient-12);stroke:url(#radial-gradient-13);}.cls-17{fill:url(#linear-gradient-6);}.cls-18{fill:url(#radial-gradient-14);}.cls-19{fill:url(#radial-gradient-15);stroke:url(#radial-gradient-16);}.cls-20{fill:url(#linear-gradient-7);}.cls-21{fill:url(#radial-gradient-17);}.cls-22{fill:url(#radial-gradient-18);stroke:url(#radial-gradient-19);}.cls-23{fill:url(#linear-gradient-8);}.cls-24{fill:url(#radial-gradient-20);}.cls-25{fill:url(#radial-gradient-21);stroke:url(#radial-gradient-22);}.cls-26{fill:url(#linear-gradient-9);}.cls-27{fill:url(#radial-gradient-23);}.cls-28{fill:url(#radial-gradient-24);stroke:url(#radial-gradient-25);}</style><radialGradient id="radial-gradient" cx="32.12" cy="80.11" r="13.88" gradientUnits="userSpaceOnUse"><stop offset="0.27" stop-color="#fff"/><stop offset="1" stop-color="#fff" stop-opacity="0"/></radialGradient><linearGradient id="linear-gradient" x1="19.46" y1="80.11" x2="44.77" y2="80.11" gradientUnits="userSpaceOnUse"><stop offset="0" stop-color="#fff"/><stop offset="1" stop-color="#fff" stop-opacity="0.5"/></linearGradient><radialGradient id="radial-gradient-2" cx="32.12" cy="80.11" r="14.77" gradientUnits="userSpaceOnUse"><stop offset="0.22" stop-color="#fff"/><stop offset="0.7" stop-color="#fff" stop-opacity="0"/></radialGradient><radialGradient id="radial-gradient-3" cx="136.21" cy="20.13" r="8.44" xlink:href="#radial-gradient"/><linearGradient id="linear-gradient-2" x1="128.52" y1="20.13" x2="143.9" y2="20.13" xlink:href="#linear-gradient"/><radialGradient id="radial-gradient-4" cx="136.21" cy="20.13" r="8.98" xlink:href="#radial-gradient-2"/><linearGradient id="linear-gradient-3" x1="123.71" y1="42.29" x2="135.86" y2="42.29" gradientUnits="userSpaceOnUse"><stop offset="0.2" stop-color="#fff"/><stop offset="0.94" stop-color="#fff" stop-opacity="0.5"/><stop offset="0.97" stop-color="#fff"/></linearGradient><radialGradient id="radial-gradient-5" cx="129.78" cy="42.29" r="4.94" gradientUnits="userSpaceOnUse"><stop offset="0.42" stop-color="#fff"/><stop offset="0.82" stop-color="#fff" stop-opacity="0"/></radialGradient><radialGradient id="radial-gradient-6" cx="129.78" cy="42.36" r="4.6" gradientUnits="userSpaceOnUse"><stop offset="0.23" stop-color="#fff"/><stop offset="0.94" stop-color="#fff" stop-opacity="0"/></radialGradient><radialGradient id="radial-gradient-7" cx="129.78" cy="42.42" r="4.68" gradientUnits="userSpaceOnUse"><stop offset="0.31" stop-color="#fff"/><stop offset="0.82" stop-color="#fff" stop-opacity="0"/></radialGradient><linearGradient id="linear-gradient-4" x1="92.71" y1="54.43" x2="103.98" y2="54.43" xlink:href="#linear-gradient-3"/><radialGradient id="radial-gradient-8" cx="98.34" cy="54.43" r="4.58" xlink:href="#radial-gradient-5"/><radialGradient id="radial-gradient-9" cx="98.34" cy="54.49" r="4.27" xlink:href="#radial-gradient-6"/><radialGradient id="radial-gradient-10" cx="98.34" cy="54.56" r="4.35" xlink:href="#radial-gradient-7"/><linearGradient id="linear-gradient-5" x1="63.56" y1="59.04" x2="72.79" y2="59.04" xlink:href="#linear-gradient-3"/><radialGradient id="radial-gradient-11" cx="68.17" cy="59.04" r="3.75" xlink:href="#radial-gradient-5"/><radialGradient id="radial-gradient-12" cx="68.17" cy="59.09" r="3.49" xlink:href="#radial-gradient-6"/><radialGradient id="radial-gradient-13" cx="68.17" cy="59.16" r="3.58" xlink:href="#radial-gradient-7"/><linearGradient id="linear-gradient-6" x1="48.2" y1="35.54" x2="57.42" y2="35.54" xlink:href="#linear-gradient-3"/><radialGradient id="radial-gradient-14" cx="52.81" cy="35.54" r="3.75" xlink:href="#radial-gradient-5"/><radialGradient id="radial-gradient-15" cx="52.81" cy="35.59" r="3.49" xlink:href="#radial-gradient-6"/><radialGradient id="radial-gradient-16" cx="52.81" cy="35.66" r="3.58" xlink:href="#radial-gradient-7"/><linearGradient id="linear-gradient-7" x1="38.88" y1="5.21" x2="49.3" y2="5.21" xlink:href="#linear-gradient-3"/><radialGradient id="radial-gradient-17" cx="44.09" cy="5.21" r="4.24" xlink:href="#radial-gradient-5"/><radialGradient id="radial-gradient-18" cx="44.08" cy="5.27" r="3.94" xlink:href="#radial-gradient-6"/><radialGradient id="radial-gradient-19" cx="44.09" cy="5.33" r="4.03" xlink:href="#radial-gradient-7"/><linearGradient id="linear-gradient-8" x1="0" y1="57.49" x2="10.42" y2="57.49" xlink:href="#linear-gradient-3"/><radialGradient id="radial-gradient-20" cx="5.21" cy="57.49" r="4.24" xlink:href="#radial-gradient-5"/><radialGradient id="radial-gradient-21" cx="5.2" cy="57.55" r="3.94" xlink:href="#radial-gradient-6"/><radialGradient id="radial-gradient-22" cx="5.21" cy="57.62" r="4.03" xlink:href="#radial-gradient-7"/><linearGradient id="linear-gradient-9" x1="10.07" y1="106.56" x2="20.49" y2="106.56" xlink:href="#linear-gradient-3"/><radialGradient id="radial-gradient-23" cx="15.28" cy="106.56" r="4.24" xlink:href="#radial-gradient-5"/><radialGradient id="radial-gradient-24" cx="15.28" cy="106.62" r="3.94" xlink:href="#radial-gradient-6"/><radialGradient id="radial-gradient-25" cx="15.28" cy="106.68" r="4.03" xlink:href="#radial-gradient-7"/></defs><title>virgo</title><g id="Layer_2" data-name="Layer 2"><g id="Layer_1-2" data-name="Layer 1"><line class="cls-1" x1="52.64" y1="35.38" x2="43.99" y2="4.87"/><line class="cls-1" x1="67.81" y1="58.5" x2="52.81" y2="35.96"/><line class="cls-1" x1="129.64" y1="43.02" x2="99.84" y2="53.7"/><line class="cls-1" x1="136.03" y1="19.45" x2="130.16" y2="42.29"/><line class="cls-1" x1="67.81" y1="60.29" x2="33.98" y2="79.82"/><line class="cls-1" x1="32.84" y1="80.11" x2="5.3" y2="57.31"/><line class="cls-1" x1="32.12" y1="80.11" x2="15.39" y2="106.38"/><line class="cls-1" x1="97.15" y1="55.51" x2="69.17" y2="59.55"/><polygon class="cls-2" points="32.12 66.23 32.41 78.99 39.06 68.09 32.93 79.29 44.14 73.17 33.23 79.81 46 80.11 33.23 80.41 44.14 87.05 32.93 80.92 39.06 92.13 32.41 81.22 32.12 93.99 31.82 81.22 25.18 92.13 31.3 80.92 20.09 87.05 31 80.41 18.23 80.11 31 79.81 20.09 73.17 31.3 79.29 25.18 68.09 31.82 78.99 32.12 66.23"/><polygon class="cls-3" points="44.57 92.76 32.1 81.58 19.46 92.56 30.64 80.09 19.67 67.45 32.13 78.63 44.77 67.66 33.59 80.12 44.57 92.76"/><circle class="cls-4" cx="32.12" cy="80.11" r="14.77"/><polygon class="cls-5" points="136.21 11.69 136.39 19.45 140.43 12.82 136.71 19.63 143.52 15.91 136.89 19.94 144.65 20.13 136.89 20.31 143.52 24.34 136.71 20.62 140.43 27.43 136.39 20.8 136.21 28.56 136.03 20.8 131.99 27.43 135.71 20.62 128.9 24.34 135.53 20.31 127.77 20.13 135.53 19.94 128.9 15.91 135.71 19.63 131.99 12.82 136.03 19.45 136.21 11.69"/><polygon class="cls-6" points="143.78 27.82 136.2 21.02 128.52 27.69 135.31 20.12 128.64 12.43 136.22 19.23 143.9 12.56 137.11 20.13 143.78 27.82"/><circle class="cls-7" cx="136.21" cy="20.13" r="8.98"/><polygon class="cls-8" points="135.86 44.22 130.03 42.76 127.86 48.36 129.31 42.53 123.71 40.36 129.54 41.82 131.71 36.22 130.25 42.04 135.86 44.22"/><circle class="cls-9" cx="129.78" cy="42.29" r="4.94"/><polygon class="cls-10" points="133.29 45.53 129.99 42.77 131.07 46.93 129.78 42.83 128.44 46.91 129.57 42.77 126.24 45.48 129.43 42.6 125.16 43.08 129.4 42.39 125.55 40.48 129.49 42.19 127.29 38.5 129.68 42.07 129.82 37.78 129.9 42.07 132.34 38.54 130.08 42.19 134.04 40.54 130.17 42.39 134.4 43.14 130.13 42.61 133.29 45.53"/><polygon class="cls-11" points="103.98 56.22 98.57 54.87 96.56 60.06 97.91 54.66 92.71 52.64 98.12 53.99 100.13 48.8 98.78 54.2 103.98 56.22"/><circle class="cls-12" cx="98.34" cy="54.43" r="4.58"/><polygon class="cls-13" points="101.59 57.44 98.54 54.88 99.53 58.74 98.34 54.94 97.09 58.72 98.15 54.88 95.05 57.39 98.02 54.73 94.06 55.16 97.99 54.52 94.42 52.75 98.07 54.34 96.03 50.92 98.25 54.23 98.38 50.25 98.45 54.23 100.71 50.95 98.62 54.34 102.29 52.81 98.7 54.53 102.62 55.22 98.67 54.73 101.59 57.44"/><polygon class="cls-14" points="72.79 60.5 68.36 59.4 66.71 63.65 67.81 59.23 63.56 57.58 67.99 58.68 69.64 54.43 68.53 58.85 72.79 60.5"/><circle class="cls-15" cx="68.17" cy="59.04" r="3.75"/><polygon class="cls-16" points="70.83 61.5 68.33 59.41 69.15 62.57 68.17 59.45 67.15 62.55 68.01 59.41 65.48 61.46 67.9 59.28 64.66 59.64 67.88 59.12 64.96 57.66 67.95 58.97 66.28 56.16 68.09 58.88 68.2 55.62 68.26 58.88 70.11 56.19 68.4 58.97 71.41 57.71 68.46 59.12 71.68 59.69 68.44 59.28 70.83 61.5"/><polygon class="cls-17" points="57.42 37.01 52.99 35.9 51.34 40.16 52.45 35.73 48.2 34.08 52.63 35.18 54.27 30.93 53.17 35.36 57.42 37.01"/><circle class="cls-18" cx="52.81" cy="35.54" r="3.75"/><polygon class="cls-19" points="55.47 38 52.97 35.91 53.78 39.07 52.81 35.96 51.79 39.06 52.65 35.91 50.11 37.96 52.54 35.78 49.3 36.14 52.52 35.62 49.59 34.17 52.59 35.47 50.91 32.66 52.73 35.38 52.84 32.12 52.9 35.38 54.75 32.69 53.03 35.47 56.05 34.21 53.1 35.62 56.31 36.19 53.08 35.79 55.47 38"/><polygon class="cls-20" points="49.3 6.86 44.3 5.61 42.43 10.42 43.69 5.42 38.88 3.56 43.88 4.81 45.74 0 44.49 5 49.3 6.86"/><circle class="cls-21" cx="44.09" cy="5.21" r="4.24"/><polygon class="cls-22" points="47.09 7.99 44.27 5.63 45.19 9.19 44.09 5.68 42.93 9.18 43.91 5.62 41.04 7.94 43.78 5.48 40.12 5.89 43.76 5.29 40.46 3.66 43.84 5.13 41.95 1.96 44 5.03 44.12 1.34 44.18 5.03 46.28 1.99 44.34 5.13 47.74 3.71 44.42 5.3 48.05 5.94 44.39 5.49 47.09 7.99"/><polygon class="cls-23" points="10.42 59.15 5.42 57.9 3.56 62.7 4.81 57.7 0 55.84 5 57.09 6.86 52.29 5.61 57.29 10.42 59.15"/><circle class="cls-24" cx="5.21" cy="57.49" r="4.24"/><polygon class="cls-25" points="8.21 60.27 5.39 57.91 6.31 61.48 5.21 57.96 4.05 61.46 5.03 57.91 2.17 60.23 4.91 57.77 1.24 58.17 4.88 57.58 1.58 55.94 4.96 57.41 3.07 54.25 5.12 57.31 5.24 53.63 5.3 57.31 7.4 54.28 5.46 57.41 8.86 55.99 5.54 57.59 9.17 58.23 5.51 57.77 8.21 60.27"/><polygon class="cls-26" points="20.49 108.21 15.49 106.96 13.63 111.77 14.88 106.77 10.07 104.9 15.07 106.15 16.94 101.35 15.69 106.35 20.49 108.21"/><circle class="cls-27" cx="15.28" cy="106.56" r="4.24"/><polygon class="cls-28" points="18.29 109.33 15.46 106.97 16.38 110.54 15.28 107.03 14.13 110.52 15.1 106.97 12.24 109.29 14.98 106.83 11.32 107.23 14.95 106.64 11.65 105 15.03 106.47 13.14 103.31 15.19 106.37 15.31 102.69 15.38 106.37 17.47 103.34 15.54 106.48 18.93 105.06 15.61 106.65 19.24 107.29 15.58 106.83 18.29 109.33"/></g></g></svg>